<ttFont>
    <TTGlyph name=".notdef" xMin="139" yMin="-105" xMax="1572" yMax="1401">
      <contour>
        <pt x="281" y="77" on="1"/>
        <pt x="190" y="205" on="0"/>
        <pt x="150" y="496" on="1"/>
        <pt x="139" y="572" on="0"/>
        <pt x="139" y="691" on="0"/>
        <pt x="144" y="834" on="0"/>
        <pt x="153" y="904" on="1"/>
        <pt x="174" y="1065" on="0"/>
        <pt x="223" y="1155" on="1"/>
        <pt x="284" y="1253" on="0"/>
        <pt x="421" y="1318" on="1"/>
        <pt x="526" y="1367" on="0"/>
        <pt x="778" y="1393" on="1"/>
        <pt x="855" y="1401" on="0"/>
        <pt x="989" y="1401" on="0"/>
        <pt x="1118" y="1385" on="0"/>
        <pt x="1176" y="1372" on="1"/>
        <pt x="1294" y="1346" on="0"/>
        <pt x="1361" y="1308" on="1"/>
        <pt x="1572" y="1163" on="0"/>
        <pt x="1572" y="692" on="1"/>
        <pt x="1572" y="519" on="0"/>
        <pt x="1500" y="282" on="1"/>
        <pt x="1425" y="34" on="0"/>
        <pt x="1336" y="-32" on="1"/>
        <pt x="1243" y="-98" on="0"/>
        <pt x="977" y="-105" on="1"/>
        <pt x="958" y="-105" on="1"/>
        <pt x="629" y="-105" on="0"/>
        <pt x="390" y="12" on="1"/>
        <pt x="324" y="45" on="0"/>
      </contour>
      <contour>
        <pt x="675" y="153" on="1"/>
        <pt x="683" y="212" on="0"/>
        <pt x="715" y="296" on="1"/>
        <pt x="759" y="413" on="1"/>
        <pt x="772" y="446" on="0"/>
        <pt x="784" y="472" on="1"/>
        <pt x="802" y="515" on="1"/>
        <pt x="826" y="527" on="1"/>
        <pt x="1083" y="99" on="1"/>
        <pt x="1282" y="245" on="1"/>
        <pt x="1261" y="283" on="0"/>
        <pt x="1220" y="336" on="1"/>
        <pt x="1079" y="510" on="0"/>
        <pt x="1044" y="550" on="1"/>
        <pt x="987" y="613" on="1"/>
        <pt x="1065" y="652" on="1"/>
        <pt x="1080" y="673" on="0"/>
        <pt x="1100" y="704" on="1"/>
        <pt x="1254" y="958" on="0"/>
        <pt x="1278" y="1064" on="1"/>
        <pt x="1049" y="1140" on="1"/>
        <pt x="1042" y="1118" on="0"/>
        <pt x="1030" y="1086" on="1"/>
        <pt x="910" y="795" on="0"/>
        <pt x="895" y="761" on="1"/>
        <pt x="876" y="751" on="1"/>
        <pt x="632" y="1158" on="1"/>
        <pt x="433" y="1013" on="1"/>
        <pt x="459" y="962" on="0"/>
        <pt x="526" y="880" on="1"/>
        <pt x="656" y="725" on="0"/>
        <pt x="709" y="667" on="1"/>
        <pt x="621" y="619" on="1"/>
        <pt x="532" y="500" on="0"/>
        <pt x="472" y="315" on="1"/>
        <pt x="452" y="251" on="0"/>
        <pt x="443" y="187" on="1"/>
      </contour>
    </TTGlyph>
    <TTGlyph name="A" xMin="85" yMin="-29" xMax="1095" yMax="1298">
      <contour>
        <pt x="642" y="331" on="1"/>
        <pt x="576" y="331" on="1"/>
        <pt x="520" y="331" on="0"/>
        <pt x="399" y="354" on="1"/>
        <pt x="323" y="-16" on="1"/>
        <pt x="85" y="37" on="1"/>
        <pt x="202" y="557" on="1"/>
        <pt x="338" y="1237" on="1"/>
        <pt x="564" y="1277" on="0"/>
        <pt x="815" y="1298" on="1"/>
        <pt x="973" y="612" on="1"/>
        <pt x="1095" y="10" on="1"/>
        <pt x="852" y="-29" on="1"/>
        <pt x="745" y="561" on="1"/>
        <pt x="641" y="1059" on="1"/>
        <pt x="584" y="1059" on="0"/>
        <pt x="522" y="1040" on="1"/>
        <pt x="436" y="547" on="1"/>
        <pt x="694" y="541" on="1"/>
        <pt x="663" y="332" on="1"/>
        <pt x="652" y="331" on="0"/>
      </contour>
    </TTGlyph>
    <TTGlyph name="AE" xMin="84" yMin="-68" xMax="1493" yMax="1354">
      <contour>
        <pt x="1008" y="225" on="1"/>
        <pt x="1493" y="152" on="1"/>
        <pt x="1440" y="-68" on="1"/>
        <pt x="1288" y="-48" on="1"/>
        <pt x="956" y="-2" on="0"/>
        <pt x="789" y="43" on="1"/>
        <pt x="776" y="1075" on="1"/>
        <pt x="536" y="1051" on="1"/>
        <pt x="461" y="547" on="1"/>
        <pt x="699" y="541" on="1"/>
        <pt x="670" y="332" on="1"/>
        <pt x="659" y="331" on="0"/>
        <pt x="639" y="331" on="0"/>
        <pt x="601" y="331" on="0"/>
        <pt x="552" y="334" on="0"/>
        <pt x="503" y="340" on="0"/>
        <pt x="478" y="344" on="1"/>
        <pt x="424" y="354" on="1"/>
        <pt x="325" y="-16" on="1"/>
        <pt x="84" y="49" on="1"/>
        <pt x="231" y="594" on="1"/>
        <pt x="344" y="1227" on="1"/>
        <pt x="570" y="1278" on="0"/>
        <pt x="902" y="1308" on="1"/>
        <pt x="1444" y="1354" on="1"/>
        <pt x="1477" y="1124" on="1"/>
        <pt x="1470" y="1127" on="0"/>
        <pt x="1284" y="1113" on="1"/>
        <pt x="1004" y="1092" on="1"/>
        <pt x="1014" y="725" on="1"/>
        <pt x="1444" y="743" on="1"/>
        <pt x="1428" y="508" on="1"/>
        <pt x="1016" y="522" on="1"/>
      </contour>
    </TTGlyph>
    <TTGlyph name="Aacute" xMin="85" yMin="-29" xMax="1095" yMax="1820">
      <contour>
        <pt x="366" y="1519" on="1"/>
        <pt x="719" y="1820" on="1"/>
        <pt x="868" y="1634" on="1"/>
        <pt x="815" y="1569" on="0"/>
        <pt x="720" y="1515" on="1"/>
        <pt x="553" y="1420" on="0"/>
        <pt x="446" y="1396" on="1"/>
      </contour>
      <contour>
        <pt x="642" y="331" on="1"/>
        <pt x="576" y="331" on="1"/>
        <pt x="520" y="331" on="0"/>
        <pt x="399" y="354" on="1"/>
        <pt x="323" y="-16" on="1"/>
        <pt x="85" y="37" on="1"/>
        <pt x="202" y="557" on="1"/>
        <pt x="338" y="1237" on="1"/>
        <pt x="564" y="1277" on="0"/>
        <pt x="815" y="1298" on="1"/>
        <pt x="973" y="612" on="1"/>
        <pt x="1095" y="10" on="1"/>
        <pt x="852" y="-29" on="1"/>
        <pt x="745" y="561" on="1"/>
        <pt x="641" y="1059" on="1"/>
        <pt x="584" y="1059" on="0"/>
        <pt x="522" y="1040" on="1"/>
        <pt x="436" y="547" on="1"/>
        <pt x="694" y="541" on="1"/>
        <pt x="663" y="332" on="1"/>
        <pt x="652" y="331" on="0"/>
      </contour>
    </TTGlyph>
    <TTGlyph name="Acircumflex" xMin="85" yMin="-29" xMax="1095" yMax="1799">
      <contour>
        <pt x="539" y="1580" on="1"/>
        <pt x="439" y="1472" on="0"/>
        <pt x="336" y="1398" on="1"/>
        <pt x="227" y="1496" on="1"/>
        <pt x="451" y="1793" on="1"/>
        <pt x="641" y="1799" on="1"/>
        <pt x="872" y="1494" on="1"/>
        <pt x="748" y="1398" on="1"/>
        <pt x="630" y="1496" on="0"/>
        <pt x="600" y="1523" on="1"/>
      </contour>
      <contour>
        <pt x="642" y="331" on="1"/>
        <pt x="576" y="331" on="1"/>
        <pt x="520" y="331" on="0"/>
        <pt x="399" y="354" on="1"/>
        <pt x="323" y="-16" on="1"/>
        <pt x="85" y="37" on="1"/>
        <pt x="202" y="557" on="1"/>
        <pt x="338" y="1237" on="1"/>
        <pt x="564" y="1277" on="0"/>
        <pt x="815" y="1298" on="1"/>
        <pt x="973" y="612" on="1"/>
        <pt x="1095" y="10" on="1"/>
        <pt x="852" y="-29" on="1"/>
        <pt x="852" y="-29" on="0"/>
        <pt x="745" y="561" on="1"/>
        <pt x="641" y="1059" on="1"/>
        <pt x="584" y="1059" on="0"/>
        <pt x="522" y="1040" on="1"/>
        <pt x="436" y="547" on="1"/>
        <pt x="694" y="541" on="1"/>
        <pt x="663" y="332" on="1"/>
        <pt x="652" y="331" on="0"/>
      </contour>
    </TTGlyph>
    <TTGlyph name="Adieresis" xMin="85" yMin="-29" xMax="1095" yMax="1774">
      <contour>
        <pt x="442" y="1774" on="1"/>
        <pt x="477" y="1716" on="0"/>
        <pt x="477" y="1581" on="1"/>
        <pt x="477" y="1510" on="0"/>
        <pt x="465" y="1488" on="1"/>
        <pt x="266" y="1477" on="1"/>
        <pt x="249" y="1623" on="0"/>
        <pt x="225" y="1719" on="1"/>
      </contour>
      <contour>
        <pt x="852" y="1764" on="1"/>
        <pt x="867" y="1732" on="0"/>
        <pt x="867" y="1645" on="0"/>
        <pt x="858" y="1580" on="0"/>
        <pt x="852" y="1551" on="1"/>
        <pt x="838" y="1490" on="0"/>
        <pt x="819" y="1463" on="1"/>
        <pt x="617" y="1498" on="1"/>
        <pt x="634" y="1572" on="0"/>
        <pt x="634" y="1706" on="0"/>
        <pt x="629" y="1748" on="1"/>
      </contour>
      <contour>
        <pt x="642" y="331" on="1"/>
        <pt x="576" y="331" on="1"/>
        <pt x="520" y="331" on="0"/>
        <pt x="399" y="354" on="1"/>
        <pt x="323" y="-16" on="1"/>
        <pt x="85" y="37" on="1"/>
        <pt x="202" y="557" on="1"/>
        <pt x="338" y="1237" on="1"/>
        <pt x="564" y="1277" on="0"/>
        <pt x="815" y="1298" on="1"/>
        <pt x="973" y="612" on="1"/>
        <pt x="1095" y="10" on="1"/>
        <pt x="852" y="-29" on="1"/>
        <pt x="745" y="561" on="1"/>
        <pt x="641" y="1059" on="1"/>
        <pt x="584" y="1059" on="0"/>
        <pt x="522" y="1040" on="1"/>
        <pt x="436" y="547" on="1"/>
        <pt x="694" y="541" on="1"/>
        <pt x="663" y="332" on="1"/>
        <pt x="652" y="331" on="0"/>
      </contour>
    </TTGlyph>
    <TTGlyph name="Agrave" xMin="85" yMin="-29" xMax="1095" yMax="1820">
      <contour>
        <pt x="677" y="1404" on="1"/>
        <pt x="570" y="1428" on="0"/>
        <pt x="473" y="1484" on="1"/>
        <pt x="301" y="1582" on="0"/>
        <pt x="249" y="1646" on="1"/>
        <pt x="413" y="1820" on="1"/>
        <pt x="757" y="1527" on="1"/>
      </contour>
      <contour>
        <pt x="642" y="331" on="1"/>
        <pt x="576" y="331" on="1"/>
        <pt x="520" y="331" on="0"/>
        <pt x="399" y="354" on="1"/>
        <pt x="323" y="-16" on="1"/>
        <pt x="85" y="37" on="1"/>
        <pt x="202" y="557" on="1"/>
        <pt x="338" y="1237" on="1"/>
        <pt x="564" y="1277" on="0"/>
        <pt x="815" y="1298" on="1"/>
        <pt x="973" y="612" on="1"/>
        <pt x="1095" y="10" on="1"/>
        <pt x="852" y="-29" on="1"/>
        <pt x="745" y="561" on="1"/>
        <pt x="641" y="1059" on="1"/>
        <pt x="584" y="1059" on="0"/>
        <pt x="522" y="1040" on="1"/>
        <pt x="436" y="547" on="1"/>
        <pt x="694" y="541" on="1"/>
        <pt x="663" y="332" on="1"/>
        <pt x="652" y="331" on="0"/>
      </contour>
    </TTGlyph>
    <TTGlyph name="Aring" xMin="85" yMin="-29" xMax="1095" yMax="1818">
      <contour>
        <pt x="683" y="1405" on="0"/>
        <pt x="598" y="1367" on="0"/>
        <pt x="494" y="1367" on="0"/>
        <pt x="410" y="1402" on="0"/>
        <pt x="380" y="1434" on="1"/>
        <pt x="315" y="1500" on="0"/>
        <pt x="315" y="1609" on="1"/>
        <pt x="315" y="1710" on="0"/>
        <pt x="382" y="1766" on="1"/>
        <pt x="444" y="1818" on="0"/>
        <pt x="551" y="1818" on="1"/>
        <pt x="706" y="1818" on="0"/>
        <pt x="756" y="1705" on="1"/>
        <pt x="774" y="1666" on="0"/>
        <pt x="774" y="1561" on="0"/>
        <pt x="742" y="1471" on="0"/>
      </contour>
      <contour>
        <pt x="542" y="1527" on="1"/>
        <pt x="601" y="1527" on="0"/>
        <pt x="614" y="1595" on="1"/>
        <pt x="619" y="1664" on="0"/>
        <pt x="548" y="1664" on="1"/>
        <pt x="496" y="1664" on="0"/>
        <pt x="482" y="1628" on="1"/>
        <pt x="477" y="1615" on="0"/>
        <pt x="483" y="1569" on="0"/>
        <pt x="507" y="1527" on="0"/>
      </contour>
      <contour>
        <pt x="642" y="331" on="1"/>
        <pt x="576" y="331" on="1"/>
        <pt x="520" y="331" on="0"/>
        <pt x="399" y="354" on="1"/>
        <pt x="323" y="-16" on="1"/>
        <pt x="85" y="37" on="1"/>
        <pt x="202" y="557" on="1"/>
        <pt x="338" y="1237" on="1"/>
        <pt x="564" y="1277" on="0"/>
        <pt x="815" y="1298" on="1"/>
        <pt x="973" y="612" on="1"/>
        <pt x="1095" y="10" on="1"/>
        <pt x="852" y="-29" on="1"/>
        <pt x="745" y="561" on="1"/>
        <pt x="641" y="1059" on="1"/>
        <pt x="584" y="1059" on="0"/>
        <pt x="522" y="1040" on="1"/>
        <pt x="436" y="547" on="1"/>
        <pt x="694" y="541" on="1"/>
        <pt x="663" y="332" on="1"/>
        <pt x="652" y="331" on="0"/>
      </contour>
    </TTGlyph>
    <TTGlyph name="Atilde" xMin="85" yMin="-29" xMax="1095" yMax="1744">
      <contour>
        <pt x="196" y="1535" on="1"/>
        <pt x="236" y="1595" on="0"/>
        <pt x="288" y="1643" on="1"/>
        <pt x="384" y="1732" on="0"/>
        <pt x="451" y="1732" on="0"/>
        <pt x="520" y="1704" on="0"/>
        <pt x="552" y="1687" on="1"/>
        <pt x="612" y="1656" on="1"/>
        <pt x="639" y="1642" on="0"/>
        <pt x="653" y="1642" on="0"/>
        <pt x="662" y="1646" on="0"/>
        <pt x="692" y="1665" on="0"/>
        <pt x="722" y="1686" on="1"/>
        <pt x="804" y="1744" on="1"/>
        <pt x="880" y="1650" on="1"/>
        <pt x="836" y="1586" on="1"/>
        <pt x="722" y="1423" on="0"/>
        <pt x="637" y="1423" on="1"/>
        <pt x="595" y="1423" on="0"/>
        <pt x="482" y="1486" on="0"/>
        <pt x="434" y="1515" on="0"/>
        <pt x="424" y="1515" on="0"/>
        <pt x="415" y="1512" on="0"/>
        <pt x="399" y="1505" on="1"/>
        <pt x="260" y="1443" on="1"/>
      </contour>
      <contour>
        <pt x="642" y="331" on="1"/>
        <pt x="576" y="331" on="1"/>
        <pt x="520" y="331" on="0"/>
        <pt x="399" y="354" on="1"/>
        <pt x="323" y="-16" on="1"/>
        <pt x="85" y="37" on="1"/>
        <pt x="202" y="557" on="1"/>
        <pt x="338" y="1237" on="1"/>
        <pt x="564" y="1277" on="0"/>
        <pt x="815" y="1298" on="1"/>
        <pt x="973" y="612" on="1"/>
        <pt x="1095" y="10" on="1"/>
        <pt x="852" y="-29" on="1"/>
        <pt x="745" y="561" on="1"/>
        <pt x="641" y="1059" on="1"/>
        <pt x="584" y="1059" on="0"/>
        <pt x="522" y="1040" on="1"/>
        <pt x="436" y="547" on="1"/>
        <pt x="694" y="541" on="1"/>
        <pt x="663" y="332" on="1"/>
        <pt x="652" y="331" on="0"/>
      </contour>
    </TTGlyph>
    <TTGlyph name="B" xMin="63" yMin="-41" xMax="1019" yMax="1313">
      <contour>
        <pt x="175" y="932" on="1"/>
        <pt x="409" y="973" on="1"/>
        <pt x="415" y="784" on="1"/>
        <pt x="415" y="670" on="1"/>
        <pt x="704" y="723" on="1"/>
        <pt x="765" y="820" on="0"/>
        <pt x="765" y="944" on="1"/>
        <pt x="765" y="977" on="0"/>
        <pt x="759" y="1006" on="1"/>
        <pt x="513" y="1075" on="0"/>
        <pt x="63" y="1075" on="1"/>
        <pt x="99" y="1313" on="1"/>
        <pt x="544" y="1307" on="0"/>
        <pt x="861" y="1239" on="1"/>
        <pt x="908" y="1227" on="0"/>
        <pt x="965" y="1136" on="1"/>
        <pt x="1019" y="1050" on="0"/>
        <pt x="1019" y="982" on="0"/>
        <pt x="1009" y="907" on="0"/>
        <pt x="999" y="864" on="1"/>
        <pt x="962" y="705" on="0"/>
        <pt x="919" y="666" on="1"/>
        <pt x="891" y="640" on="0"/>
        <pt x="761" y="600" on="1"/>
        <pt x="759" y="592" on="1"/>
        <pt x="958" y="502" on="1"/>
        <pt x="972" y="442" on="0"/>
        <pt x="972" y="325" on="0"/>
        <pt x="958" y="237" on="0"/>
        <pt x="948" y="198" on="1"/>
        <pt x="914" y="76" on="0"/>
        <pt x="875" y="50" on="1"/>
        <pt x="813" y="9" on="0"/>
        <pt x="404" y="-28" on="1"/>
        <pt x="277" y="-39" on="0"/>
        <pt x="204" y="-41" on="1"/>
      </contour>
      <contour>
        <pt x="429" y="170" on="1"/>
        <pt x="614" y="186" on="0"/>
        <pt x="699" y="213" on="1"/>
        <pt x="730" y="315" on="0"/>
        <pt x="730" y="418" on="0"/>
        <pt x="725" y="471" on="0"/>
        <pt x="710" y="483" on="1"/>
        <pt x="423" y="512" on="1"/>
      </contour>
    </TTGlyph>
    <TTGlyph name="C" xMin="113" yMin="-51" xMax="814" yMax="1322">
      <contour>
        <pt x="211" y="79" on="0"/>
        <pt x="191" y="94" on="0"/>
        <pt x="183" y="106" on="1"/>
        <pt x="138" y="174" on="0"/>
        <pt x="118" y="510" on="1"/>
        <pt x="113" y="585" on="0"/>
        <pt x="113" y="729" on="0"/>
        <pt x="119" y="852" on="0"/>
        <pt x="124" y="907" on="1"/>
        <pt x="135" y="1031" on="0"/>
        <pt x="144" y="1056" on="1"/>
        <pt x="156" y="1094" on="1"/>
        <pt x="172" y="1142" on="0"/>
        <pt x="229" y="1165" on="1"/>
        <pt x="254" y="1175" on="0"/>
        <pt x="294" y="1188" on="1"/>
        <pt x="382" y="1218" on="1"/>
        <pt x="431" y="1233" on="0"/>
        <pt x="484" y="1248" on="1"/>
        <pt x="586" y="1278" on="1"/>
        <pt x="689" y="1307" on="0"/>
        <pt x="760" y="1322" on="1"/>
        <pt x="814" y="1079" on="1"/>
        <pt x="789" y="1073" on="0"/>
        <pt x="753" y="1066" on="1"/>
        <pt x="509" y="1020" on="1"/>
        <pt x="440" y="1006" on="1"/>
        <pt x="410" y="999" on="0"/>
        <pt x="395" y="995" on="1"/>
        <pt x="367" y="883" on="0"/>
        <pt x="367" y="670" on="1"/>
        <pt x="367" y="392" on="0"/>
        <pt x="401" y="260" on="1"/>
        <pt x="443" y="250" on="0"/>
        <pt x="492" y="240" on="1"/>
        <pt x="698" y="198" on="1"/>
        <pt x="795" y="180" on="1"/>
        <pt x="739" y="-51" on="1"/>
        <pt x="649" y="-35" on="0"/>
        <pt x="575" y="-17" on="1"/>
        <pt x="294" y="50" on="0"/>
      </contour>
    </TTGlyph>
    <TTGlyph name="Ccedilla" xMin="137" yMin="-550" xMax="838" yMax="1322">
      <contour>
        <pt x="763" y="-51" on="1"/>
        <pt x="652" y="-30" on="0"/>
        <pt x="557" y="-7" on="1"/>
        <pt x="539" y="-109" on="1"/>
        <pt x="563" y="-115" on="0"/>
        <pt x="588" y="-122" on="1"/>
        <pt x="634" y="-136" on="1"/>
        <pt x="701" y="-157" on="0"/>
        <pt x="715" y="-178" on="0"/>
        <pt x="718" y="-188" on="1"/>
        <pt x="722" y="-201" on="0"/>
        <pt x="722" y="-247" on="0"/>
        <pt x="713" y="-310" on="0"/>
        <pt x="706" y="-342" on="1"/>
        <pt x="688" y="-415" on="0"/>
        <pt x="665" y="-449" on="0"/>
        <pt x="625" y="-472" on="0"/>
        <pt x="570" y="-494" on="0"/>
        <pt x="508" y="-515" on="0"/>
        <pt x="478" y="-524" on="1"/>
        <pt x="424" y="-540" on="1"/>
        <pt x="400" y="-547" on="0"/>
        <pt x="387" y="-550" on="1"/>
        <pt x="341" y="-389" on="1"/>
        <pt x="398" y="-373" on="0"/>
        <pt x="440" y="-360" on="1"/>
        <pt x="522" y="-335" on="1"/>
        <pt x="528" y="-275" on="1"/>
        <pt x="463" y="-255" on="0"/>
        <pt x="417" y="-247" on="1"/>
        <pt x="343" y="-233" on="1"/>
        <pt x="420" y="26" on="1"/>
        <pt x="253" y="66" on="0"/>
        <pt x="215" y="94" on="0"/>
        <pt x="207" y="106" on="1"/>
        <pt x="162" y="174" on="0"/>
        <pt x="142" y="510" on="1"/>
        <pt x="137" y="585" on="0"/>
        <pt x="137" y="729" on="0"/>
        <pt x="143" y="852" on="0"/>
        <pt x="148" y="907" on="1"/>
        <pt x="159" y="1031" on="0"/>
        <pt x="168" y="1056" on="1"/>
        <pt x="180" y="1094" on="1"/>
        <pt x="196" y="1142" on="0"/>
        <pt x="253" y="1165" on="1"/>
        <pt x="278" y="1175" on="0"/>
        <pt x="318" y="1188" on="1"/>
        <pt x="406" y="1218" on="1"/>
        <pt x="455" y="1233" on="0"/>
        <pt x="508" y="1248" on="1"/>
        <pt x="610" y="1278" on="1"/>
        <pt x="713" y="1307" on="0"/>
        <pt x="784" y="1322" on="1"/>
        <pt x="838" y="1079" on="1"/>
        <pt x="813" y="1073" on="0"/>
        <pt x="777" y="1066" on="1"/>
        <pt x="533" y="1020" on="1"/>
        <pt x="464" y="1006" on="1"/>
        <pt x="434" y="999" on="0"/>
        <pt x="419" y="995" on="1"/>
        <pt x="391" y="883" on="0"/>
        <pt x="391" y="670" on="1"/>
        <pt x="391" y="392" on="0"/>
        <pt x="425" y="260" on="1"/>
        <pt x="467" y="250" on="0"/>
        <pt x="516" y="240" on="1"/>
        <pt x="722" y="198" on="1"/>
        <pt x="819" y="180" on="1"/>
      </contour>
    </TTGlyph>
    <TTGlyph name="D" xMin="55" yMin="-18" xMax="1036" yMax="1323">
      <contour>
        <pt x="416" y="209" on="1"/>
        <pt x="437" y="211" on="1"/>
        <pt x="470" y="216" on="0"/>
        <pt x="539" y="225" on="0"/>
        <pt x="576" y="232" on="1"/>
        <pt x="665" y="247" on="0"/>
        <pt x="717" y="264" on="1"/>
        <pt x="783" y="537" on="0"/>
        <pt x="783" y="836" on="1"/>
        <pt x="783" y="948" on="0"/>
        <pt x="772" y="1030" on="1"/>
        <pt x="500" y="1081" on="0"/>
        <pt x="82" y="1081" on="1"/>
        <pt x="55" y="1081" on="1"/>
        <pt x="100" y="1323" on="1"/>
        <pt x="121" y="1323" on="1"/>
        <pt x="501" y="1323" on="0"/>
        <pt x="782" y="1262" on="1"/>
        <pt x="836" y="1251" on="0"/>
        <pt x="889" y="1231" on="0"/>
        <pt x="941" y="1183" on="0"/>
        <pt x="966" y="1154" on="1"/>
        <pt x="1024" y="1083" on="0"/>
        <pt x="1028" y="1046" on="1"/>
        <pt x="1036" y="972" on="0"/>
        <pt x="1036" y="788" on="0"/>
        <pt x="1020" y="584" on="0"/>
        <pt x="1004" y="485" on="1"/>
        <pt x="971" y="270" on="0"/>
        <pt x="915" y="133" on="1"/>
        <pt x="903" y="102" on="0"/>
        <pt x="874" y="75" on="0"/>
        <pt x="786" y="46" on="0"/>
        <pt x="657" y="20" on="0"/>
        <pt x="578" y="11" on="1"/>
        <pt x="431" y="-6" on="0"/>
        <pt x="186" y="-18" on="1"/>
        <pt x="186" y="940" on="1"/>
        <pt x="432" y="993" on="1"/>
        <pt x="436" y="778" on="1"/>
      </contour>
    </TTGlyph>
    <TTGlyph name="E" xMin="155" yMin="-68" xMax="872" yMax="1317">
      <contour>
        <pt x="387" y="223" on="1"/>
        <pt x="872" y="150" on="1"/>
        <pt x="819" y="-68" on="1"/>
        <pt x="668" y="-48" on="1"/>
        <pt x="335" y="-2" on="0"/>
        <pt x="168" y="43" on="1"/>
        <pt x="155" y="1196" on="1"/>
        <pt x="508" y="1286" on="0"/>
        <pt x="827" y="1317" on="1"/>
        <pt x="862" y="1079" on="1"/>
        <pt x="383" y="1024" on="1"/>
        <pt x="393" y="725" on="1"/>
        <pt x="823" y="743" on="1"/>
        <pt x="807" y="508" on="1"/>
        <pt x="395" y="522" on="1"/>
      </contour>
    </TTGlyph>
    <TTGlyph name="Eacute" xMin="165" yMin="-68" xMax="882" yMax="1820">
      <contour>
        <pt x="315" y="1519" on="1"/>
        <pt x="668" y="1820" on="1"/>
        <pt x="817" y="1634" on="1"/>
        <pt x="764" y="1569" on="0"/>
        <pt x="669" y="1515" on="1"/>
        <pt x="502" y="1420" on="0"/>
        <pt x="395" y="1396" on="1"/>
      </contour>
      <contour>
        <pt x="397" y="223" on="1"/>
        <pt x="882" y="150" on="1"/>
        <pt x="829" y="-68" on="1"/>
        <pt x="678" y="-48" on="1"/>
        <pt x="345" y="-2" on="0"/>
        <pt x="178" y="43" on="1"/>
        <pt x="165" y="1196" on="1"/>
        <pt x="518" y="1286" on="0"/>
        <pt x="837" y="1317" on="1"/>
        <pt x="872" y="1079" on="1"/>
        <pt x="393" y="1024" on="1"/>
        <pt x="403" y="725" on="1"/>
        <pt x="833" y="743" on="1"/>
        <pt x="817" y="508" on="1"/>
        <pt x="405" y="522" on="1"/>
      </contour>
    </TTGlyph>
    <TTGlyph name="Ecircumflex" xMin="165" yMin="-68" xMax="882" yMax="1801">
      <contour>
        <pt x="504" y="1582" on="1"/>
        <pt x="404" y="1474" on="0"/>
        <pt x="301" y="1400" on="1"/>
        <pt x="192" y="1498" on="1"/>
        <pt x="416" y="1795" on="1"/>
        <pt x="606" y="1801" on="1"/>
        <pt x="837" y="1496" on="1"/>
        <pt x="713" y="1400" on="1"/>
        <pt x="595" y="1498" on="0"/>
        <pt x="565" y="1525" on="1"/>
      </contour>
      <contour>
        <pt x="397" y="223" on="1"/>
        <pt x="882" y="150" on="1"/>
        <pt x="829" y="-68" on="1"/>
        <pt x="678" y="-48" on="1"/>
        <pt x="345" y="-2" on="0"/>
        <pt x="178" y="43" on="1"/>
        <pt x="165" y="1196" on="1"/>
        <pt x="518" y="1286" on="0"/>
        <pt x="837" y="1317" on="1"/>
        <pt x="872" y="1079" on="1"/>
        <pt x="393" y="1024" on="1"/>
        <pt x="403" y="725" on="1"/>
        <pt x="833" y="743" on="1"/>
        <pt x="817" y="508" on="1"/>
        <pt x="405" y="522" on="1"/>
      </contour>
    </TTGlyph>
    <TTGlyph name="Edieresis" xMin="165" yMin="-68" xMax="882" yMax="1776">
      <contour>
        <pt x="411" y="1776" on="1"/>
        <pt x="446" y="1718" on="0"/>
        <pt x="446" y="1583" on="1"/>
        <pt x="446" y="1512" on="0"/>
        <pt x="434" y="1490" on="1"/>
        <pt x="235" y="1479" on="1"/>
        <pt x="218" y="1625" on="0"/>
        <pt x="194" y="1721" on="1"/>
      </contour>
      <contour>
        <pt x="821" y="1766" on="1"/>
        <pt x="836" y="1734" on="0"/>
        <pt x="836" y="1647" on="0"/>
        <pt x="827" y="1582" on="0"/>
        <pt x="820" y="1553" on="1"/>
        <pt x="807" y="1492" on="0"/>
        <pt x="788" y="1465" on="1"/>
        <pt x="586" y="1500" on="1"/>
        <pt x="603" y="1574" on="0"/>
        <pt x="603" y="1708" on="0"/>
        <pt x="598" y="1750" on="1"/>
      </contour>
      <contour>
        <pt x="397" y="223" on="1"/>
        <pt x="882" y="150" on="1"/>
        <pt x="829" y="-68" on="1"/>
        <pt x="678" y="-48" on="1"/>
        <pt x="345" y="-2" on="0"/>
        <pt x="178" y="43" on="1"/>
        <pt x="165" y="1196" on="1"/>
        <pt x="518" y="1286" on="0"/>
        <pt x="837" y="1317" on="1"/>
        <pt x="872" y="1079" on="1"/>
        <pt x="393" y="1024" on="1"/>
        <pt x="403" y="725" on="1"/>
        <pt x="833" y="743" on="1"/>
        <pt x="817" y="508" on="1"/>
        <pt x="405" y="522" on="1"/>
      </contour>
    </TTGlyph>
    <TTGlyph name="Egrave" xMin="165" yMin="-68" xMax="882" yMax="1820">
      <contour>
        <pt x="643" y="1404" on="1"/>
        <pt x="536" y="1428" on="0"/>
        <pt x="439" y="1484" on="1"/>
        <pt x="267" y="1582" on="0"/>
        <pt x="215" y="1646" on="1"/>
        <pt x="379" y="1820" on="1"/>
        <pt x="723" y="1527" on="1"/>
      </contour>
      <contour>
        <pt x="397" y="223" on="1"/>
        <pt x="882" y="150" on="1"/>
        <pt x="829" y="-68" on="1"/>
        <pt x="678" y="-48" on="1"/>
        <pt x="345" y="-2" on="0"/>
        <pt x="178" y="43" on="1"/>
        <pt x="165" y="1196" on="1"/>
        <pt x="518" y="1286" on="0"/>
        <pt x="837" y="1317" on="1"/>
        <pt x="872" y="1079" on="1"/>
        <pt x="393" y="1024" on="1"/>
        <pt x="403" y="725" on="1"/>
        <pt x="833" y="743" on="1"/>
        <pt x="817" y="508" on="1"/>
        <pt x="405" y="522" on="1"/>
      </contour>
    </TTGlyph>
    <TTGlyph name="Eth" xMin="70" yMin="-18" xMax="1051" yMax="1323">
      <contour>
        <pt x="431" y="209" on="1"/>
        <pt x="452" y="211" on="1"/>
        <pt x="485" y="216" on="0"/>
        <pt x="554" y="225" on="0"/>
        <pt x="591" y="232" on="1"/>
        <pt x="680" y="247" on="0"/>
        <pt x="732" y="264" on="1"/>
        <pt x="798" y="537" on="0"/>
        <pt x="798" y="836" on="1"/>
        <pt x="798" y="948" on="0"/>
        <pt x="787" y="1030" on="1"/>
        <pt x="515" y="1081" on="0"/>
        <pt x="97" y="1081" on="1"/>
        <pt x="70" y="1081" on="1"/>
        <pt x="115" y="1323" on="1"/>
        <pt x="136" y="1323" on="1"/>
        <pt x="516" y="1323" on="0"/>
        <pt x="798" y="1262" on="1"/>
        <pt x="851" y="1251" on="0"/>
        <pt x="904" y="1231" on="0"/>
        <pt x="956" y="1183" on="0"/>
        <pt x="980" y="1154" on="1"/>
        <pt x="1039" y="1083" on="0"/>
        <pt x="1043" y="1046" on="1"/>
        <pt x="1051" y="972" on="0"/>
        <pt x="1051" y="788" on="0"/>
        <pt x="1035" y="584" on="0"/>
        <pt x="1020" y="485" on="1"/>
        <pt x="986" y="270" on="0"/>
        <pt x="930" y="133" on="1"/>
        <pt x="918" y="102" on="0"/>
        <pt x="889" y="75" on="0"/>
        <pt x="801" y="46" on="0"/>
        <pt x="672" y="20" on="0"/>
        <pt x="593" y="11" on="1"/>
        <pt x="446" y="-6" on="0"/>
        <pt x="201" y="-18" on="1"/>
        <pt x="201" y="523" on="1"/>
        <pt x="137" y="527" on="0"/>
        <pt x="80" y="532" on="1"/>
        <pt x="98" y="700" on="1"/>
        <pt x="201" y="706" on="1"/>
        <pt x="201" y="940" on="1"/>
        <pt x="447" y="993" on="1"/>
        <pt x="451" y="778" on="1"/>
        <pt x="449" y="721" on="1"/>
        <pt x="651" y="733" on="1"/>
        <pt x="637" y="545" on="1"/>
        <pt x="535" y="534" on="0"/>
        <pt x="442" y="530" on="1"/>
      </contour>
    </TTGlyph>
    <TTGlyph name="Euro" xMin="66" yMin="-123" xMax="833" yMax="1058">
      <contour>
        <pt x="650" y="279" on="1"/>
        <pt x="527" y="279" on="0"/>
        <pt x="432" y="284" on="1"/>
        <pt x="437" y="194" on="0"/>
        <pt x="440" y="167" on="1"/>
        <pt x="833" y="92" on="1"/>
        <pt x="774" y="-123" on="1"/>
        <pt x="695" y="-110" on="0"/>
        <pt x="621" y="-95" on="1"/>
        <pt x="340" y="-36" on="0"/>
        <pt x="252" y="-4" on="0"/>
        <pt x="221" y="36" on="0"/>
        <pt x="215" y="74" on="1"/>
        <pt x="204" y="145" on="0"/>
        <pt x="199" y="301" on="1"/>
        <pt x="121" y="309" on="0"/>
        <pt x="66" y="321" on="1"/>
        <pt x="87" y="448" on="1"/>
        <pt x="134" y="442" on="0"/>
        <pt x="196" y="439" on="1"/>
        <pt x="196" y="487" on="1"/>
        <pt x="196" y="510" on="0"/>
        <pt x="197" y="533" on="1"/>
        <pt x="133" y="539" on="0"/>
        <pt x="85" y="549" on="1"/>
        <pt x="100" y="682" on="1"/>
        <pt x="146" y="678" on="0"/>
        <pt x="205" y="676" on="1"/>
        <pt x="222" y="865" on="0"/>
        <pt x="246" y="933" on="0"/>
        <pt x="255" y="944" on="1"/>
        <pt x="271" y="964" on="0"/>
        <pt x="344" y="985" on="0"/>
        <pt x="467" y="1009" on="0"/>
        <pt x="536" y="1020" on="1"/>
        <pt x="784" y="1058" on="1"/>
        <pt x="819" y="833" on="1"/>
        <pt x="800" y="831" on="0"/>
        <pt x="770" y="828" on="1"/>
        <pt x="632" y="812" on="1"/>
        <pt x="594" y="807" on="0"/>
        <pt x="560" y="802" on="1"/>
        <pt x="498" y="792" on="1"/>
        <pt x="470" y="788" on="0"/>
        <pt x="455" y="784" on="1"/>
        <pt x="448" y="758" on="0"/>
        <pt x="441" y="674" on="1"/>
        <pt x="534" y="676" on="1"/>
        <pt x="686" y="679" on="0"/>
        <pt x="736" y="682" on="1"/>
        <pt x="720" y="528" on="1"/>
        <pt x="610" y="522" on="0"/>
        <pt x="479" y="522" on="1"/>
        <pt x="432" y="522" on="1"/>
        <pt x="430" y="498" on="0"/>
        <pt x="430" y="478" on="1"/>
        <pt x="430" y="432" on="1"/>
        <pt x="473" y="431" on="0"/>
        <pt x="514" y="431" on="1"/>
        <pt x="596" y="431" on="0"/>
        <pt x="718" y="431" on="0"/>
        <pt x="741" y="432" on="1"/>
        <pt x="721" y="280" on="1"/>
      </contour>
    </TTGlyph>
    <TTGlyph name="F" xMin="149" yMin="-18" xMax="825" yMax="1313">
      <contour>
        <pt x="149" y="1196" on="1"/>
        <pt x="457" y="1273" on="0"/>
        <pt x="784" y="1313" on="1"/>
        <pt x="825" y="1075" on="1"/>
        <pt x="393" y="1028" on="1"/>
        <pt x="405" y="709" on="1"/>
        <pt x="772" y="725" on="1"/>
        <pt x="762" y="487" on="1"/>
        <pt x="409" y="498" on="1"/>
        <pt x="393" y="0" on="1"/>
        <pt x="178" y="-18" on="1"/>
      </contour>
    </TTGlyph>
    <TTGlyph name="G" xMin="137" yMin="-17" xMax="975" yMax="1333">
      <contour>
        <pt x="598" y="727" on="1"/>
        <pt x="803" y="714" on="0"/>
        <pt x="975" y="672" on="1"/>
        <pt x="897" y="-6" on="1"/>
        <pt x="822" y="-17" on="0"/>
        <pt x="673" y="-17" on="0"/>
        <pt x="513" y="2" on="0"/>
        <pt x="444" y="16" on="1"/>
        <pt x="304" y="44" on="0"/>
        <pt x="225" y="88" on="0"/>
        <pt x="194" y="123" on="0"/>
        <pt x="178" y="198" on="0"/>
        <pt x="160" y="303" on="0"/>
        <pt x="153" y="365" on="1"/>
        <pt x="137" y="507" on="0"/>
        <pt x="137" y="682" on="0"/>
        <pt x="139" y="777" on="0"/>
        <pt x="142" y="823" on="1"/>
        <pt x="152" y="1008" on="0"/>
        <pt x="180" y="1094" on="0"/>
        <pt x="204" y="1141" on="0"/>
        <pt x="226" y="1154" on="1"/>
        <pt x="311" y="1203" on="0"/>
        <pt x="538" y="1259" on="1"/>
        <pt x="643" y="1284" on="1"/>
        <pt x="780" y="1316" on="0"/>
        <pt x="893" y="1333" on="1"/>
        <pt x="946" y="1092" on="1"/>
        <pt x="917" y="1086" on="0"/>
        <pt x="872" y="1078" on="1"/>
        <pt x="667" y="1044" on="1"/>
        <pt x="471" y="1012" on="0"/>
        <pt x="420" y="995" on="1"/>
        <pt x="391" y="881" on="0"/>
        <pt x="391" y="665" on="1"/>
        <pt x="391" y="380" on="0"/>
        <pt x="426" y="244" on="1"/>
        <pt x="544" y="201" on="0"/>
        <pt x="669" y="201" on="1"/>
        <pt x="688" y="201" on="1"/>
        <pt x="697" y="201" on="0"/>
        <pt x="704" y="203" on="1"/>
        <pt x="733" y="504" on="1"/>
        <pt x="573" y="512" on="1"/>
      </contour>
    </TTGlyph>
    <TTGlyph name="H" xMin="166" yMin="-18" xMax="1073" yMax="1300">
      <contour>
        <pt x="166" y="1268" on="1"/>
        <pt x="409" y="1300" on="1"/>
        <pt x="430" y="680" on="1"/>
        <pt x="817" y="694" on="1"/>
        <pt x="827" y="1264" on="1"/>
        <pt x="1071" y="1298" on="1"/>
        <pt x="1073" y="750" on="1"/>
        <pt x="1030" y="0" on="1"/>
        <pt x="813" y="-18" on="1"/>
        <pt x="811" y="473" on="1"/>
        <pt x="694" y="467" on="1"/>
        <pt x="428" y="469" on="1"/>
        <pt x="411" y="0" on="1"/>
        <pt x="192" y="-18" on="1"/>
      </contour>
    </TTGlyph>
    <TTGlyph name="I" xMin="67" yMin="-25" xMax="696" yMax="1298">
      <contour>
        <pt x="696" y="1096" on="1"/>
        <pt x="524" y="1077" on="1"/>
        <pt x="526" y="653" on="1"/>
        <pt x="497" y="189" on="1"/>
        <pt x="680" y="182" on="1"/>
        <pt x="663" y="-25" on="1"/>
        <pt x="308" y="-20" on="0"/>
        <pt x="92" y="18" on="1"/>
        <pt x="112" y="205" on="1"/>
        <pt x="285" y="198" on="1"/>
        <pt x="270" y="1061" on="1"/>
        <pt x="178" y="1057" on="0"/>
        <pt x="86" y="1051" on="1"/>
        <pt x="67" y="1243" on="1"/>
        <pt x="236" y="1270" on="0"/>
        <pt x="415" y="1281" on="1"/>
        <pt x="669" y="1298" on="1"/>
      </contour>
    </TTGlyph>
    <TTGlyph name="IJ" xMin="86" yMin="-98" xMax="1321" yMax="1315">
      <contour>
        <pt x="1321" y="1100" on="1"/>
        <pt x="1317" y="453" on="1"/>
        <pt x="1317" y="262" on="1"/>
        <pt x="1317" y="215" on="0"/>
        <pt x="1282" y="163" on="0"/>
        <pt x="1266" y="147" on="1"/>
        <pt x="1233" y="113" on="1"/>
        <pt x="1164" y="44" on="0"/>
        <pt x="1000" y="-53" on="1"/>
        <pt x="956" y="-79" on="0"/>
        <pt x="917" y="-98" on="1"/>
        <pt x="786" y="94" on="1"/>
        <pt x="944" y="192" on="1"/>
        <pt x="1050" y="260" on="0"/>
        <pt x="1089" y="299" on="1"/>
        <pt x="1065" y="711" on="1"/>
        <pt x="1065" y="1063" on="1"/>
        <pt x="821" y="1090" on="1"/>
        <pt x="858" y="1315" on="1"/>
        <pt x="919" y="1307" on="0"/>
        <pt x="1041" y="1291" on="0"/>
        <pt x="1100" y="1282" on="1"/>
        <pt x="1238" y="1259" on="0"/>
        <pt x="1315" y="1235" on="1"/>
        <pt x="1321" y="1195" on="0"/>
      </contour>
      <contour>
        <pt x="513" y="169" on="1"/>
        <pt x="586" y="162" on="0"/>
        <pt x="692" y="156" on="1"/>
        <pt x="661" y="-61" on="1"/>
        <pt x="421" y="-49" on="0"/>
        <pt x="205" y="-2" on="1"/>
        <pt x="137" y="12" on="0"/>
        <pt x="86" y="29" on="1"/>
        <pt x="119" y="221" on="1"/>
        <pt x="192" y="206" on="0"/>
        <pt x="302" y="191" on="1"/>
        <pt x="281" y="1063" on="1"/>
        <pt x="98" y="1073" on="1"/>
        <pt x="90" y="1260" on="1"/>
        <pt x="474" y="1271" on="0"/>
        <pt x="696" y="1298" on="1"/>
        <pt x="704" y="1102" on="1"/>
        <pt x="541" y="1073" on="1"/>
        <pt x="543" y="653" on="1"/>
      </contour>
    </TTGlyph>
    <TTGlyph name="Iacute" xMin="67" yMin="-25" xMax="718" yMax="1820">
      <contour>
        <pt x="216" y="1519" on="1"/>
        <pt x="569" y="1820" on="1"/>
        <pt x="718" y="1634" on="1"/>
        <pt x="665" y="1569" on="0"/>
        <pt x="570" y="1515" on="1"/>
        <pt x="403" y="1420" on="0"/>
        <pt x="296" y="1396" on="1"/>
      </contour>
      <contour>
        <pt x="696" y="1096" on="1"/>
        <pt x="524" y="1077" on="1"/>
        <pt x="526" y="653" on="1"/>
        <pt x="497" y="189" on="1"/>
        <pt x="680" y="182" on="1"/>
        <pt x="663" y="-25" on="1"/>
        <pt x="308" y="-20" on="0"/>
        <pt x="92" y="18" on="1"/>
        <pt x="112" y="205" on="1"/>
        <pt x="285" y="198" on="1"/>
        <pt x="270" y="1061" on="1"/>
        <pt x="178" y="1057" on="0"/>
        <pt x="86" y="1051" on="1"/>
        <pt x="67" y="1243" on="1"/>
        <pt x="236" y="1270" on="0"/>
        <pt x="415" y="1281" on="1"/>
        <pt x="669" y="1298" on="1"/>
      </contour>
    </TTGlyph>
    <TTGlyph name="Icircumflex" xMin="67" yMin="-25" xMax="718" yMax="1799">
      <contour>
        <pt x="385" y="1580" on="1"/>
        <pt x="285" y="1472" on="0"/>
        <pt x="182" y="1398" on="1"/>
        <pt x="73" y="1496" on="1"/>
        <pt x="297" y="1793" on="1"/>
        <pt x="487" y="1799" on="1"/>
        <pt x="718" y="1494" on="1"/>
        <pt x="594" y="1398" on="1"/>
        <pt x="476" y="1496" on="0"/>
        <pt x="446" y="1523" on="1"/>
      </contour>
      <contour>
        <pt x="696" y="1096" on="1"/>
        <pt x="524" y="1077" on="1"/>
        <pt x="526" y="653" on="1"/>
        <pt x="497" y="189" on="1"/>
        <pt x="680" y="182" on="1"/>
        <pt x="663" y="-25" on="1"/>
        <pt x="308" y="-20" on="0"/>
        <pt x="92" y="18" on="1"/>
        <pt x="112" y="205" on="1"/>
        <pt x="285" y="198" on="1"/>
        <pt x="270" y="1061" on="1"/>
        <pt x="178" y="1057" on="0"/>
        <pt x="86" y="1051" on="1"/>
        <pt x="67" y="1243" on="1"/>
        <pt x="236" y="1270" on="0"/>
        <pt x="415" y="1281" on="1"/>
        <pt x="669" y="1298" on="1"/>
      </contour>
    </TTGlyph>
    <TTGlyph name="Idieresis" xMin="67" yMin="-25" xMax="717" yMax="1774">
      <contour>
        <pt x="292" y="1774" on="1"/>
        <pt x="327" y="1716" on="0"/>
        <pt x="327" y="1581" on="1"/>
        <pt x="327" y="1510" on="0"/>
        <pt x="315" y="1488" on="1"/>
        <pt x="116" y="1477" on="1"/>
        <pt x="99" y="1623" on="0"/>
        <pt x="75" y="1719" on="1"/>
      </contour>
      <contour>
        <pt x="702" y="1764" on="1"/>
        <pt x="717" y="1732" on="0"/>
        <pt x="717" y="1645" on="0"/>
        <pt x="708" y="1580" on="0"/>
        <pt x="702" y="1551" on="1"/>
        <pt x="688" y="1490" on="0"/>
        <pt x="669" y="1463" on="1"/>
        <pt x="467" y="1498" on="1"/>
        <pt x="484" y="1572" on="0"/>
        <pt x="484" y="1706" on="0"/>
        <pt x="479" y="1748" on="1"/>
      </contour>
      <contour>
        <pt x="696" y="1096" on="1"/>
        <pt x="524" y="1077" on="1"/>
        <pt x="526" y="653" on="1"/>
        <pt x="497" y="189" on="1"/>
        <pt x="680" y="182" on="1"/>
        <pt x="663" y="-25" on="1"/>
        <pt x="308" y="-20" on="0"/>
        <pt x="92" y="18" on="1"/>
        <pt x="112" y="205" on="1"/>
        <pt x="285" y="198" on="1"/>
        <pt x="270" y="1061" on="1"/>
        <pt x="178" y="1057" on="0"/>
        <pt x="86" y="1051" on="1"/>
        <pt x="67" y="1243" on="1"/>
        <pt x="236" y="1270" on="0"/>
        <pt x="415" y="1281" on="1"/>
        <pt x="669" y="1298" on="1"/>
      </contour>
    </TTGlyph>
    <TTGlyph name="Igrave" xMin="67" yMin="-25" xMax="696" yMax="1820">
      <contour>
        <pt x="514" y="1404" on="1"/>
        <pt x="407" y="1428" on="0"/>
        <pt x="310" y="1484" on="1"/>
        <pt x="138" y="1582" on="0"/>
        <pt x="86" y="1646" on="1"/>
        <pt x="250" y="1820" on="1"/>
        <pt x="594" y="1527" on="1"/>
      </contour>
      <contour>
        <pt x="696" y="1096" on="1"/>
        <pt x="524" y="1077" on="1"/>
        <pt x="526" y="653" on="1"/>
        <pt x="497" y="189" on="1"/>
        <pt x="680" y="182" on="1"/>
        <pt x="663" y="-25" on="1"/>
        <pt x="308" y="-20" on="0"/>
        <pt x="92" y="18" on="1"/>
        <pt x="112" y="205" on="1"/>
        <pt x="285" y="198" on="1"/>
        <pt x="270" y="1061" on="1"/>
        <pt x="178" y="1057" on="0"/>
        <pt x="86" y="1051" on="1"/>
        <pt x="67" y="1243" on="1"/>
        <pt x="236" y="1270" on="0"/>
        <pt x="415" y="1281" on="1"/>
        <pt x="669" y="1298" on="1"/>
      </contour>
    </TTGlyph>
    <TTGlyph name="Itilde" xMin="47" yMin="-25" xMax="731" yMax="1744">
      <contour>
        <pt x="47" y="1535" on="1"/>
        <pt x="87" y="1595" on="0"/>
        <pt x="139" y="1643" on="1"/>
        <pt x="235" y="1732" on="0"/>
        <pt x="302" y="1732" on="0"/>
        <pt x="371" y="1704" on="0"/>
        <pt x="404" y="1687" on="1"/>
        <pt x="463" y="1656" on="1"/>
        <pt x="490" y="1642" on="0"/>
        <pt x="504" y="1642" on="0"/>
        <pt x="513" y="1646" on="0"/>
        <pt x="543" y="1665" on="0"/>
        <pt x="572" y="1686" on="1"/>
        <pt x="655" y="1744" on="1"/>
        <pt x="731" y="1650" on="1"/>
        <pt x="687" y="1586" on="1"/>
        <pt x="573" y="1423" on="0"/>
        <pt x="488" y="1423" on="1"/>
        <pt x="446" y="1423" on="0"/>
        <pt x="333" y="1486" on="0"/>
        <pt x="285" y="1515" on="0"/>
        <pt x="275" y="1515" on="0"/>
        <pt x="266" y="1512" on="0"/>
        <pt x="250" y="1505" on="1"/>
        <pt x="111" y="1443" on="1"/>
      </contour>
      <contour>
        <pt x="696" y="1096" on="1"/>
        <pt x="524" y="1077" on="1"/>
        <pt x="526" y="653" on="1"/>
        <pt x="497" y="189" on="1"/>
        <pt x="680" y="182" on="1"/>
        <pt x="663" y="-25" on="1"/>
        <pt x="308" y="-20" on="0"/>
        <pt x="92" y="18" on="1"/>
        <pt x="112" y="205" on="1"/>
        <pt x="285" y="198" on="1"/>
        <pt x="270" y="1061" on="1"/>
        <pt x="178" y="1057" on="0"/>
        <pt x="86" y="1051" on="1"/>
        <pt x="67" y="1243" on="1"/>
        <pt x="236" y="1270" on="0"/>
        <pt x="415" y="1281" on="1"/>
        <pt x="669" y="1298" on="1"/>
      </contour>
    </TTGlyph>
    <TTGlyph name="J" xMin="32" yMin="-248" xMax="575" yMax="1315">
      <contour>
        <pt x="32" y="-55" on="1"/>
        <pt x="144" y="3" on="0"/>
        <pt x="303" y="121" on="0"/>
        <pt x="325" y="143" on="1"/>
        <pt x="311" y="711" on="1"/>
        <pt x="311" y="1063" on="1"/>
        <pt x="67" y="1090" on="1"/>
        <pt x="104" y="1315" on="1"/>
        <pt x="228" y="1299" on="1"/>
        <pt x="468" y="1269" on="0"/>
        <pt x="575" y="1235" on="1"/>
        <pt x="551" y="113" on="1"/>
        <pt x="551" y="67" on="0"/>
        <pt x="534" y="42" on="1"/>
        <pt x="496" y="-16" on="0"/>
        <pt x="378" y="-110" on="0"/>
        <pt x="336" y="-140" on="1"/>
        <pt x="236" y="-212" on="0"/>
        <pt x="164" y="-248" on="1"/>
      </contour>
    </TTGlyph>
    <TTGlyph name="Jcircumflex" xMin="16" yMin="-248" xMax="661" yMax="1799">
      <contour>
        <pt x="328" y="1580" on="1"/>
        <pt x="228" y="1472" on="0"/>
        <pt x="125" y="1398" on="1"/>
        <pt x="16" y="1496" on="1"/>
        <pt x="240" y="1793" on="1"/>
        <pt x="430" y="1799" on="1"/>
        <pt x="661" y="1494" on="1"/>
        <pt x="537" y="1398" on="1"/>
        <pt x="419" y="1496" on="0"/>
        <pt x="389" y="1523" on="1"/>
      </contour>
      <contour>
        <pt x="26" y="-55" on="1"/>
        <pt x="138" y="3" on="0"/>
        <pt x="297" y="121" on="0"/>
        <pt x="319" y="143" on="1"/>
        <pt x="305" y="711" on="1"/>
        <pt x="305" y="1063" on="1"/>
        <pt x="61" y="1090" on="1"/>
        <pt x="98" y="1315" on="1"/>
        <pt x="222" y="1299" on="1"/>
        <pt x="462" y="1269" on="0"/>
        <pt x="569" y="1235" on="1"/>
        <pt x="545" y="113" on="1"/>
        <pt x="545" y="67" on="0"/>
        <pt x="528" y="42" on="1"/>
        <pt x="490" y="-16" on="0"/>
        <pt x="372" y="-110" on="0"/>
        <pt x="330" y="-140" on="1"/>
        <pt x="230" y="-212" on="0"/>
        <pt x="158" y="-248" on="1"/>
      </contour>
    </TTGlyph>
    <TTGlyph name="K" xMin="162" yMin="-57" xMax="1059" yMax="1311">
      <contour>
        <pt x="162" y="1266" on="1"/>
        <pt x="411" y="1300" on="1"/>
        <pt x="418" y="653" on="1"/>
        <pt x="465" y="645" on="1"/>
        <pt x="841" y="1311" on="1"/>
        <pt x="1059" y="1182" on="1"/>
        <pt x="1002" y="1059" on="0"/>
        <pt x="916" y="936" on="1"/>
        <pt x="790" y="760" on="1"/>
        <pt x="714" y="663" on="1"/>
        <pt x="678" y="618" on="0"/>
        <pt x="647" y="586" on="1"/>
        <pt x="726" y="505" on="0"/>
        <pt x="765" y="461" on="1"/>
        <pt x="962" y="231" on="0"/>
        <pt x="1046" y="92" on="1"/>
        <pt x="841" y="-57" on="1"/>
        <pt x="495" y="475" on="1"/>
        <pt x="410" y="436" on="1"/>
        <pt x="393" y="0" on="1"/>
        <pt x="170" y="-20" on="1"/>
      </contour>
      <contour>
        <pt x="305" y="389" on="1"/>
        <pt x="305" y="388" on="0"/>
        <pt x="306" y="388" on="0"/>
        <pt x="306" y="389" on="1"/>
      </contour>
    </TTGlyph>
    <TTGlyph name="L" xMin="166" yMin="-27" xMax="753" yMax="1300">
      <contour>
        <pt x="166" y="1260" on="1"/>
        <pt x="418" y="1300" on="1"/>
        <pt x="418" y="752" on="1"/>
        <pt x="387" y="264" on="1"/>
        <pt x="464" y="234" on="0"/>
        <pt x="726" y="199" on="0"/>
        <pt x="753" y="195" on="1"/>
        <pt x="696" y="-27" on="1"/>
        <pt x="589" y="-13" on="0"/>
        <pt x="523" y="-1" on="1"/>
        <pt x="406" y="21" on="1"/>
        <pt x="225" y="56" on="0"/>
        <pt x="166" y="84" on="1"/>
      </contour>
    </TTGlyph>
    <TTGlyph name="Lslash" xMin="35" yMin="-27" xMax="753" yMax="1300">
      <contour>
        <pt x="166" y="513" on="1"/>
        <pt x="140" y="502" on="0"/>
        <pt x="112" y="492" on="1"/>
        <pt x="61" y="473" on="1"/>
        <pt x="35" y="632" on="1"/>
        <pt x="166" y="692" on="1"/>
        <pt x="166" y="1260" on="1"/>
        <pt x="418" y="1300" on="1"/>
        <pt x="418" y="821" on="1"/>
        <pt x="418" y="821" on="0"/>
        <pt x="619" y="936" on="1"/>
        <pt x="689" y="750" on="1"/>
        <pt x="654" y="724" on="0"/>
        <pt x="593" y="695" on="1"/>
        <pt x="461" y="634" on="0"/>
        <pt x="409" y="613" on="1"/>
        <pt x="387" y="264" on="1"/>
        <pt x="464" y="234" on="0"/>
        <pt x="726" y="199" on="0"/>
        <pt x="753" y="195" on="1"/>
        <pt x="696" y="-27" on="1"/>
        <pt x="589" y="-13" on="0"/>
        <pt x="523" y="-1" on="1"/>
        <pt x="406" y="21" on="1"/>
        <pt x="225" y="56" on="0"/>
        <pt x="166" y="84" on="1"/>
      </contour>
    </TTGlyph>
    <TTGlyph name="M" xMin="86" yMin="-25" xMax="1662" yMax="1300">
      <contour>
        <pt x="164" y="705" on="1"/>
        <pt x="170" y="831" on="0"/>
        <pt x="183" y="944" on="1"/>
        <pt x="183" y="944" on="0"/>
        <pt x="202" y="1111" on="1"/>
        <pt x="209" y="1165" on="0"/>
        <pt x="214" y="1221" on="1"/>
        <pt x="429" y="1281" on="0"/>
        <pt x="658" y="1296" on="1"/>
        <pt x="803" y="696" on="1"/>
        <pt x="850" y="225" on="1"/>
        <pt x="893" y="229" on="1"/>
        <pt x="986" y="1223" on="1"/>
        <pt x="1128" y="1273" on="0"/>
        <pt x="1330" y="1294" on="1"/>
        <pt x="1392" y="1300" on="0"/>
        <pt x="1446" y="1300" on="1"/>
        <pt x="1572" y="676" on="1"/>
        <pt x="1662" y="2" on="1"/>
        <pt x="1403" y="-25" on="1"/>
        <pt x="1324" y="653" on="1"/>
        <pt x="1258" y="1086" on="1"/>
        <pt x="1197" y="1078" on="1"/>
        <pt x="1156" y="643" on="1"/>
        <pt x="1059" y="29" on="1"/>
        <pt x="887" y="-3" on="0"/>
        <pt x="679" y="-8" on="1"/>
        <pt x="470" y="1073" on="1"/>
        <pt x="404" y="1063" on="1"/>
        <pt x="396" y="662" on="1"/>
        <pt x="336" y="-19" on="1"/>
        <pt x="86" y="12" on="1"/>
      </contour>
    </TTGlyph>
    <TTGlyph name="N" xMin="156" yMin="-18" xMax="1225" yMax="1300">
      <contour>
        <pt x="166" y="110" on="1"/>
        <pt x="166" y="416" on="0"/>
        <pt x="175" y="780" on="1"/>
        <pt x="156" y="1227" on="1"/>
        <pt x="175" y="1231" on="0"/>
        <pt x="206" y="1237" on="1"/>
        <pt x="206" y="1237" on="0"/>
        <pt x="276" y="1250" on="1"/>
        <pt x="314" y="1257" on="0"/>
        <pt x="356" y="1264" on="1"/>
        <pt x="440" y="1278" on="1"/>
        <pt x="513" y="1289" on="0"/>
        <pt x="590" y="1294" on="1"/>
        <pt x="854" y="459" on="1"/>
        <pt x="915" y="172" on="1"/>
        <pt x="973" y="178" on="1"/>
        <pt x="960" y="500" on="1"/>
        <pt x="969" y="1278" on="1"/>
        <pt x="1225" y="1300" on="1"/>
        <pt x="1217" y="999" on="0"/>
        <pt x="1175" y="518" on="1"/>
        <pt x="1160" y="27" on="1"/>
        <pt x="981" y="-6" on="0"/>
        <pt x="751" y="-18" on="1"/>
        <pt x="487" y="827" on="1"/>
        <pt x="428" y="1091" on="1"/>
        <pt x="375" y="1083" on="1"/>
        <pt x="385" y="782" on="1"/>
        <pt x="395" y="2" on="1"/>
        <pt x="166" y="-18" on="1"/>
      </contour>
    </TTGlyph>
    <TTGlyph name="Nacute" xMin="158" yMin="-18" xMax="1227" yMax="1820">
      <contour>
        <pt x="168" y="110" on="1"/>
        <pt x="168" y="416" on="0"/>
        <pt x="177" y="780" on="1"/>
        <pt x="158" y="1227" on="1"/>
        <pt x="177" y="1231" on="0"/>
        <pt x="208" y="1237" on="1"/>
        <pt x="208" y="1237" on="0"/>
        <pt x="278" y="1250" on="1"/>
        <pt x="316" y="1257" on="0"/>
        <pt x="358" y="1264" on="1"/>
        <pt x="442" y="1278" on="1"/>
        <pt x="515" y="1289" on="0"/>
        <pt x="592" y="1294" on="1"/>
        <pt x="856" y="459" on="1"/>
        <pt x="917" y="172" on="1"/>
        <pt x="975" y="178" on="1"/>
        <pt x="962" y="500" on="1"/>
        <pt x="971" y="1278" on="1"/>
        <pt x="1227" y="1300" on="1"/>
        <pt x="1219" y="999" on="0"/>
        <pt x="1177" y="518" on="1"/>
        <pt x="1162" y="27" on="1"/>
        <pt x="983" y="-6" on="0"/>
        <pt x="753" y="-18" on="1"/>
        <pt x="489" y="827" on="1"/>
        <pt x="430" y="1091" on="1"/>
        <pt x="377" y="1083" on="1"/>
        <pt x="387" y="782" on="1"/>
        <pt x="397" y="2" on="1"/>
        <pt x="168" y="-18" on="1"/>
      </contour>
      <contour>
        <pt x="550" y="1519" on="1"/>
        <pt x="903" y="1820" on="1"/>
        <pt x="1052" y="1634" on="1"/>
        <pt x="999" y="1569" on="0"/>
        <pt x="904" y="1515" on="1"/>
        <pt x="737" y="1420" on="0"/>
        <pt x="630" y="1396" on="1"/>
      </contour>
    </TTGlyph>
    <TTGlyph name="Ntilde" xMin="158" yMin="-18" xMax="1227" yMax="1721">
      <contour>
        <pt x="168" y="110" on="1"/>
        <pt x="168" y="416" on="0"/>
        <pt x="177" y="780" on="1"/>
        <pt x="158" y="1227" on="1"/>
        <pt x="177" y="1231" on="0"/>
        <pt x="208" y="1237" on="1"/>
        <pt x="208" y="1237" on="0"/>
        <pt x="278" y="1250" on="1"/>
        <pt x="316" y="1257" on="0"/>
        <pt x="358" y="1264" on="1"/>
        <pt x="442" y="1278" on="1"/>
        <pt x="515" y="1289" on="0"/>
        <pt x="592" y="1294" on="1"/>
        <pt x="856" y="459" on="1"/>
        <pt x="917" y="172" on="1"/>
        <pt x="975" y="178" on="1"/>
        <pt x="962" y="500" on="1"/>
        <pt x="971" y="1278" on="1"/>
        <pt x="1227" y="1300" on="1"/>
        <pt x="1219" y="999" on="0"/>
        <pt x="1177" y="518" on="1"/>
        <pt x="1162" y="27" on="1"/>
        <pt x="983" y="-6" on="0"/>
        <pt x="753" y="-18" on="1"/>
        <pt x="489" y="827" on="1"/>
        <pt x="430" y="1091" on="1"/>
        <pt x="377" y="1083" on="1"/>
        <pt x="387" y="782" on="1"/>
        <pt x="397" y="2" on="1"/>
        <pt x="168" y="-18" on="1"/>
      </contour>
      <contour>
        <pt x="380" y="1512" on="1"/>
        <pt x="420" y="1572" on="0"/>
        <pt x="472" y="1620" on="1"/>
        <pt x="568" y="1709" on="0"/>
        <pt x="635" y="1709" on="0"/>
        <pt x="704" y="1681" on="0"/>
        <pt x="736" y="1664" on="1"/>
        <pt x="796" y="1633" on="1"/>
        <pt x="823" y="1619" on="0"/>
        <pt x="837" y="1619" on="0"/>
        <pt x="846" y="1623" on="0"/>
        <pt x="876" y="1642" on="0"/>
        <pt x="906" y="1662" on="1"/>
        <pt x="988" y="1721" on="1"/>
        <pt x="1064" y="1627" on="1"/>
        <pt x="1020" y="1562" on="1"/>
        <pt x="906" y="1400" on="0"/>
        <pt x="821" y="1400" on="1"/>
        <pt x="779" y="1400" on="0"/>
        <pt x="666" y="1463" on="0"/>
        <pt x="618" y="1492" on="0"/>
        <pt x="608" y="1492" on="0"/>
        <pt x="599" y="1489" on="0"/>
        <pt x="583" y="1482" on="1"/>
        <pt x="444" y="1420" on="1"/>
      </contour>
    </TTGlyph>
    <TTGlyph name="O" xMin="129" yMin="-16" xMax="1042" yMax="1323">
      <contour>
        <pt x="287" y="4" on="0"/>
        <pt x="238" y="38" on="0"/>
        <pt x="199" y="141" on="0"/>
        <pt x="164" y="312" on="0"/>
        <pt x="152" y="407" on="1"/>
        <pt x="129" y="589" on="0"/>
        <pt x="129" y="720" on="1"/>
        <pt x="129" y="947" on="0"/>
        <pt x="153" y="1066" on="0"/>
        <pt x="179" y="1130" on="0"/>
        <pt x="200" y="1155" on="1"/>
        <pt x="239" y="1203" on="0"/>
        <pt x="377" y="1253" on="0"/>
        <pt x="535" y="1286" on="0"/>
        <pt x="624" y="1297" on="1"/>
        <pt x="801" y="1319" on="0"/>
        <pt x="1005" y="1323" on="1"/>
        <pt x="1042" y="1081" on="1"/>
        <pt x="685" y="1067" on="0"/>
        <pt x="470" y="1022" on="1"/>
        <pt x="426" y="1012" on="0"/>
        <pt x="397" y="1001" on="1"/>
        <pt x="385" y="933" on="0"/>
        <pt x="385" y="683" on="0"/>
        <pt x="391" y="545" on="0"/>
        <pt x="397" y="476" on="1"/>
        <pt x="410" y="320" on="0"/>
        <pt x="438" y="210" on="1"/>
        <pt x="452" y="208" on="0"/>
        <pt x="482" y="208" on="0"/>
        <pt x="522" y="208" on="1"/>
        <pt x="616" y="208" on="0"/>
        <pt x="714" y="231" on="1"/>
        <pt x="764" y="556" on="0"/>
        <pt x="764" y="950" on="1"/>
        <pt x="1013" y="934" on="1"/>
        <pt x="1018" y="864" on="0"/>
        <pt x="1018" y="759" on="0"/>
        <pt x="1011" y="640" on="0"/>
        <pt x="999" y="517" on="0"/>
        <pt x="983" y="394" on="0"/>
        <pt x="967" y="283" on="0"/>
        <pt x="959" y="236" on="1"/>
        <pt x="945" y="158" on="1"/>
        <pt x="928" y="76" on="0"/>
        <pt x="885" y="32" on="0"/>
        <pt x="846" y="15" on="0"/>
        <pt x="786" y="3" on="0"/>
        <pt x="715" y="-6" on="0"/>
        <pt x="637" y="-12" on="0"/>
        <pt x="601" y="-14" on="1"/>
        <pt x="541" y="-16" on="0"/>
        <pt x="490" y="-16" on="1"/>
        <pt x="371" y="-16" on="0"/>
      </contour>
    </TTGlyph>
    <TTGlyph name="OE" xMin="129" yMin="-68" xMax="1479" yMax="1317">
      <contour>
        <pt x="993" y="225" on="1"/>
        <pt x="1479" y="152" on="1"/>
        <pt x="1425" y="-68" on="1"/>
        <pt x="1295" y="-50" on="1"/>
        <pt x="1004" y="-8" on="0"/>
        <pt x="848" y="38" on="1"/>
        <pt x="745" y="6" on="0"/>
        <pt x="517" y="-16" on="0"/>
        <pt x="478" y="-16" on="1"/>
        <pt x="371" y="-16" on="0"/>
        <pt x="287" y="4" on="0"/>
        <pt x="239" y="38" on="0"/>
        <pt x="200" y="141" on="0"/>
        <pt x="164" y="316" on="0"/>
        <pt x="152" y="414" on="1"/>
        <pt x="129" y="614" on="0"/>
        <pt x="129" y="875" on="0"/>
        <pt x="135" y="1013" on="0"/>
        <pt x="153" y="1072" on="1"/>
        <pt x="193" y="1203" on="0"/>
        <pt x="315" y="1245" on="1"/>
        <pt x="417" y="1282" on="0"/>
        <pt x="849" y="1282" on="0"/>
        <pt x="907" y="1207" on="1"/>
        <pt x="1195" y="1296" on="0"/>
        <pt x="1434" y="1317" on="1"/>
        <pt x="1468" y="1079" on="1"/>
        <pt x="989" y="1016" on="1"/>
        <pt x="999" y="725" on="1"/>
        <pt x="1446" y="743" on="1"/>
        <pt x="1436" y="500" on="1"/>
        <pt x="1001" y="522" on="1"/>
      </contour>
      <contour>
        <pt x="442" y="213" on="1"/>
        <pt x="456" y="211" on="0"/>
        <pt x="470" y="211" on="1"/>
        <pt x="500" y="211" on="1"/>
        <pt x="616" y="211" on="0"/>
        <pt x="766" y="242" on="1"/>
        <pt x="773" y="417" on="0"/>
        <pt x="773" y="542" on="1"/>
        <pt x="773" y="804" on="0"/>
        <pt x="750" y="1038" on="1"/>
        <pt x="628" y="1048" on="0"/>
        <pt x="571" y="1048" on="1"/>
        <pt x="456" y="1048" on="0"/>
        <pt x="401" y="1028" on="1"/>
        <pt x="389" y="960" on="0"/>
        <pt x="389" y="425" on="0"/>
      </contour>
    </TTGlyph>
    <TTGlyph name="Oacute" xMin="137" yMin="-16" xMax="1050" yMax="1820">
      <contour>
        <pt x="415" y="1519" on="1"/>
        <pt x="768" y="1820" on="1"/>
        <pt x="917" y="1634" on="1"/>
        <pt x="864" y="1569" on="0"/>
        <pt x="769" y="1515" on="1"/>
        <pt x="602" y="1420" on="0"/>
        <pt x="495" y="1396" on="1"/>
      </contour>
      <contour>
        <pt x="295" y="4" on="0"/>
        <pt x="246" y="38" on="0"/>
        <pt x="207" y="141" on="0"/>
        <pt x="172" y="312" on="0"/>
        <pt x="160" y="407" on="1"/>
        <pt x="137" y="589" on="0"/>
        <pt x="137" y="720" on="1"/>
        <pt x="137" y="947" on="0"/>
        <pt x="161" y="1066" on="0"/>
        <pt x="187" y="1130" on="0"/>
        <pt x="208" y="1155" on="1"/>
        <pt x="247" y="1203" on="0"/>
        <pt x="385" y="1253" on="0"/>
        <pt x="543" y="1286" on="0"/>
        <pt x="632" y="1297" on="1"/>
        <pt x="809" y="1319" on="0"/>
        <pt x="1013" y="1323" on="1"/>
        <pt x="1050" y="1081" on="1"/>
        <pt x="693" y="1067" on="0"/>
        <pt x="478" y="1022" on="1"/>
        <pt x="434" y="1012" on="0"/>
        <pt x="405" y="1001" on="1"/>
        <pt x="393" y="933" on="0"/>
        <pt x="393" y="683" on="0"/>
        <pt x="399" y="545" on="0"/>
        <pt x="405" y="476" on="1"/>
        <pt x="418" y="320" on="0"/>
        <pt x="446" y="210" on="1"/>
        <pt x="460" y="208" on="0"/>
        <pt x="490" y="208" on="0"/>
        <pt x="530" y="208" on="1"/>
        <pt x="624" y="208" on="0"/>
        <pt x="722" y="231" on="1"/>
        <pt x="772" y="556" on="0"/>
        <pt x="772" y="950" on="1"/>
        <pt x="1021" y="934" on="1"/>
        <pt x="1026" y="864" on="0"/>
        <pt x="1026" y="759" on="0"/>
        <pt x="1019" y="640" on="0"/>
        <pt x="1007" y="517" on="0"/>
        <pt x="991" y="394" on="0"/>
        <pt x="975" y="283" on="0"/>
        <pt x="967" y="236" on="1"/>
        <pt x="953" y="158" on="1"/>
        <pt x="936" y="76" on="0"/>
        <pt x="893" y="32" on="0"/>
        <pt x="854" y="15" on="0"/>
        <pt x="794" y="3" on="0"/>
        <pt x="723" y="-6" on="0"/>
        <pt x="645" y="-12" on="0"/>
        <pt x="609" y="-14" on="1"/>
        <pt x="549" y="-16" on="0"/>
        <pt x="498" y="-16" on="1"/>
        <pt x="379" y="-16" on="0"/>
      </contour>
    </TTGlyph>
    <TTGlyph name="Ocircumflex" xMin="137" yMin="-16" xMax="1050" yMax="1799">
      <contour>
        <pt x="590" y="1580" on="1"/>
        <pt x="490" y="1472" on="0"/>
        <pt x="387" y="1398" on="1"/>
        <pt x="278" y="1496" on="1"/>
        <pt x="502" y="1793" on="1"/>
        <pt x="692" y="1799" on="1"/>
        <pt x="923" y="1494" on="1"/>
        <pt x="799" y="1398" on="1"/>
        <pt x="681" y="1496" on="0"/>
        <pt x="651" y="1523" on="1"/>
      </contour>
      <contour>
        <pt x="295" y="4" on="0"/>
        <pt x="246" y="38" on="0"/>
        <pt x="207" y="141" on="0"/>
        <pt x="172" y="312" on="0"/>
        <pt x="160" y="407" on="1"/>
        <pt x="137" y="589" on="0"/>
        <pt x="137" y="720" on="1"/>
        <pt x="137" y="947" on="0"/>
        <pt x="161" y="1066" on="0"/>
        <pt x="187" y="1130" on="0"/>
        <pt x="208" y="1155" on="1"/>
        <pt x="247" y="1203" on="0"/>
        <pt x="385" y="1253" on="0"/>
        <pt x="543" y="1286" on="0"/>
        <pt x="632" y="1297" on="1"/>
        <pt x="809" y="1319" on="0"/>
        <pt x="1013" y="1323" on="1"/>
        <pt x="1050" y="1081" on="1"/>
        <pt x="693" y="1067" on="0"/>
        <pt x="478" y="1022" on="1"/>
        <pt x="434" y="1012" on="0"/>
        <pt x="405" y="1001" on="1"/>
        <pt x="393" y="933" on="0"/>
        <pt x="393" y="683" on="0"/>
        <pt x="399" y="545" on="0"/>
        <pt x="405" y="476" on="1"/>
        <pt x="418" y="320" on="0"/>
        <pt x="446" y="210" on="1"/>
        <pt x="460" y="208" on="0"/>
        <pt x="490" y="208" on="0"/>
        <pt x="530" y="208" on="1"/>
        <pt x="624" y="208" on="0"/>
        <pt x="722" y="231" on="1"/>
        <pt x="772" y="556" on="0"/>
        <pt x="772" y="950" on="1"/>
        <pt x="1021" y="934" on="1"/>
        <pt x="1026" y="864" on="0"/>
        <pt x="1026" y="759" on="0"/>
        <pt x="1019" y="640" on="0"/>
        <pt x="1007" y="517" on="0"/>
        <pt x="991" y="394" on="0"/>
        <pt x="975" y="283" on="0"/>
        <pt x="967" y="236" on="1"/>
        <pt x="953" y="158" on="1"/>
        <pt x="936" y="76" on="0"/>
        <pt x="893" y="32" on="0"/>
        <pt x="854" y="15" on="0"/>
        <pt x="794" y="3" on="0"/>
        <pt x="723" y="-6" on="0"/>
        <pt x="645" y="-12" on="0"/>
        <pt x="609" y="-14" on="1"/>
        <pt x="549" y="-16" on="0"/>
        <pt x="498" y="-16" on="1"/>
        <pt x="379" y="-16" on="0"/>
      </contour>
    </TTGlyph>
    <TTGlyph name="Odieresis" xMin="137" yMin="-16" xMax="1050" yMax="1774">
      <contour>
        <pt x="491" y="1774" on="1"/>
        <pt x="526" y="1716" on="0"/>
        <pt x="526" y="1581" on="1"/>
        <pt x="526" y="1510" on="0"/>
        <pt x="514" y="1488" on="1"/>
        <pt x="315" y="1477" on="1"/>
        <pt x="298" y="1623" on="0"/>
        <pt x="274" y="1719" on="1"/>
      </contour>
      <contour>
        <pt x="901" y="1764" on="1"/>
        <pt x="916" y="1732" on="0"/>
        <pt x="916" y="1645" on="0"/>
        <pt x="907" y="1580" on="0"/>
        <pt x="900" y="1551" on="1"/>
        <pt x="887" y="1490" on="0"/>
        <pt x="868" y="1463" on="1"/>
        <pt x="666" y="1498" on="1"/>
        <pt x="683" y="1572" on="0"/>
        <pt x="683" y="1706" on="0"/>
        <pt x="678" y="1748" on="1"/>
      </contour>
      <contour>
        <pt x="295" y="4" on="0"/>
        <pt x="246" y="38" on="0"/>
        <pt x="207" y="141" on="0"/>
        <pt x="172" y="312" on="0"/>
        <pt x="160" y="407" on="1"/>
        <pt x="137" y="589" on="0"/>
        <pt x="137" y="720" on="1"/>
        <pt x="137" y="947" on="0"/>
        <pt x="161" y="1066" on="0"/>
        <pt x="187" y="1130" on="0"/>
        <pt x="208" y="1155" on="1"/>
        <pt x="247" y="1203" on="0"/>
        <pt x="385" y="1253" on="0"/>
        <pt x="543" y="1286" on="0"/>
        <pt x="632" y="1297" on="1"/>
        <pt x="809" y="1319" on="0"/>
        <pt x="1013" y="1323" on="1"/>
        <pt x="1050" y="1081" on="1"/>
        <pt x="693" y="1067" on="0"/>
        <pt x="478" y="1022" on="1"/>
        <pt x="434" y="1012" on="0"/>
        <pt x="405" y="1001" on="1"/>
        <pt x="393" y="933" on="0"/>
        <pt x="393" y="683" on="0"/>
        <pt x="399" y="545" on="0"/>
        <pt x="405" y="476" on="1"/>
        <pt x="418" y="320" on="0"/>
        <pt x="446" y="210" on="1"/>
        <pt x="460" y="208" on="0"/>
        <pt x="490" y="208" on="0"/>
        <pt x="530" y="208" on="1"/>
        <pt x="624" y="208" on="0"/>
        <pt x="722" y="231" on="1"/>
        <pt x="772" y="556" on="0"/>
        <pt x="772" y="950" on="1"/>
        <pt x="1021" y="934" on="1"/>
        <pt x="1026" y="864" on="0"/>
        <pt x="1026" y="759" on="0"/>
        <pt x="1019" y="640" on="0"/>
        <pt x="1007" y="517" on="0"/>
        <pt x="991" y="394" on="0"/>
        <pt x="975" y="283" on="0"/>
        <pt x="967" y="236" on="1"/>
        <pt x="953" y="158" on="1"/>
        <pt x="936" y="76" on="0"/>
        <pt x="893" y="32" on="0"/>
        <pt x="854" y="15" on="0"/>
        <pt x="794" y="3" on="0"/>
        <pt x="723" y="-6" on="0"/>
        <pt x="645" y="-12" on="0"/>
        <pt x="609" y="-14" on="1"/>
        <pt x="549" y="-16" on="0"/>
        <pt x="498" y="-16" on="1"/>
        <pt x="379" y="-16" on="0"/>
      </contour>
    </TTGlyph>
    <TTGlyph name="Ograve" xMin="137" yMin="-16" xMax="1050" yMax="1820">
      <contour>
        <pt x="712" y="1404" on="1"/>
        <pt x="605" y="1428" on="0"/>
        <pt x="508" y="1484" on="1"/>
        <pt x="336" y="1582" on="0"/>
        <pt x="284" y="1646" on="1"/>
        <pt x="448" y="1820" on="1"/>
        <pt x="792" y="1527" on="1"/>
      </contour>
      <contour>
        <pt x="295" y="4" on="0"/>
        <pt x="246" y="38" on="0"/>
        <pt x="207" y="141" on="0"/>
        <pt x="172" y="312" on="0"/>
        <pt x="160" y="407" on="1"/>
        <pt x="137" y="589" on="0"/>
        <pt x="137" y="720" on="1"/>
        <pt x="137" y="947" on="0"/>
        <pt x="161" y="1066" on="0"/>
        <pt x="187" y="1130" on="0"/>
        <pt x="208" y="1155" on="1"/>
        <pt x="247" y="1203" on="0"/>
        <pt x="385" y="1253" on="0"/>
        <pt x="543" y="1286" on="0"/>
        <pt x="632" y="1297" on="1"/>
        <pt x="809" y="1319" on="0"/>
        <pt x="1013" y="1323" on="1"/>
        <pt x="1050" y="1081" on="1"/>
        <pt x="693" y="1067" on="0"/>
        <pt x="478" y="1022" on="1"/>
        <pt x="434" y="1012" on="0"/>
        <pt x="405" y="1001" on="1"/>
        <pt x="393" y="933" on="0"/>
        <pt x="393" y="683" on="0"/>
        <pt x="399" y="545" on="0"/>
        <pt x="405" y="476" on="1"/>
        <pt x="418" y="320" on="0"/>
        <pt x="446" y="210" on="1"/>
        <pt x="460" y="208" on="0"/>
        <pt x="490" y="208" on="0"/>
        <pt x="530" y="208" on="1"/>
        <pt x="624" y="208" on="0"/>
        <pt x="722" y="231" on="1"/>
        <pt x="772" y="556" on="0"/>
        <pt x="772" y="950" on="1"/>
        <pt x="1021" y="934" on="1"/>
        <pt x="1026" y="864" on="0"/>
        <pt x="1026" y="759" on="0"/>
        <pt x="1019" y="640" on="0"/>
        <pt x="1007" y="517" on="0"/>
        <pt x="991" y="394" on="0"/>
        <pt x="975" y="283" on="0"/>
        <pt x="967" y="236" on="1"/>
        <pt x="953" y="158" on="1"/>
        <pt x="936" y="76" on="0"/>
        <pt x="893" y="32" on="0"/>
        <pt x="854" y="15" on="0"/>
        <pt x="794" y="3" on="0"/>
        <pt x="723" y="-6" on="0"/>
        <pt x="645" y="-12" on="0"/>
        <pt x="609" y="-14" on="1"/>
        <pt x="549" y="-16" on="0"/>
        <pt x="498" y="-16" on="1"/>
        <pt x="379" y="-16" on="0"/>
      </contour>
    </TTGlyph>
    <TTGlyph name="Oslash" xMin="137" yMin="-228" xMax="1099" yMax="1521">
      <contour>
        <pt x="492" y="-16" on="1"/>
        <pt x="465" y="-16" on="0"/>
        <pt x="429" y="-14" on="1"/>
        <pt x="350" y="-228" on="1"/>
        <pt x="229" y="-187" on="1"/>
        <pt x="301" y="7" on="1"/>
        <pt x="251" y="27" on="0"/>
        <pt x="208" y="141" on="0"/>
        <pt x="172" y="312" on="0"/>
        <pt x="160" y="407" on="1"/>
        <pt x="137" y="601" on="0"/>
        <pt x="137" y="860" on="0"/>
        <pt x="146" y="999" on="0"/>
        <pt x="165" y="1058" on="1"/>
        <pt x="207" y="1188" on="0"/>
        <pt x="331" y="1231" on="1"/>
        <pt x="482" y="1286" on="0"/>
        <pt x="787" y="1309" on="1"/>
        <pt x="866" y="1521" on="1"/>
        <pt x="986" y="1474" on="1"/>
        <pt x="928" y="1318" on="1"/>
        <pt x="962" y="1320" on="0"/>
        <pt x="996" y="1321" on="1"/>
        <pt x="1063" y="1323" on="1"/>
        <pt x="1099" y="1090" on="1"/>
        <pt x="961" y="1085" on="0"/>
        <pt x="835" y="1071" on="1"/>
        <pt x="514" y="211" on="1"/>
        <pt x="516" y="211" on="1"/>
        <pt x="703" y="211" on="0"/>
        <pt x="788" y="231" on="1"/>
        <pt x="821" y="446" on="0"/>
        <pt x="821" y="950" on="1"/>
        <pt x="1067" y="934" on="1"/>
        <pt x="1071" y="878" on="0"/>
        <pt x="1071" y="733" on="0"/>
        <pt x="1063" y="558" on="0"/>
        <pt x="1056" y="471" on="1"/>
        <pt x="1028" y="152" on="0"/>
        <pt x="990" y="75" on="1"/>
        <pt x="964" y="23" on="0"/>
        <pt x="882" y="9" on="1"/>
        <pt x="740" y="-16" on="0"/>
      </contour>
      <contour>
        <pt x="692" y="1055" on="1"/>
        <pt x="485" y="1030" on="0"/>
        <pt x="407" y="1001" on="1"/>
        <pt x="387" y="911" on="0"/>
        <pt x="387" y="722" on="0"/>
        <pt x="389" y="630" on="0"/>
        <pt x="392" y="570" on="1"/>
        <pt x="397" y="429" on="0"/>
        <pt x="412" y="303" on="1"/>
      </contour>
    </TTGlyph>
    <TTGlyph name="Otilde" xMin="137" yMin="-16" xMax="1050" yMax="1744">
      <contour>
        <pt x="245" y="1535" on="1"/>
        <pt x="285" y="1595" on="0"/>
        <pt x="337" y="1643" on="1"/>
        <pt x="433" y="1732" on="0"/>
        <pt x="500" y="1732" on="0"/>
        <pt x="569" y="1704" on="0"/>
        <pt x="602" y="1687" on="1"/>
        <pt x="661" y="1656" on="1"/>
        <pt x="688" y="1642" on="0"/>
        <pt x="702" y="1642" on="0"/>
        <pt x="711" y="1646" on="0"/>
        <pt x="741" y="1665" on="0"/>
        <pt x="770" y="1686" on="1"/>
        <pt x="853" y="1744" on="1"/>
        <pt x="929" y="1650" on="1"/>
        <pt x="885" y="1586" on="1"/>
        <pt x="771" y="1423" on="0"/>
        <pt x="686" y="1423" on="1"/>
        <pt x="644" y="1423" on="0"/>
        <pt x="531" y="1486" on="0"/>
        <pt x="483" y="1515" on="0"/>
        <pt x="473" y="1515" on="0"/>
        <pt x="464" y="1512" on="0"/>
        <pt x="448" y="1505" on="1"/>
        <pt x="309" y="1443" on="1"/>
      </contour>
      <contour>
        <pt x="295" y="4" on="0"/>
        <pt x="246" y="38" on="0"/>
        <pt x="207" y="141" on="0"/>
        <pt x="172" y="312" on="0"/>
        <pt x="160" y="407" on="1"/>
        <pt x="137" y="589" on="0"/>
        <pt x="137" y="720" on="1"/>
        <pt x="137" y="947" on="0"/>
        <pt x="161" y="1066" on="0"/>
        <pt x="187" y="1130" on="0"/>
        <pt x="208" y="1155" on="1"/>
        <pt x="247" y="1203" on="0"/>
        <pt x="385" y="1253" on="0"/>
        <pt x="543" y="1286" on="0"/>
        <pt x="632" y="1297" on="1"/>
        <pt x="809" y="1319" on="0"/>
        <pt x="1013" y="1323" on="1"/>
        <pt x="1050" y="1081" on="1"/>
        <pt x="693" y="1067" on="0"/>
        <pt x="478" y="1022" on="1"/>
        <pt x="434" y="1012" on="0"/>
        <pt x="405" y="1001" on="1"/>
        <pt x="393" y="933" on="0"/>
        <pt x="393" y="683" on="0"/>
        <pt x="399" y="545" on="0"/>
        <pt x="405" y="476" on="1"/>
        <pt x="418" y="320" on="0"/>
        <pt x="446" y="210" on="1"/>
        <pt x="460" y="208" on="0"/>
        <pt x="490" y="208" on="0"/>
        <pt x="530" y="208" on="1"/>
        <pt x="624" y="208" on="0"/>
        <pt x="722" y="231" on="1"/>
        <pt x="772" y="556" on="0"/>
        <pt x="772" y="950" on="1"/>
        <pt x="1021" y="934" on="1"/>
        <pt x="1026" y="864" on="0"/>
        <pt x="1026" y="759" on="0"/>
        <pt x="1019" y="640" on="0"/>
        <pt x="1007" y="517" on="0"/>
        <pt x="991" y="394" on="0"/>
        <pt x="975" y="283" on="0"/>
        <pt x="967" y="236" on="1"/>
        <pt x="953" y="158" on="1"/>
        <pt x="936" y="76" on="0"/>
        <pt x="893" y="32" on="0"/>
        <pt x="854" y="15" on="0"/>
        <pt x="794" y="3" on="0"/>
        <pt x="723" y="-6" on="0"/>
        <pt x="645" y="-12" on="0"/>
        <pt x="609" y="-14" on="1"/>
        <pt x="549" y="-16" on="0"/>
        <pt x="498" y="-16" on="1"/>
        <pt x="379" y="-16" on="0"/>
      </contour>
    </TTGlyph>
    <TTGlyph name="P" xMin="78" yMin="-20" xMax="990" yMax="1313">
      <contour>
        <pt x="176" y="924" on="1"/>
        <pt x="432" y="965" on="1"/>
        <pt x="432" y="764" on="1"/>
        <pt x="424" y="485" on="1"/>
        <pt x="461" y="491" on="0"/>
        <pt x="494" y="498" on="1"/>
        <pt x="559" y="514" on="1"/>
        <pt x="591" y="522" on="0"/>
        <pt x="622" y="532" on="1"/>
        <pt x="688" y="555" on="1"/>
        <pt x="735" y="704" on="0"/>
        <pt x="735" y="919" on="1"/>
        <pt x="735" y="999" on="0"/>
        <pt x="727" y="1020" on="1"/>
        <pt x="595" y="1062" on="0"/>
        <pt x="245" y="1072" on="1"/>
        <pt x="155" y="1074" on="0"/>
        <pt x="78" y="1077" on="1"/>
        <pt x="116" y="1313" on="1"/>
        <pt x="588" y="1295" on="0"/>
        <pt x="807" y="1243" on="1"/>
        <pt x="842" y="1234" on="0"/>
        <pt x="888" y="1188" on="1"/>
        <pt x="975" y="1101" on="0"/>
        <pt x="990" y="996" on="0"/>
        <pt x="990" y="805" on="0"/>
        <pt x="940" y="539" on="0"/>
        <pt x="884" y="408" on="1"/>
        <pt x="862" y="356" on="0"/>
        <pt x="784" y="344" on="1"/>
        <pt x="430" y="281" on="1"/>
        <pt x="418" y="2" on="1"/>
        <pt x="194" y="-20" on="1"/>
      </contour>
    </TTGlyph>
    <TTGlyph name="Q" xMin="129" yMin="-526" xMax="1042" yMax="1323">
      <contour>
        <pt x="527" y="-282" on="0"/>
        <pt x="512" y="-186" on="0"/>
        <pt x="512" y="-52" on="0"/>
        <pt x="514" y="-16" on="1"/>
        <pt x="485" y="-16" on="1"/>
        <pt x="371" y="-16" on="0"/>
        <pt x="287" y="4" on="0"/>
        <pt x="238" y="38" on="0"/>
        <pt x="199" y="141" on="0"/>
        <pt x="164" y="312" on="0"/>
        <pt x="152" y="407" on="1"/>
        <pt x="129" y="589" on="0"/>
        <pt x="129" y="819" on="0"/>
        <pt x="132" y="895" on="0"/>
        <pt x="135" y="931" on="1"/>
        <pt x="149" y="1095" on="0"/>
        <pt x="180" y="1141" on="1"/>
        <pt x="219" y="1197" on="0"/>
        <pt x="377" y="1253" on="0"/>
        <pt x="535" y="1286" on="0"/>
        <pt x="624" y="1297" on="1"/>
        <pt x="801" y="1319" on="0"/>
        <pt x="1005" y="1323" on="1"/>
        <pt x="1042" y="1081" on="1"/>
        <pt x="687" y="1067" on="0"/>
        <pt x="472" y="1022" on="1"/>
        <pt x="428" y="1012" on="0"/>
        <pt x="399" y="1001" on="1"/>
        <pt x="387" y="933" on="0"/>
        <pt x="387" y="683" on="0"/>
        <pt x="393" y="546" on="0"/>
        <pt x="399" y="477" on="1"/>
        <pt x="412" y="324" on="0"/>
        <pt x="440" y="213" on="1"/>
        <pt x="454" y="211" on="0"/>
        <pt x="484" y="211" on="0"/>
        <pt x="524" y="211" on="1"/>
        <pt x="629" y="211" on="0"/>
        <pt x="714" y="231" on="1"/>
        <pt x="764" y="556" on="0"/>
        <pt x="764" y="950" on="1"/>
        <pt x="1013" y="934" on="1"/>
        <pt x="1018" y="864" on="0"/>
        <pt x="1018" y="733" on="0"/>
        <pt x="1005" y="558" on="0"/>
        <pt x="994" y="471" on="1"/>
        <pt x="955" y="140" on="0"/>
        <pt x="920" y="75" on="1"/>
        <pt x="901" y="39" on="0"/>
        <pt x="869" y="25" on="1"/>
        <pt x="817" y="2" on="0"/>
        <pt x="683" y="-8" on="1"/>
        <pt x="721" y="-151" on="0"/>
        <pt x="808" y="-296" on="1"/>
        <pt x="870" y="-395" on="1"/>
        <pt x="647" y="-526" on="1"/>
        <pt x="567" y="-395" on="0"/>
      </contour>
    </TTGlyph>
    <TTGlyph name="R" xMin="78" yMin="-78" xMax="1011" yMax="1321">
      <contour>
        <pt x="164" y="932" on="1"/>
        <pt x="407" y="973" on="1"/>
        <pt x="407" y="772" on="1"/>
        <pt x="401" y="530" on="1"/>
        <pt x="688" y="600" on="1"/>
        <pt x="749" y="793" on="0"/>
        <pt x="749" y="950" on="1"/>
        <pt x="749" y="983" on="0"/>
        <pt x="745" y="1012" on="1"/>
        <pt x="576" y="1065" on="0"/>
        <pt x="78" y="1085" on="1"/>
        <pt x="116" y="1321" on="1"/>
        <pt x="543" y="1304" on="0"/>
        <pt x="856" y="1239" on="1"/>
        <pt x="883" y="1233" on="0"/>
        <pt x="942" y="1160" on="1"/>
        <pt x="1000" y="1088" on="0"/>
        <pt x="1005" y="1030" on="0"/>
        <pt x="1005" y="1002" on="1"/>
        <pt x="1005" y="946" on="1"/>
        <pt x="1005" y="816" on="0"/>
        <pt x="939" y="610" on="1"/>
        <pt x="903" y="498" on="0"/>
        <pt x="868" y="466" on="1"/>
        <pt x="852" y="451" on="0"/>
        <pt x="839" y="444" on="1"/>
        <pt x="741" y="412" on="1"/>
        <pt x="887" y="253" on="0"/>
        <pt x="1011" y="63" on="1"/>
        <pt x="803" y="-78" on="1"/>
        <pt x="553" y="362" on="1"/>
        <pt x="407" y="354" on="1"/>
        <pt x="399" y="0" on="1"/>
        <pt x="182" y="-18" on="1"/>
      </contour>
    </TTGlyph>
    <TTGlyph name="Racute" xMin="101" yMin="-78" xMax="1034" yMax="1820">
      <contour>
        <pt x="380" y="1519" on="1"/>
        <pt x="733" y="1820" on="1"/>
        <pt x="882" y="1634" on="1"/>
        <pt x="829" y="1569" on="0"/>
        <pt x="734" y="1515" on="1"/>
        <pt x="567" y="1420" on="0"/>
        <pt x="460" y="1396" on="1"/>
      </contour>
      <contour>
        <pt x="187" y="932" on="1"/>
        <pt x="430" y="973" on="1"/>
        <pt x="430" y="772" on="1"/>
        <pt x="424" y="530" on="1"/>
        <pt x="711" y="600" on="1"/>
        <pt x="772" y="793" on="0"/>
        <pt x="772" y="950" on="1"/>
        <pt x="772" y="983" on="0"/>
        <pt x="768" y="1012" on="1"/>
        <pt x="599" y="1065" on="0"/>
        <pt x="101" y="1085" on="1"/>
        <pt x="139" y="1321" on="1"/>
        <pt x="566" y="1304" on="0"/>
        <pt x="879" y="1239" on="1"/>
        <pt x="906" y="1233" on="0"/>
        <pt x="966" y="1160" on="1"/>
        <pt x="1023" y="1088" on="0"/>
        <pt x="1028" y="1030" on="0"/>
        <pt x="1028" y="1002" on="1"/>
        <pt x="1028" y="946" on="1"/>
        <pt x="1028" y="816" on="0"/>
        <pt x="962" y="610" on="1"/>
        <pt x="926" y="498" on="0"/>
        <pt x="892" y="466" on="1"/>
        <pt x="875" y="451" on="0"/>
        <pt x="862" y="444" on="1"/>
        <pt x="764" y="412" on="1"/>
        <pt x="910" y="253" on="0"/>
        <pt x="1034" y="63" on="1"/>
        <pt x="826" y="-78" on="1"/>
        <pt x="576" y="362" on="1"/>
        <pt x="430" y="354" on="1"/>
        <pt x="422" y="0" on="1"/>
        <pt x="205" y="-18" on="1"/>
      </contour>
    </TTGlyph>
    <TTGlyph name="Rcaron" xMin="101" yMin="-78" xMax="1034" yMax="1820">
      <contour>
        <pt x="559" y="1638" on="1"/>
        <pt x="659" y="1746" on="0"/>
        <pt x="762" y="1820" on="1"/>
        <pt x="868" y="1724" on="1"/>
        <pt x="639" y="1437" on="1"/>
        <pt x="457" y="1419" on="1"/>
        <pt x="225" y="1724" on="1"/>
        <pt x="350" y="1820" on="1"/>
        <pt x="469" y="1721" on="0"/>
        <pt x="498" y="1695" on="1"/>
      </contour>
      <contour>
        <pt x="187" y="932" on="1"/>
        <pt x="430" y="973" on="1"/>
        <pt x="430" y="772" on="1"/>
        <pt x="424" y="530" on="1"/>
        <pt x="711" y="600" on="1"/>
        <pt x="772" y="793" on="0"/>
        <pt x="772" y="950" on="1"/>
        <pt x="772" y="983" on="0"/>
        <pt x="768" y="1012" on="1"/>
        <pt x="599" y="1065" on="0"/>
        <pt x="101" y="1085" on="1"/>
        <pt x="139" y="1321" on="1"/>
        <pt x="566" y="1304" on="0"/>
        <pt x="879" y="1239" on="1"/>
        <pt x="906" y="1233" on="0"/>
        <pt x="966" y="1160" on="1"/>
        <pt x="1023" y="1088" on="0"/>
        <pt x="1028" y="1030" on="0"/>
        <pt x="1028" y="1002" on="1"/>
        <pt x="1028" y="946" on="1"/>
        <pt x="1028" y="816" on="0"/>
        <pt x="962" y="610" on="1"/>
        <pt x="926" y="498" on="0"/>
        <pt x="892" y="466" on="1"/>
        <pt x="875" y="451" on="0"/>
        <pt x="862" y="444" on="1"/>
        <pt x="764" y="412" on="1"/>
        <pt x="910" y="253" on="0"/>
        <pt x="1034" y="63" on="1"/>
        <pt x="826" y="-78" on="1"/>
        <pt x="576" y="362" on="1"/>
        <pt x="430" y="354" on="1"/>
        <pt x="422" y="0" on="1"/>
        <pt x="205" y="-18" on="1"/>
      </contour>
    </TTGlyph>
    <TTGlyph name="Rcommaaccent" xMin="101" yMin="-604" xMax="1034" yMax="1321">
      <contour>
        <pt x="187" y="932" on="1"/>
        <pt x="430" y="973" on="1"/>
        <pt x="430" y="772" on="1"/>
        <pt x="424" y="530" on="1"/>
        <pt x="711" y="600" on="1"/>
        <pt x="772" y="793" on="0"/>
        <pt x="772" y="950" on="1"/>
        <pt x="772" y="983" on="0"/>
        <pt x="768" y="1012" on="1"/>
        <pt x="599" y="1065" on="0"/>
        <pt x="101" y="1085" on="1"/>
        <pt x="139" y="1321" on="1"/>
        <pt x="566" y="1304" on="0"/>
        <pt x="879" y="1239" on="1"/>
        <pt x="906" y="1233" on="0"/>
        <pt x="966" y="1160" on="1"/>
        <pt x="1023" y="1088" on="0"/>
        <pt x="1028" y="1030" on="0"/>
        <pt x="1028" y="1002" on="1"/>
        <pt x="1028" y="946" on="1"/>
        <pt x="1028" y="816" on="0"/>
        <pt x="962" y="610" on="1"/>
        <pt x="926" y="498" on="0"/>
        <pt x="892" y="466" on="1"/>
        <pt x="875" y="451" on="0"/>
        <pt x="862" y="444" on="1"/>
        <pt x="764" y="412" on="1"/>
        <pt x="910" y="253" on="0"/>
        <pt x="1034" y="63" on="1"/>
        <pt x="826" y="-78" on="1"/>
        <pt x="576" y="362" on="1"/>
        <pt x="430" y="354" on="1"/>
        <pt x="422" y="0" on="1"/>
        <pt x="205" y="-18" on="1"/>
      </contour>
      <contour>
        <pt x="699" y="-270" on="1"/>
        <pt x="699" y="-461" on="0"/>
        <pt x="588" y="-604" on="1"/>
        <pt x="459" y="-594" on="1"/>
        <pt x="502" y="-482" on="0"/>
        <pt x="506" y="-375" on="1"/>
        <pt x="432" y="-365" on="1"/>
        <pt x="414" y="-176" on="1"/>
        <pt x="672" y="-119" on="1"/>
        <pt x="699" y="-191" on="0"/>
      </contour>
    </TTGlyph>
    <TTGlyph name="S" xMin="95" yMin="-45" xMax="813" yMax="1335">
      <contour>
        <pt x="98" y="205" on="1"/>
        <pt x="391" y="227" on="0"/>
        <pt x="547" y="272" on="1"/>
        <pt x="554" y="318" on="0"/>
        <pt x="554" y="435" on="0"/>
        <pt x="551" y="485" on="1"/>
        <pt x="196" y="614" on="1"/>
        <pt x="160" y="627" on="0"/>
        <pt x="124" y="696" on="0"/>
        <pt x="115" y="752" on="1"/>
        <pt x="95" y="875" on="0"/>
        <pt x="95" y="940" on="1"/>
        <pt x="95" y="1043" on="0"/>
        <pt x="100" y="1089" on="1"/>
        <pt x="108" y="1171" on="0"/>
        <pt x="205" y="1200" on="1"/>
        <pt x="432" y="1282" on="0"/>
        <pt x="739" y="1335" on="1"/>
        <pt x="800" y="1094" on="1"/>
        <pt x="672" y="1076" on="1"/>
        <pt x="482" y="1048" on="0"/>
        <pt x="356" y="1016" on="1"/>
        <pt x="352" y="990" on="0"/>
        <pt x="352" y="948" on="1"/>
        <pt x="352" y="862" on="0"/>
        <pt x="356" y="813" on="1"/>
        <pt x="725" y="651" on="1"/>
        <pt x="786" y="625" on="0"/>
        <pt x="807" y="560" on="1"/>
        <pt x="813" y="541" on="0"/>
        <pt x="813" y="525" on="0"/>
        <pt x="810" y="472" on="0"/>
        <pt x="807" y="428" on="1"/>
        <pt x="799" y="310" on="0"/>
        <pt x="775" y="141" on="0"/>
        <pt x="682" y="80" on="0"/>
        <pt x="549" y="33" on="0"/>
        <pt x="472" y="14" on="1"/>
        <pt x="347" y="-15" on="0"/>
        <pt x="141" y="-45" on="1"/>
      </contour>
    </TTGlyph>
    <TTGlyph name="T" xMin="40" yMin="-18" xMax="859" yMax="1290">
      <contour>
        <pt x="859" y="1065" on="1"/>
        <pt x="742" y="1060" on="0"/>
        <pt x="574" y="1047" on="1"/>
        <pt x="583" y="631" on="1"/>
        <pt x="560" y="0" on="1"/>
        <pt x="337" y="-18" on="1"/>
        <pt x="325" y="1038" on="1"/>
        <pt x="238" y="1036" on="0"/>
        <pt x="91" y="1028" on="0"/>
        <pt x="40" y="1028" on="1"/>
        <pt x="58" y="1245" on="1"/>
        <pt x="404" y="1290" on="0"/>
        <pt x="833" y="1290" on="1"/>
      </contour>
    </TTGlyph>
    <TTGlyph name="Thorn" xMin="198" yMin="-14" xMax="1011" yMax="1333">
      <contour>
        <pt x="198" y="1292" on="1"/>
        <pt x="454" y="1333" on="1"/>
        <pt x="454" y="772" on="1"/>
        <pt x="446" y="428" on="1"/>
        <pt x="555" y="446" on="0"/>
        <pt x="616" y="466" on="1"/>
        <pt x="710" y="498" on="1"/>
        <pt x="740" y="579" on="0"/>
        <pt x="762" y="759" on="0"/>
        <pt x="762" y="785" on="1"/>
        <pt x="762" y="820" on="0"/>
        <pt x="757" y="862" on="1"/>
        <pt x="683" y="890" on="0"/>
        <pt x="510" y="905" on="1"/>
        <pt x="557" y="1130" on="1"/>
        <pt x="699" y="1115" on="0"/>
        <pt x="874" y="1070" on="1"/>
        <pt x="913" y="1059" on="0"/>
        <pt x="942" y="1029" on="1"/>
        <pt x="1001" y="966" on="0"/>
        <pt x="1006" y="902" on="1"/>
        <pt x="1011" y="850" on="0"/>
        <pt x="1011" y="745" on="0"/>
        <pt x="998" y="634" on="0"/>
        <pt x="986" y="576" on="1"/>
        <pt x="961" y="453" on="0"/>
        <pt x="911" y="335" on="0"/>
        <pt x="888" y="315" on="0"/>
        <pt x="860" y="300" on="0"/>
        <pt x="845" y="296" on="1"/>
        <pt x="817" y="287" on="1"/>
        <pt x="438" y="223" on="1"/>
        <pt x="426" y="8" on="1"/>
        <pt x="217" y="-14" on="1"/>
      </contour>
    </TTGlyph>
    <TTGlyph name="U" xMin="125" yMin="-3" xMax="1059" yMax="1307">
      <contour>
        <pt x="193" y="248" on="1"/>
        <pt x="132" y="797" on="0"/>
        <pt x="125" y="1260" on="1"/>
        <pt x="379" y="1300" on="1"/>
        <pt x="420" y="270" on="1"/>
        <pt x="502" y="222" on="0"/>
        <pt x="662" y="222" on="1"/>
        <pt x="688" y="222" on="0"/>
        <pt x="731" y="227" on="1"/>
        <pt x="784" y="1307" on="1"/>
        <pt x="1059" y="1272" on="1"/>
        <pt x="966" y="285" on="1"/>
        <pt x="963" y="248" on="0"/>
        <pt x="868" y="140" on="0"/>
        <pt x="839" y="110" on="1"/>
        <pt x="779" y="48" on="0"/>
        <pt x="740" y="11" on="0"/>
        <pt x="723" y="10" on="1"/>
        <pt x="559" y="2" on="0"/>
        <pt x="457" y="-3" on="0"/>
        <pt x="442" y="-2" on="0"/>
        <pt x="406" y="19" on="0"/>
        <pt x="365" y="49" on="0"/>
        <pt x="346" y="66" on="1"/>
        <pt x="270" y="131" on="1"/>
        <pt x="200" y="191" on="0"/>
      </contour>
    </TTGlyph>
    <TTGlyph name="Uacute" xMin="109" yMin="-3" xMax="1043" yMax="1820">
      <contour>
        <pt x="386" y="1519" on="1"/>
        <pt x="739" y="1820" on="1"/>
        <pt x="888" y="1634" on="1"/>
        <pt x="835" y="1569" on="0"/>
        <pt x="740" y="1515" on="1"/>
        <pt x="573" y="1420" on="0"/>
        <pt x="466" y="1396" on="1"/>
      </contour>
      <contour>
        <pt x="177" y="248" on="1"/>
        <pt x="116" y="797" on="0"/>
        <pt x="109" y="1260" on="1"/>
        <pt x="363" y="1300" on="1"/>
        <pt x="404" y="270" on="1"/>
        <pt x="486" y="222" on="0"/>
        <pt x="646" y="222" on="1"/>
        <pt x="672" y="222" on="0"/>
        <pt x="715" y="227" on="1"/>
        <pt x="768" y="1307" on="1"/>
        <pt x="1043" y="1272" on="1"/>
        <pt x="950" y="285" on="1"/>
        <pt x="947" y="248" on="0"/>
        <pt x="852" y="140" on="0"/>
        <pt x="823" y="110" on="1"/>
        <pt x="763" y="48" on="0"/>
        <pt x="724" y="11" on="0"/>
        <pt x="707" y="10" on="1"/>
        <pt x="543" y="2" on="0"/>
        <pt x="441" y="-3" on="0"/>
        <pt x="426" y="-2" on="0"/>
        <pt x="390" y="19" on="0"/>
        <pt x="349" y="49" on="0"/>
        <pt x="330" y="66" on="1"/>
        <pt x="254" y="131" on="1"/>
        <pt x="184" y="191" on="0"/>
      </contour>
    </TTGlyph>
    <TTGlyph name="Ucircumflex" xMin="109" yMin="-3" xMax="1043" yMax="1799">
      <contour>
        <pt x="555" y="1580" on="1"/>
        <pt x="455" y="1472" on="0"/>
        <pt x="352" y="1398" on="1"/>
        <pt x="243" y="1496" on="1"/>
        <pt x="467" y="1793" on="1"/>
        <pt x="657" y="1799" on="1"/>
        <pt x="888" y="1494" on="1"/>
        <pt x="764" y="1398" on="1"/>
        <pt x="646" y="1496" on="0"/>
        <pt x="616" y="1523" on="1"/>
      </contour>
      <contour>
        <pt x="177" y="248" on="1"/>
        <pt x="116" y="797" on="0"/>
        <pt x="109" y="1260" on="1"/>
        <pt x="363" y="1300" on="1"/>
        <pt x="404" y="270" on="1"/>
        <pt x="486" y="222" on="0"/>
        <pt x="646" y="222" on="1"/>
        <pt x="672" y="222" on="0"/>
        <pt x="715" y="227" on="1"/>
        <pt x="768" y="1307" on="1"/>
        <pt x="1043" y="1272" on="1"/>
        <pt x="950" y="285" on="1"/>
        <pt x="947" y="248" on="0"/>
        <pt x="852" y="140" on="0"/>
        <pt x="823" y="110" on="1"/>
        <pt x="763" y="48" on="0"/>
        <pt x="724" y="11" on="0"/>
        <pt x="707" y="10" on="1"/>
        <pt x="543" y="2" on="0"/>
        <pt x="441" y="-3" on="0"/>
        <pt x="426" y="-2" on="0"/>
        <pt x="390" y="19" on="0"/>
        <pt x="349" y="49" on="0"/>
        <pt x="330" y="66" on="1"/>
        <pt x="254" y="131" on="1"/>
        <pt x="184" y="191" on="0"/>
      </contour>
    </TTGlyph>
    <TTGlyph name="Udieresis" xMin="109" yMin="-3" xMax="1043" yMax="1774">
      <contour>
        <pt x="462" y="1774" on="1"/>
        <pt x="497" y="1716" on="0"/>
        <pt x="497" y="1581" on="1"/>
        <pt x="497" y="1510" on="0"/>
        <pt x="485" y="1488" on="1"/>
        <pt x="286" y="1477" on="1"/>
        <pt x="269" y="1623" on="0"/>
        <pt x="245" y="1719" on="1"/>
      </contour>
      <contour>
        <pt x="872" y="1764" on="1"/>
        <pt x="887" y="1732" on="0"/>
        <pt x="887" y="1645" on="0"/>
        <pt x="878" y="1580" on="0"/>
        <pt x="872" y="1551" on="1"/>
        <pt x="858" y="1490" on="0"/>
        <pt x="839" y="1463" on="1"/>
        <pt x="637" y="1498" on="1"/>
        <pt x="654" y="1572" on="0"/>
        <pt x="654" y="1706" on="0"/>
        <pt x="649" y="1748" on="1"/>
      </contour>
      <contour>
        <pt x="177" y="248" on="1"/>
        <pt x="116" y="797" on="0"/>
        <pt x="109" y="1260" on="1"/>
        <pt x="363" y="1300" on="1"/>
        <pt x="404" y="270" on="1"/>
        <pt x="486" y="222" on="0"/>
        <pt x="646" y="222" on="1"/>
        <pt x="672" y="222" on="0"/>
        <pt x="715" y="227" on="1"/>
        <pt x="768" y="1307" on="1"/>
        <pt x="1043" y="1272" on="1"/>
        <pt x="950" y="285" on="1"/>
        <pt x="947" y="248" on="0"/>
        <pt x="852" y="140" on="0"/>
        <pt x="823" y="110" on="1"/>
        <pt x="763" y="48" on="0"/>
        <pt x="724" y="11" on="0"/>
        <pt x="707" y="10" on="1"/>
        <pt x="543" y="2" on="0"/>
        <pt x="441" y="-3" on="0"/>
        <pt x="426" y="-2" on="0"/>
        <pt x="390" y="19" on="0"/>
        <pt x="349" y="49" on="0"/>
        <pt x="330" y="66" on="1"/>
        <pt x="254" y="131" on="1"/>
        <pt x="184" y="191" on="0"/>
      </contour>
    </TTGlyph>
    <TTGlyph name="Ugrave" xMin="109" yMin="-3" xMax="1043" yMax="1820">
      <contour>
        <pt x="675" y="1404" on="1"/>
        <pt x="568" y="1428" on="0"/>
        <pt x="471" y="1484" on="1"/>
        <pt x="299" y="1582" on="0"/>
        <pt x="247" y="1646" on="1"/>
        <pt x="411" y="1820" on="1"/>
        <pt x="755" y="1527" on="1"/>
      </contour>
      <contour>
        <pt x="177" y="248" on="1"/>
        <pt x="116" y="797" on="0"/>
        <pt x="109" y="1260" on="1"/>
        <pt x="363" y="1300" on="1"/>
        <pt x="404" y="270" on="1"/>
        <pt x="486" y="222" on="0"/>
        <pt x="646" y="222" on="1"/>
        <pt x="672" y="222" on="0"/>
        <pt x="715" y="227" on="1"/>
        <pt x="768" y="1307" on="1"/>
        <pt x="1043" y="1272" on="1"/>
        <pt x="950" y="285" on="1"/>
        <pt x="947" y="248" on="0"/>
        <pt x="852" y="140" on="0"/>
        <pt x="823" y="110" on="1"/>
        <pt x="763" y="48" on="0"/>
        <pt x="724" y="11" on="0"/>
        <pt x="707" y="10" on="1"/>
        <pt x="543" y="2" on="0"/>
        <pt x="441" y="-3" on="0"/>
        <pt x="426" y="-2" on="0"/>
        <pt x="390" y="19" on="0"/>
        <pt x="349" y="49" on="0"/>
        <pt x="330" y="66" on="1"/>
        <pt x="254" y="131" on="1"/>
        <pt x="184" y="191" on="0"/>
      </contour>
    </TTGlyph>
    <TTGlyph name="V" xMin="72" yMin="-16" xMax="1036" yMax="1298">
      <contour>
        <pt x="244" y="520" on="1"/>
        <pt x="72" y="1225" on="1"/>
        <pt x="326" y="1298" on="1"/>
        <pt x="481" y="530" on="1"/>
        <pt x="522" y="205" on="1"/>
        <pt x="580" y="211" on="1"/>
        <pt x="580" y="211" on="0"/>
        <pt x="682" y="740" on="1"/>
        <pt x="732" y="1009" on="0"/>
        <pt x="778" y="1298" on="1"/>
        <pt x="1036" y="1233" on="1"/>
        <pt x="999" y="1071" on="1"/>
        <pt x="991" y="1034" on="0"/>
        <pt x="976" y="972" on="1"/>
        <pt x="841" y="423" on="0"/>
        <pt x="816" y="329" on="1"/>
        <pt x="816" y="329" on="0"/>
        <pt x="772" y="170" on="1"/>
        <pt x="731" y="20" on="0"/>
        <pt x="718" y="0" on="1"/>
        <pt x="718" y="0" on="0"/>
        <pt x="540" y="-11" on="1"/>
        <pt x="455" y="-16" on="0"/>
        <pt x="368" y="-16" on="1"/>
      </contour>
    </TTGlyph>
    <TTGlyph name="W" xMin="60" yMin="-16" xMax="1557" yMax="1300">
      <contour>
        <pt x="232" y="430" on="1"/>
        <pt x="60" y="1239" on="1"/>
        <pt x="321" y="1300" on="1"/>
        <pt x="467" y="446" on="1"/>
        <pt x="488" y="180" on="1"/>
        <pt x="533" y="178" on="1"/>
        <pt x="710" y="754" on="1"/>
        <pt x="634" y="1137" on="1"/>
        <pt x="893" y="1182" on="1"/>
        <pt x="1018" y="598" on="1"/>
        <pt x="1088" y="184" on="1"/>
        <pt x="1142" y="188" on="1"/>
        <pt x="1152" y="252" on="0"/>
        <pt x="1164" y="340" on="1"/>
        <pt x="1201" y="604" on="0"/>
        <pt x="1216" y="724" on="1"/>
        <pt x="1243" y="945" on="1"/>
        <pt x="1270" y="1176" on="0"/>
        <pt x="1279" y="1298" on="1"/>
        <pt x="1557" y="1257" on="1"/>
        <pt x="1557" y="1257" on="0"/>
        <pt x="1530" y="1087" on="1"/>
        <pt x="1471" y="692" on="0"/>
        <pt x="1404" y="434" on="1"/>
        <pt x="1292" y="0" on="1"/>
        <pt x="938" y="-16" on="1"/>
        <pt x="828" y="422" on="1"/>
        <pt x="802" y="422" on="1"/>
        <pt x="687" y="0" on="1"/>
        <pt x="323" y="-16" on="1"/>
      </contour>
    </TTGlyph>
    <TTGlyph name="X" xMin="86" yMin="-16" xMax="1069" yMax="1319">
      <contour>
        <pt x="106" y="51" on="1"/>
        <pt x="128" y="228" on="0"/>
        <pt x="236" y="483" on="1"/>
        <pt x="278" y="580" on="0"/>
        <pt x="309" y="631" on="1"/>
        <pt x="413" y="690" on="1"/>
        <pt x="207" y="978" on="0"/>
        <pt x="173" y="1031" on="1"/>
        <pt x="118" y="1119" on="1"/>
        <pt x="96" y="1154" on="0"/>
        <pt x="86" y="1176" on="1"/>
        <pt x="317" y="1319" on="1"/>
        <pt x="492" y="999" on="0"/>
        <pt x="518" y="948" on="1"/>
        <pt x="591" y="806" on="0"/>
        <pt x="607" y="772" on="1"/>
        <pt x="610" y="774" on="1"/>
        <pt x="747" y="1145" on="1"/>
        <pt x="781" y="1244" on="1"/>
        <pt x="796" y="1288" on="0"/>
        <pt x="803" y="1313" on="1"/>
        <pt x="1042" y="1243" on="1"/>
        <pt x="1024" y="1156" on="0"/>
        <pt x="963" y="1021" on="1"/>
        <pt x="877" y="832" on="1"/>
        <pt x="822" y="717" on="0"/>
        <pt x="790" y="668" on="1"/>
        <pt x="710" y="627" on="1"/>
        <pt x="863" y="431" on="0"/>
        <pt x="905" y="375" on="1"/>
        <pt x="1046" y="178" on="0"/>
        <pt x="1069" y="129" on="1"/>
        <pt x="846" y="-16" on="1"/>
        <pt x="593" y="421" on="0"/>
        <pt x="569" y="465" on="1"/>
        <pt x="527" y="541" on="1"/>
        <pt x="501" y="528" on="1"/>
        <pt x="451" y="379" on="0"/>
        <pt x="428" y="306" on="1"/>
        <pt x="382" y="151" on="1"/>
        <pt x="358" y="69" on="0"/>
        <pt x="342" y="-2" on="1"/>
      </contour>
    </TTGlyph>
    <TTGlyph name="Y" xMin="39" yMin="-16" xMax="1007" yMax="1311">
      <contour>
        <pt x="404" y="439" on="1"/>
        <pt x="354" y="443" on="0"/>
        <pt x="303" y="451" on="1"/>
        <pt x="232" y="630" on="0"/>
        <pt x="168" y="834" on="1"/>
        <pt x="168" y="834" on="0"/>
        <pt x="39" y="1245" on="1"/>
        <pt x="299" y="1311" on="1"/>
        <pt x="347" y="1149" on="1"/>
        <pt x="465" y="614" on="1"/>
        <pt x="476" y="613" on="0"/>
        <pt x="498" y="613" on="0"/>
        <pt x="515" y="613" on="1"/>
        <pt x="562" y="613" on="0"/>
        <pt x="600" y="621" on="1"/>
        <pt x="737" y="1298" on="1"/>
        <pt x="1007" y="1270" on="1"/>
        <pt x="967" y="1114" on="1"/>
        <pt x="948" y="1041" on="0"/>
        <pt x="929" y="976" on="1"/>
        <pt x="929" y="976" on="0"/>
        <pt x="890" y="850" on="1"/>
        <pt x="871" y="788" on="0"/>
        <pt x="849" y="726" on="1"/>
        <pt x="746" y="451" on="1"/>
        <pt x="711" y="445" on="0"/>
        <pt x="652" y="440" on="1"/>
        <pt x="622" y="0" on="1"/>
        <pt x="407" y="-16" on="1"/>
      </contour>
    </TTGlyph>
    <TTGlyph name="Yacute" xMin="39" yMin="-16" xMax="1007" yMax="1820">
      <contour>
        <pt x="343" y="1519" on="1"/>
        <pt x="696" y="1820" on="1"/>
        <pt x="845" y="1634" on="1"/>
        <pt x="792" y="1569" on="0"/>
        <pt x="697" y="1515" on="1"/>
        <pt x="530" y="1420" on="0"/>
        <pt x="423" y="1396" on="1"/>
      </contour>
      <contour>
        <pt x="404" y="439" on="1"/>
        <pt x="354" y="443" on="0"/>
        <pt x="303" y="451" on="1"/>
        <pt x="232" y="630" on="0"/>
        <pt x="168" y="834" on="1"/>
        <pt x="39" y="1245" on="1"/>
        <pt x="299" y="1311" on="1"/>
        <pt x="347" y="1149" on="1"/>
        <pt x="465" y="614" on="1"/>
        <pt x="476" y="613" on="0"/>
        <pt x="498" y="613" on="0"/>
        <pt x="515" y="613" on="1"/>
        <pt x="562" y="613" on="0"/>
        <pt x="600" y="621" on="1"/>
        <pt x="737" y="1298" on="1"/>
        <pt x="1007" y="1270" on="1"/>
        <pt x="967" y="1114" on="1"/>
        <pt x="948" y="1041" on="0"/>
        <pt x="929" y="976" on="1"/>
        <pt x="890" y="850" on="1"/>
        <pt x="871" y="788" on="0"/>
        <pt x="849" y="726" on="1"/>
        <pt x="746" y="451" on="1"/>
        <pt x="711" y="445" on="0"/>
        <pt x="652" y="440" on="1"/>
        <pt x="622" y="0" on="1"/>
        <pt x="407" y="-16" on="1"/>
      </contour>
    </TTGlyph>
    <TTGlyph name="Z" xMin="57" yMin="-57" xMax="889" yMax="1327">
      <contour>
        <pt x="57" y="279" on="1"/>
        <pt x="626" y="1014" on="1"/>
        <pt x="602" y="1061" on="1"/>
        <pt x="575" y="1061" on="1"/>
        <pt x="334" y="1061" on="0"/>
        <pt x="75" y="1106" on="1"/>
        <pt x="114" y="1327" on="1"/>
        <pt x="270" y="1310" on="1"/>
        <pt x="600" y="1275" on="0"/>
        <pt x="798" y="1270" on="1"/>
        <pt x="889" y="993" on="1"/>
        <pt x="768" y="824" on="1"/>
        <pt x="624" y="632" on="1"/>
        <pt x="471" y="437" on="1"/>
        <pt x="325" y="256" on="1"/>
        <pt x="338" y="217" on="1"/>
        <pt x="369" y="217" on="1"/>
        <pt x="609" y="217" on="0"/>
        <pt x="874" y="170" on="1"/>
        <pt x="837" y="-57" on="1"/>
        <pt x="750" y="-50" on="0"/>
        <pt x="658" y="-40" on="1"/>
        <pt x="292" y="-4" on="1"/>
        <pt x="202" y="4" on="0"/>
        <pt x="121" y="10" on="1"/>
      </contour>
    </TTGlyph>
    <TTGlyph name="a" xMin="80" yMin="-72" xMax="840" yMax="1038">
      <contour>
        <pt x="795" y="-72" on="1"/>
        <pt x="383" y="-30" on="0"/>
        <pt x="149" y="53" on="1"/>
        <pt x="106" y="69" on="0"/>
        <pt x="92" y="237" on="1"/>
        <pt x="80" y="391" on="0"/>
        <pt x="118" y="504" on="1"/>
        <pt x="134" y="551" on="0"/>
        <pt x="156" y="556" on="1"/>
        <pt x="250" y="581" on="0"/>
        <pt x="354" y="592" on="1"/>
        <pt x="562" y="615" on="1"/>
        <pt x="558" y="756" on="1"/>
        <pt x="449" y="777" on="0"/>
        <pt x="234" y="802" on="0"/>
        <pt x="128" y="819" on="1"/>
        <pt x="181" y="1038" on="1"/>
        <pt x="350" y="1013" on="1"/>
        <pt x="582" y="979" on="0"/>
        <pt x="719" y="930" on="1"/>
        <pt x="785" y="906" on="0"/>
        <pt x="785" y="833" on="1"/>
        <pt x="789" y="285" on="1"/>
        <pt x="576" y="264" on="1"/>
        <pt x="570" y="435" on="1"/>
        <pt x="513" y="424" on="1"/>
        <pt x="417" y="408" on="0"/>
        <pt x="330" y="384" on="1"/>
        <pt x="319" y="331" on="0"/>
        <pt x="319" y="296" on="1"/>
        <pt x="319" y="245" on="0"/>
        <pt x="323" y="217" on="1"/>
        <pt x="464" y="185" on="0"/>
        <pt x="758" y="152" on="1"/>
        <pt x="840" y="143" on="1"/>
      </contour>
    </TTGlyph>
    <TTGlyph name="aacute" xMin="80" yMin="-72" xMax="840" yMax="1589">
      <contour>
        <pt x="290" y="1220" on="1"/>
        <pt x="579" y="1589" on="1"/>
        <pt x="753" y="1425" on="1"/>
        <pt x="704" y="1354" on="0"/>
        <pt x="606" y="1270" on="1"/>
        <pt x="473" y="1161" on="0"/>
        <pt x="398" y="1117" on="1"/>
      </contour>
      <contour>
        <pt x="795" y="-72" on="1"/>
        <pt x="383" y="-30" on="0"/>
        <pt x="149" y="53" on="1"/>
        <pt x="106" y="69" on="0"/>
        <pt x="92" y="237" on="1"/>
        <pt x="80" y="391" on="0"/>
        <pt x="118" y="504" on="1"/>
        <pt x="134" y="551" on="0"/>
        <pt x="156" y="556" on="1"/>
        <pt x="250" y="581" on="0"/>
        <pt x="354" y="592" on="1"/>
        <pt x="562" y="615" on="1"/>
        <pt x="558" y="756" on="1"/>
        <pt x="449" y="777" on="0"/>
        <pt x="234" y="802" on="0"/>
        <pt x="128" y="819" on="1"/>
        <pt x="181" y="1038" on="1"/>
        <pt x="350" y="1013" on="1"/>
        <pt x="582" y="979" on="0"/>
        <pt x="719" y="930" on="1"/>
        <pt x="785" y="906" on="0"/>
        <pt x="785" y="833" on="1"/>
        <pt x="789" y="285" on="1"/>
        <pt x="576" y="264" on="1"/>
        <pt x="570" y="435" on="1"/>
        <pt x="513" y="424" on="1"/>
        <pt x="417" y="408" on="0"/>
        <pt x="330" y="384" on="1"/>
        <pt x="319" y="331" on="0"/>
        <pt x="319" y="296" on="1"/>
        <pt x="319" y="245" on="0"/>
        <pt x="323" y="217" on="1"/>
        <pt x="464" y="185" on="0"/>
        <pt x="758" y="152" on="1"/>
        <pt x="840" y="143" on="1"/>
      </contour>
    </TTGlyph>
    <TTGlyph name="acircumflex" xMin="80" yMin="-72" xMax="840" yMax="1535">
      <contour>
        <pt x="446" y="1316" on="1"/>
        <pt x="346" y="1208" on="0"/>
        <pt x="243" y="1134" on="1"/>
        <pt x="134" y="1232" on="1"/>
        <pt x="358" y="1529" on="1"/>
        <pt x="548" y="1535" on="1"/>
        <pt x="779" y="1230" on="1"/>
        <pt x="655" y="1134" on="1"/>
        <pt x="537" y="1232" on="0"/>
        <pt x="507" y="1259" on="1"/>
      </contour>
      <contour>
        <pt x="795" y="-72" on="1"/>
        <pt x="383" y="-30" on="0"/>
        <pt x="149" y="53" on="1"/>
        <pt x="106" y="69" on="0"/>
        <pt x="92" y="237" on="1"/>
        <pt x="80" y="391" on="0"/>
        <pt x="118" y="504" on="1"/>
        <pt x="134" y="551" on="0"/>
        <pt x="156" y="556" on="1"/>
        <pt x="250" y="581" on="0"/>
        <pt x="354" y="592" on="1"/>
        <pt x="562" y="615" on="1"/>
        <pt x="558" y="756" on="1"/>
        <pt x="449" y="777" on="0"/>
        <pt x="234" y="802" on="0"/>
        <pt x="128" y="819" on="1"/>
        <pt x="181" y="1038" on="1"/>
        <pt x="350" y="1013" on="1"/>
        <pt x="582" y="979" on="0"/>
        <pt x="719" y="930" on="1"/>
        <pt x="785" y="906" on="0"/>
        <pt x="785" y="833" on="1"/>
        <pt x="789" y="285" on="1"/>
        <pt x="576" y="264" on="1"/>
        <pt x="570" y="435" on="1"/>
        <pt x="513" y="424" on="1"/>
        <pt x="417" y="408" on="0"/>
        <pt x="330" y="384" on="1"/>
        <pt x="319" y="331" on="0"/>
        <pt x="319" y="296" on="1"/>
        <pt x="319" y="245" on="0"/>
        <pt x="323" y="217" on="1"/>
        <pt x="464" y="185" on="0"/>
        <pt x="758" y="152" on="1"/>
        <pt x="840" y="143" on="1"/>
      </contour>
    </TTGlyph>
    <TTGlyph name="acute" xMin="45" yMin="1117" xMax="508" yMax="1589">
      <contour>
        <pt x="45" y="1220" on="1"/>
        <pt x="334" y="1589" on="1"/>
        <pt x="508" y="1425" on="1"/>
        <pt x="459" y="1354" on="0"/>
        <pt x="361" y="1270" on="1"/>
        <pt x="228" y="1161" on="0"/>
        <pt x="153" y="1117" on="1"/>
      </contour>
    </TTGlyph>
    <TTGlyph name="acute.cap" xMin="16" yMin="1396" xMax="518" yMax="1820">
      <contour>
        <pt x="16" y="1519" on="1"/>
        <pt x="369" y="1820" on="1"/>
        <pt x="518" y="1634" on="1"/>
        <pt x="465" y="1569" on="0"/>
        <pt x="370" y="1515" on="1"/>
        <pt x="203" y="1420" on="0"/>
        <pt x="96" y="1396" on="1"/>
      </contour>
    </TTGlyph>
    <TTGlyph name="adieresis" xMin="80" yMin="-72" xMax="840" yMax="1453">
      <contour>
        <pt x="355" y="1453" on="1"/>
        <pt x="390" y="1395" on="0"/>
        <pt x="390" y="1262" on="1"/>
        <pt x="390" y="1191" on="0"/>
        <pt x="377" y="1167" on="1"/>
        <pt x="179" y="1156" on="1"/>
        <pt x="162" y="1302" on="0"/>
        <pt x="138" y="1398" on="1"/>
      </contour>
      <contour>
        <pt x="748" y="1443" on="1"/>
        <pt x="763" y="1411" on="0"/>
        <pt x="763" y="1324" on="0"/>
        <pt x="754" y="1259" on="0"/>
        <pt x="748" y="1230" on="1"/>
        <pt x="734" y="1169" on="0"/>
        <pt x="715" y="1142" on="1"/>
        <pt x="512" y="1177" on="1"/>
        <pt x="530" y="1256" on="0"/>
        <pt x="530" y="1384" on="0"/>
        <pt x="525" y="1427" on="1"/>
      </contour>
      <contour>
        <pt x="795" y="-72" on="1"/>
        <pt x="383" y="-30" on="0"/>
        <pt x="149" y="53" on="1"/>
        <pt x="106" y="69" on="0"/>
        <pt x="92" y="237" on="1"/>
        <pt x="80" y="391" on="0"/>
        <pt x="118" y="504" on="1"/>
        <pt x="134" y="551" on="0"/>
        <pt x="156" y="556" on="1"/>
        <pt x="250" y="581" on="0"/>
        <pt x="354" y="592" on="1"/>
        <pt x="562" y="615" on="1"/>
        <pt x="558" y="756" on="1"/>
        <pt x="449" y="777" on="0"/>
        <pt x="234" y="802" on="0"/>
        <pt x="128" y="819" on="1"/>
        <pt x="181" y="1038" on="1"/>
        <pt x="350" y="1013" on="1"/>
        <pt x="582" y="979" on="0"/>
        <pt x="719" y="930" on="1"/>
        <pt x="785" y="906" on="0"/>
        <pt x="785" y="833" on="1"/>
        <pt x="789" y="285" on="1"/>
        <pt x="576" y="264" on="1"/>
        <pt x="570" y="435" on="1"/>
        <pt x="513" y="424" on="1"/>
        <pt x="417" y="408" on="0"/>
        <pt x="330" y="384" on="1"/>
        <pt x="319" y="331" on="0"/>
        <pt x="319" y="296" on="1"/>
        <pt x="319" y="245" on="0"/>
        <pt x="323" y="217" on="1"/>
        <pt x="464" y="185" on="0"/>
        <pt x="758" y="152" on="1"/>
        <pt x="840" y="143" on="1"/>
      </contour>
    </TTGlyph>
    <TTGlyph name="ae" xMin="90" yMin="-72" xMax="1288" yMax="1038">
      <contour>
        <pt x="744" y="911" on="1"/>
        <pt x="951" y="1012" on="0"/>
        <pt x="1069" y="1012" on="1"/>
        <pt x="1146" y="1012" on="0"/>
        <pt x="1174" y="999" on="1"/>
        <pt x="1228" y="975" on="0"/>
        <pt x="1241" y="922" on="1"/>
        <pt x="1274" y="789" on="0"/>
        <pt x="1274" y="428" on="1"/>
        <pt x="1274" y="369" on="1"/>
        <pt x="794" y="375" on="1"/>
        <pt x="794" y="233" on="1"/>
        <pt x="874" y="214" on="0"/>
        <pt x="981" y="197" on="1"/>
        <pt x="1154" y="170" on="1"/>
        <pt x="1219" y="160" on="0"/>
        <pt x="1288" y="147" on="1"/>
        <pt x="1229" y="-72" on="1"/>
        <pt x="939" y="-26" on="0"/>
        <pt x="645" y="67" on="1"/>
        <pt x="571" y="91" on="0"/>
        <pt x="571" y="150" on="1"/>
        <pt x="567" y="431" on="1"/>
        <pt x="541" y="426" on="0"/>
        <pt x="479" y="416" on="0"/>
        <pt x="448" y="410" on="1"/>
        <pt x="385" y="398" on="0"/>
        <pt x="329" y="383" on="1"/>
        <pt x="319" y="326" on="0"/>
        <pt x="319" y="293" on="1"/>
        <pt x="319" y="245" on="0"/>
        <pt x="323" y="217" on="1"/>
        <pt x="368" y="206" on="0"/>
        <pt x="414" y="198" on="1"/>
        <pt x="508" y="182" on="1"/>
        <pt x="463" y="-25" on="1"/>
        <pt x="355" y="-15" on="0"/>
        <pt x="170" y="44" on="0"/>
        <pt x="131" y="61" on="0"/>
        <pt x="109" y="124" on="0"/>
        <pt x="102" y="164" on="1"/>
        <pt x="90" y="234" on="0"/>
        <pt x="91" y="343" on="0"/>
        <pt x="98" y="419" on="0"/>
        <pt x="106" y="456" on="1"/>
        <pt x="124" y="546" on="0"/>
        <pt x="155" y="555" on="1"/>
        <pt x="267" y="584" on="0"/>
        <pt x="390" y="595" on="1"/>
        <pt x="563" y="612" on="1"/>
        <pt x="561" y="754" on="1"/>
        <pt x="453" y="775" on="0"/>
        <pt x="245" y="802" on="0"/>
        <pt x="139" y="819" on="1"/>
        <pt x="192" y="1038" on="1"/>
        <pt x="559" y="987" on="0"/>
      </contour>
      <contour>
        <pt x="1048" y="588" on="1"/>
        <pt x="1048" y="669" on="0"/>
        <pt x="1030" y="782" on="1"/>
        <pt x="931" y="782" on="0"/>
        <pt x="821" y="732" on="1"/>
        <pt x="799" y="722" on="0"/>
        <pt x="790" y="715" on="1"/>
        <pt x="789" y="676" on="1"/>
        <pt x="790" y="557" on="1"/>
        <pt x="1048" y="567" on="1"/>
      </contour>
    </TTGlyph>
    <TTGlyph name="agrave" xMin="80" yMin="-72" xMax="840" yMax="1591">
      <contour>
        <pt x="529" y="1117" on="1"/>
        <pt x="481" y="1145" on="0"/>
        <pt x="444" y="1173" on="1"/>
        <pt x="289" y="1294" on="0"/>
        <pt x="244" y="1344" on="1"/>
        <pt x="176" y="1419" on="0"/>
        <pt x="156" y="1455" on="1"/>
        <pt x="351" y="1591" on="1"/>
        <pt x="638" y="1220" on="1"/>
      </contour>
      <contour>
        <pt x="795" y="-72" on="1"/>
        <pt x="383" y="-30" on="0"/>
        <pt x="149" y="53" on="1"/>
        <pt x="106" y="69" on="0"/>
        <pt x="92" y="237" on="1"/>
        <pt x="80" y="391" on="0"/>
        <pt x="118" y="504" on="1"/>
        <pt x="134" y="551" on="0"/>
        <pt x="156" y="556" on="1"/>
        <pt x="250" y="581" on="0"/>
        <pt x="354" y="592" on="1"/>
        <pt x="562" y="615" on="1"/>
        <pt x="558" y="756" on="1"/>
        <pt x="449" y="777" on="0"/>
        <pt x="234" y="802" on="0"/>
        <pt x="128" y="819" on="1"/>
        <pt x="181" y="1038" on="1"/>
        <pt x="350" y="1013" on="1"/>
        <pt x="582" y="979" on="0"/>
        <pt x="719" y="930" on="1"/>
        <pt x="785" y="906" on="0"/>
        <pt x="785" y="833" on="1"/>
        <pt x="789" y="285" on="1"/>
        <pt x="576" y="264" on="1"/>
        <pt x="570" y="435" on="1"/>
        <pt x="513" y="424" on="1"/>
        <pt x="417" y="408" on="0"/>
        <pt x="330" y="384" on="1"/>
        <pt x="319" y="331" on="0"/>
        <pt x="319" y="296" on="1"/>
        <pt x="319" y="245" on="0"/>
        <pt x="323" y="217" on="1"/>
        <pt x="464" y="185" on="0"/>
        <pt x="758" y="152" on="1"/>
        <pt x="840" y="143" on="1"/>
      </contour>
    </TTGlyph>
    <TTGlyph name="ampersand" xMin="178" yMin="-17" xMax="1100" yMax="1331">
      <contour>
        <pt x="759" y="872" on="1"/>
        <pt x="734" y="1020" on="0"/>
        <pt x="701" y="1097" on="1"/>
        <pt x="492" y="1057" on="1"/>
        <pt x="471" y="973" on="0"/>
        <pt x="469" y="852" on="1"/>
        <pt x="537" y="812" on="0"/>
        <pt x="615" y="772" on="1"/>
        <pt x="775" y="692" on="1"/>
        <pt x="1100" y="540" on="1"/>
        <pt x="981" y="326" on="1"/>
        <pt x="779" y="427" on="0"/>
        <pt x="739" y="448" on="1"/>
        <pt x="588" y="532" on="1"/>
        <pt x="552" y="553" on="0"/>
        <pt x="522" y="573" on="1"/>
        <pt x="496" y="543" on="0"/>
        <pt x="475" y="512" on="1"/>
        <pt x="442" y="465" on="1"/>
        <pt x="431" y="448" on="0"/>
        <pt x="424" y="439" on="1"/>
        <pt x="429" y="350" on="0"/>
        <pt x="463" y="248" on="1"/>
        <pt x="571" y="212" on="0"/>
        <pt x="805" y="212" on="1"/>
        <pt x="860" y="212" on="0"/>
        <pt x="919" y="215" on="1"/>
        <pt x="904" y="-6" on="1"/>
        <pt x="829" y="-17" on="0"/>
        <pt x="680" y="-17" on="0"/>
        <pt x="529" y="1" on="0"/>
        <pt x="466" y="14" on="1"/>
        <pt x="343" y="39" on="0"/>
        <pt x="262" y="84" on="0"/>
        <pt x="232" y="123" on="0"/>
        <pt x="216" y="179" on="1"/>
        <pt x="178" y="318" on="0"/>
        <pt x="178" y="458" on="1"/>
        <pt x="178" y="486" on="0"/>
        <pt x="216" y="532" on="1"/>
        <pt x="291" y="626" on="0"/>
        <pt x="373" y="667" on="1"/>
        <pt x="373" y="692" on="1"/>
        <pt x="330" y="720" on="1"/>
        <pt x="224" y="789" on="0"/>
        <pt x="224" y="820" on="1"/>
        <pt x="224" y="1044" on="0"/>
        <pt x="252" y="1122" on="1"/>
        <pt x="273" y="1180" on="0"/>
        <pt x="308" y="1198" on="1"/>
        <pt x="473" y="1300" on="0"/>
        <pt x="727" y="1331" on="1"/>
        <pt x="771" y="1331" on="0"/>
        <pt x="823" y="1297" on="1"/>
        <pt x="916" y="1236" on="0"/>
        <pt x="937" y="1182" on="0"/>
        <pt x="958" y="1115" on="0"/>
        <pt x="968" y="1078" on="1"/>
        <pt x="987" y="1004" on="0"/>
        <pt x="999" y="933" on="1"/>
      </contour>
    </TTGlyph>
    <TTGlyph name="aring" xMin="80" yMin="-72" xMax="840" yMax="1578">
      <contour>
        <pt x="459" y="1115" on="1"/>
        <pt x="406" y="1115" on="0"/>
        <pt x="319" y="1151" on="0"/>
        <pt x="288" y="1184" on="1"/>
        <pt x="222" y="1253" on="0"/>
        <pt x="222" y="1363" on="1"/>
        <pt x="222" y="1521" on="0"/>
        <pt x="366" y="1564" on="1"/>
        <pt x="411" y="1578" on="0"/>
        <pt x="512" y="1578" on="0"/>
        <pt x="595" y="1553" on="0"/>
        <pt x="626" y="1527" on="1"/>
        <pt x="693" y="1471" on="0"/>
        <pt x="693" y="1367" on="1"/>
        <pt x="693" y="1257" on="0"/>
        <pt x="630" y="1188" on="1"/>
        <pt x="563" y="1115" on="0"/>
      </contour>
      <contour>
        <pt x="460" y="1279" on="1"/>
        <pt x="514" y="1279" on="0"/>
        <pt x="527" y="1349" on="1"/>
        <pt x="532" y="1421" on="0"/>
        <pt x="459" y="1421" on="1"/>
        <pt x="405" y="1421" on="0"/>
        <pt x="391" y="1384" on="1"/>
        <pt x="386" y="1370" on="0"/>
        <pt x="390" y="1337" on="0"/>
        <pt x="397" y="1311" on="0"/>
        <pt x="404" y="1301" on="1"/>
        <pt x="419" y="1279" on="0"/>
      </contour>
      <contour>
        <pt x="795" y="-72" on="1"/>
        <pt x="383" y="-30" on="0"/>
        <pt x="149" y="53" on="1"/>
        <pt x="106" y="69" on="0"/>
        <pt x="92" y="237" on="1"/>
        <pt x="80" y="391" on="0"/>
        <pt x="118" y="504" on="1"/>
        <pt x="134" y="551" on="0"/>
        <pt x="156" y="556" on="1"/>
        <pt x="250" y="581" on="0"/>
        <pt x="354" y="592" on="1"/>
        <pt x="562" y="615" on="1"/>
        <pt x="558" y="756" on="1"/>
        <pt x="449" y="777" on="0"/>
        <pt x="234" y="802" on="0"/>
        <pt x="128" y="819" on="1"/>
        <pt x="181" y="1038" on="1"/>
        <pt x="350" y="1013" on="1"/>
        <pt x="582" y="979" on="0"/>
        <pt x="719" y="930" on="1"/>
        <pt x="785" y="906" on="0"/>
        <pt x="785" y="833" on="1"/>
        <pt x="789" y="285" on="1"/>
        <pt x="576" y="264" on="1"/>
        <pt x="570" y="435" on="1"/>
        <pt x="513" y="424" on="1"/>
        <pt x="417" y="408" on="0"/>
        <pt x="330" y="384" on="1"/>
        <pt x="319" y="331" on="0"/>
        <pt x="319" y="296" on="1"/>
        <pt x="319" y="245" on="0"/>
        <pt x="323" y="217" on="1"/>
        <pt x="464" y="185" on="0"/>
        <pt x="758" y="152" on="1"/>
        <pt x="840" y="143" on="1"/>
      </contour>
    </TTGlyph>
    <TTGlyph name="asciicircum" xMin="26" yMin="483" xMax="919" yMax="1290">
      <contour>
        <pt x="26" y="563" on="1"/>
        <pt x="331" y="1264" on="1"/>
        <pt x="575" y="1290" on="1"/>
        <pt x="919" y="569" on="1"/>
        <pt x="764" y="483" on="1"/>
        <pt x="458" y="1010" on="1"/>
        <pt x="186" y="483" on="1"/>
      </contour>
    </TTGlyph>
    <TTGlyph name="asciitilde" xMin="43" yMin="455" xMax="975" yMax="809">
      <contour>
        <pt x="43" y="584" on="1"/>
        <pt x="98" y="667" on="0"/>
        <pt x="234" y="766" on="1"/>
        <pt x="291" y="809" on="0"/>
        <pt x="337" y="809" on="0"/>
        <pt x="405" y="788" on="0"/>
        <pt x="487" y="758" on="0"/>
        <pt x="530" y="740" on="1"/>
        <pt x="675" y="680" on="1"/>
        <pt x="702" y="670" on="0"/>
        <pt x="713" y="670" on="0"/>
        <pt x="731" y="679" on="0"/>
        <pt x="751" y="692" on="1"/>
        <pt x="893" y="791" on="1"/>
        <pt x="975" y="694" on="1"/>
        <pt x="927" y="621" on="0"/>
        <pt x="871" y="565" on="1"/>
        <pt x="759" y="455" on="0"/>
        <pt x="696" y="455" on="1"/>
        <pt x="650" y="455" on="0"/>
        <pt x="549" y="500" on="1"/>
        <pt x="352" y="586" on="1"/>
        <pt x="327" y="596" on="0"/>
        <pt x="319" y="596" on="0"/>
        <pt x="296" y="583" on="0"/>
        <pt x="270" y="570" on="1"/>
        <pt x="174" y="522" on="0"/>
        <pt x="106" y="492" on="1"/>
      </contour>
    </TTGlyph>
    <TTGlyph name="asterisk" xMin="60" yMin="917" xMax="849" yMax="1680">
      <contour>
        <pt x="119" y="1075" on="1"/>
        <pt x="119" y="1075" on="0"/>
        <pt x="176" y="1126" on="1"/>
        <pt x="275" y="1214" on="0"/>
        <pt x="357" y="1258" on="1"/>
        <pt x="172" y="1275" on="0"/>
        <pt x="60" y="1339" on="1"/>
        <pt x="167" y="1551" on="1"/>
        <pt x="346" y="1421" on="0"/>
        <pt x="402" y="1372" on="1"/>
        <pt x="367" y="1486" on="0"/>
        <pt x="351" y="1680" on="1"/>
        <pt x="606" y="1660" on="1"/>
        <pt x="568" y="1489" on="0"/>
        <pt x="506" y="1361" on="1"/>
        <pt x="634" y="1459" on="0"/>
        <pt x="772" y="1531" on="1"/>
        <pt x="849" y="1284" on="1"/>
        <pt x="712" y="1258" on="0"/>
        <pt x="560" y="1258" on="1"/>
        <pt x="676" y="1168" on="1"/>
        <pt x="741" y="1117" on="0"/>
        <pt x="809" y="1050" on="1"/>
        <pt x="596" y="917" on="1"/>
        <pt x="558" y="978" on="1"/>
        <pt x="539" y="1010" on="0"/>
        <pt x="520" y="1044" on="1"/>
        <pt x="484" y="1114" on="1"/>
        <pt x="467" y="1149" on="0"/>
        <pt x="454" y="1184" on="1"/>
        <pt x="380" y="1029" on="0"/>
        <pt x="294" y="922" on="1"/>
      </contour>
    </TTGlyph>
    <TTGlyph name="at" xMin="114" yMin="-453" xMax="1671" yMax="1366">
      <contour>
        <pt x="1214" y="221" on="1"/>
        <pt x="1275" y="199" on="0"/>
        <pt x="1398" y="199" on="1"/>
        <pt x="1460" y="376" on="0"/>
        <pt x="1460" y="629" on="1"/>
        <pt x="1460" y="819" on="0"/>
        <pt x="1395" y="984" on="1"/>
        <pt x="1373" y="1040" on="0"/>
        <pt x="1345" y="1075" on="1"/>
        <pt x="1222" y="1128" on="0"/>
        <pt x="1046" y="1148" on="1"/>
        <pt x="989" y="1155" on="0"/>
        <pt x="886" y="1155" on="0"/>
        <pt x="761" y="1143" on="0"/>
        <pt x="696" y="1132" on="1"/>
        <pt x="549" y="1105" on="0"/>
        <pt x="461" y="1063" on="1"/>
        <pt x="397" y="971" on="0"/>
        <pt x="359" y="716" on="1"/>
        <pt x="342" y="603" on="0"/>
        <pt x="342" y="454" on="0"/>
        <pt x="351" y="302" on="0"/>
        <pt x="362" y="225" on="1"/>
        <pt x="386" y="43" on="0"/>
        <pt x="432" y="-31" on="1"/>
        <pt x="586" y="-133" on="0"/>
        <pt x="1020" y="-216" on="1"/>
        <pt x="1089" y="-229" on="0"/>
        <pt x="1151" y="-238" on="1"/>
        <pt x="1108" y="-453" on="1"/>
        <pt x="707" y="-394" on="0"/>
        <pt x="382" y="-241" on="1"/>
        <pt x="314" y="-209" on="0"/>
        <pt x="258" y="-174" on="1"/>
        <pt x="198" y="-92" on="0"/>
        <pt x="154" y="119" on="1"/>
        <pt x="114" y="314" on="0"/>
        <pt x="114" y="615" on="0"/>
        <pt x="132" y="786" on="0"/>
        <pt x="148" y="854" on="1"/>
        <pt x="179" y="976" on="0"/>
        <pt x="287" y="1155" on="0"/>
        <pt x="440" y="1265" on="0"/>
        <pt x="533" y="1300" on="1"/>
        <pt x="712" y="1366" on="0"/>
        <pt x="930" y="1366" on="1"/>
        <pt x="1174" y="1366" on="0"/>
        <pt x="1374" y="1280" on="1"/>
        <pt x="1426" y="1257" on="0"/>
        <pt x="1456" y="1239" on="1"/>
        <pt x="1671" y="1109" on="0"/>
        <pt x="1671" y="621" on="1"/>
        <pt x="1671" y="372" on="0"/>
        <pt x="1574" y="166" on="1"/>
        <pt x="1532" y="76" on="0"/>
        <pt x="1460" y="2" on="1"/>
        <pt x="1432" y="-2" on="0"/>
        <pt x="1351" y="-2" on="0"/>
        <pt x="1238" y="17" on="0"/>
        <pt x="1186" y="33" on="1"/>
        <pt x="1073" y="68" on="0"/>
        <pt x="1026" y="115" on="1"/>
        <pt x="1022" y="176" on="1"/>
        <pt x="1016" y="770" on="1"/>
        <pt x="813" y="754" on="1"/>
        <pt x="772" y="672" on="0"/>
        <pt x="772" y="434" on="1"/>
        <pt x="772" y="291" on="0"/>
        <pt x="794" y="217" on="1"/>
        <pt x="973" y="186" on="1"/>
        <pt x="911" y="-27" on="1"/>
        <pt x="633" y="41" on="1"/>
        <pt x="608" y="48" on="0"/>
        <pt x="585" y="99" on="0"/>
        <pt x="573" y="144" on="1"/>
        <pt x="542" y="262" on="0"/>
        <pt x="542" y="409" on="1"/>
        <pt x="542" y="703" on="0"/>
        <pt x="614" y="887" on="1"/>
        <pt x="624" y="913" on="0"/>
        <pt x="641" y="944" on="0"/>
        <pt x="659" y="946" on="1"/>
        <pt x="940" y="981" on="1"/>
        <pt x="1028" y="891" on="1"/>
        <pt x="1071" y="987" on="1"/>
        <pt x="1241" y="987" on="1"/>
        <pt x="1233" y="594" on="1"/>
      </contour>
    </TTGlyph>
    <TTGlyph name="atilde" xMin="80" yMin="-72" xMax="840" yMax="1453">
      <contour>
        <pt x="117" y="1244" on="1"/>
        <pt x="157" y="1304" on="0"/>
        <pt x="209" y="1352" on="1"/>
        <pt x="305" y="1441" on="0"/>
        <pt x="372" y="1441" on="0"/>
        <pt x="441" y="1413" on="0"/>
        <pt x="474" y="1396" on="1"/>
        <pt x="533" y="1365" on="1"/>
        <pt x="560" y="1351" on="0"/>
        <pt x="574" y="1351" on="0"/>
        <pt x="583" y="1355" on="0"/>
        <pt x="613" y="1374" on="0"/>
        <pt x="642" y="1394" on="1"/>
        <pt x="725" y="1453" on="1"/>
        <pt x="801" y="1359" on="1"/>
        <pt x="757" y="1294" on="1"/>
        <pt x="643" y="1132" on="0"/>
        <pt x="558" y="1132" on="1"/>
        <pt x="516" y="1132" on="0"/>
        <pt x="403" y="1195" on="0"/>
        <pt x="355" y="1224" on="0"/>
        <pt x="345" y="1224" on="0"/>
        <pt x="336" y="1221" on="0"/>
        <pt x="320" y="1214" on="1"/>
        <pt x="181" y="1152" on="1"/>
      </contour>
      <contour>
        <pt x="795" y="-72" on="1"/>
        <pt x="383" y="-30" on="0"/>
        <pt x="149" y="53" on="1"/>
        <pt x="106" y="69" on="0"/>
        <pt x="92" y="237" on="1"/>
        <pt x="80" y="391" on="0"/>
        <pt x="118" y="504" on="1"/>
        <pt x="134" y="551" on="0"/>
        <pt x="156" y="556" on="1"/>
        <pt x="250" y="581" on="0"/>
        <pt x="354" y="592" on="1"/>
        <pt x="562" y="615" on="1"/>
        <pt x="558" y="756" on="1"/>
        <pt x="449" y="777" on="0"/>
        <pt x="234" y="802" on="0"/>
        <pt x="128" y="819" on="1"/>
        <pt x="181" y="1038" on="1"/>
        <pt x="350" y="1013" on="1"/>
        <pt x="582" y="979" on="0"/>
        <pt x="719" y="930" on="1"/>
        <pt x="785" y="906" on="0"/>
        <pt x="785" y="833" on="1"/>
        <pt x="789" y="285" on="1"/>
        <pt x="576" y="264" on="1"/>
        <pt x="570" y="435" on="1"/>
        <pt x="513" y="424" on="1"/>
        <pt x="417" y="408" on="0"/>
        <pt x="330" y="384" on="1"/>
        <pt x="319" y="331" on="0"/>
        <pt x="319" y="296" on="1"/>
        <pt x="319" y="245" on="0"/>
        <pt x="323" y="217" on="1"/>
        <pt x="464" y="185" on="0"/>
        <pt x="758" y="152" on="1"/>
        <pt x="840" y="143" on="1"/>
      </contour>
    </TTGlyph>
    <TTGlyph name="b" xMin="145" yMin="-27" xMax="889" yMax="1473">
      <contour>
        <pt x="145" y="1427" on="1"/>
        <pt x="387" y="1473" on="1"/>
        <pt x="391" y="752" on="1"/>
        <pt x="368" y="188" on="1"/>
        <pt x="378" y="187" on="0"/>
        <pt x="388" y="187" on="1"/>
        <pt x="408" y="187" on="1"/>
        <pt x="515" y="187" on="0"/>
        <pt x="585" y="211" on="1"/>
        <pt x="645" y="430" on="0"/>
        <pt x="645" y="656" on="1"/>
        <pt x="645" y="726" on="0"/>
        <pt x="639" y="766" on="1"/>
        <pt x="620" y="772" on="0"/>
        <pt x="590" y="778" on="1"/>
        <pt x="532" y="788" on="1"/>
        <pt x="461" y="799" on="1"/>
        <pt x="512" y="1022" on="1"/>
        <pt x="713" y="990" on="0"/>
        <pt x="844" y="948" on="0"/>
        <pt x="876" y="903" on="0"/>
        <pt x="881" y="870" on="1"/>
        <pt x="889" y="816" on="0"/>
        <pt x="889" y="729" on="1"/>
        <pt x="889" y="460" on="0"/>
        <pt x="835" y="189" on="0"/>
        <pt x="793" y="59" on="0"/>
        <pt x="782" y="42" on="1"/>
        <pt x="760" y="5" on="0"/>
        <pt x="559" y="-16" on="1"/>
        <pt x="460" y="-27" on="0"/>
        <pt x="381" y="-27" on="1"/>
        <pt x="242" y="-27" on="0"/>
        <pt x="148" y="-20" on="1"/>
      </contour>
    </TTGlyph>
    <TTGlyph name="backslash" xMin="30" yMin="-174" xMax="737" yMax="1417">
      <contour>
        <pt x="30" y="1333" on="1"/>
        <pt x="237" y="1417" on="1"/>
        <pt x="737" y="-119" on="1"/>
        <pt x="555" y="-174" on="1"/>
      </contour>
    </TTGlyph>
    <TTGlyph name="bar" xMin="211" yMin="-604" xMax="426" yMax="1513">
      <contour>
        <pt x="211" y="1468" on="1"/>
        <pt x="426" y="1513" on="1"/>
        <pt x="426" y="752" on="1"/>
        <pt x="395" y="-588" on="1"/>
        <pt x="215" y="-604" on="1"/>
      </contour>
    </TTGlyph>
    <TTGlyph name="braceleft" xMin="112" yMin="-485" xMax="643" yMax="1616">
      <contour>
        <pt x="276" y="362" on="1"/>
        <pt x="274" y="385" on="1"/>
        <pt x="112" y="530" on="1"/>
        <pt x="137" y="657" on="1"/>
        <pt x="291" y="750" on="1"/>
        <pt x="291" y="853" on="0"/>
        <pt x="256" y="1010" on="1"/>
        <pt x="208" y="1223" on="1"/>
        <pt x="180" y="1351" on="0"/>
        <pt x="180" y="1388" on="1"/>
        <pt x="180" y="1470" on="0"/>
        <pt x="237" y="1491" on="1"/>
        <pt x="518" y="1616" on="1"/>
        <pt x="606" y="1421" on="1"/>
        <pt x="508" y="1383" on="1"/>
        <pt x="473" y="1370" on="0"/>
        <pt x="457" y="1363" on="1"/>
        <pt x="436" y="1354" on="1"/>
        <pt x="436" y="1339" on="0"/>
        <pt x="442" y="1301" on="1"/>
        <pt x="475" y="1102" on="1"/>
        <pt x="514" y="869" on="0"/>
        <pt x="514" y="755" on="0"/>
        <pt x="512" y="715" on="0"/>
        <pt x="507" y="698" on="1"/>
        <pt x="496" y="664" on="0"/>
        <pt x="463" y="645" on="1"/>
        <pt x="352" y="584" on="1"/>
        <pt x="352" y="567" on="1"/>
        <pt x="458" y="498" on="1"/>
        <pt x="504" y="468" on="0"/>
        <pt x="504" y="300" on="0"/>
        <pt x="485" y="151" on="0"/>
        <pt x="473" y="74" on="1"/>
        <pt x="442" y="-125" on="0"/>
        <pt x="442" y="-238" on="1"/>
        <pt x="643" y="-279" on="1"/>
        <pt x="587" y="-485" on="1"/>
        <pt x="284" y="-416" on="1"/>
        <pt x="209" y="-386" on="0"/>
        <pt x="198" y="-314" on="1"/>
        <pt x="194" y="-291" on="0"/>
        <pt x="194" y="-246" on="0"/>
        <pt x="206" y="-154" on="0"/>
        <pt x="215" y="-94" on="1"/>
        <pt x="235" y="33" on="1"/>
        <pt x="276" y="286" on="0"/>
      </contour>
    </TTGlyph>
    <TTGlyph name="braceright" xMin="23" yMin="-486" xMax="554" yMax="1615">
      <contour>
        <pt x="390" y="768" on="1"/>
        <pt x="392" y="745" on="1"/>
        <pt x="554" y="600" on="1"/>
        <pt x="529" y="473" on="1"/>
        <pt x="375" y="380" on="1"/>
        <pt x="375" y="277" on="0"/>
        <pt x="410" y="120" on="1"/>
        <pt x="458" y="-93" on="1"/>
        <pt x="486" y="-221" on="0"/>
        <pt x="486" y="-258" on="1"/>
        <pt x="486" y="-340" on="0"/>
        <pt x="429" y="-361" on="1"/>
        <pt x="148" y="-486" on="1"/>
        <pt x="60" y="-291" on="1"/>
        <pt x="158" y="-254" on="1"/>
        <pt x="193" y="-240" on="0"/>
        <pt x="209" y="-233" on="1"/>
        <pt x="230" y="-224" on="1"/>
        <pt x="230" y="-209" on="0"/>
        <pt x="224" y="-171" on="1"/>
        <pt x="191" y="28" on="1"/>
        <pt x="152" y="261" on="0"/>
        <pt x="152" y="375" on="0"/>
        <pt x="154" y="415" on="0"/>
        <pt x="159" y="432" on="1"/>
        <pt x="170" y="466" on="0"/>
        <pt x="203" y="485" on="1"/>
        <pt x="314" y="546" on="1"/>
        <pt x="314" y="563" on="1"/>
        <pt x="208" y="632" on="1"/>
        <pt x="162" y="662" on="0"/>
        <pt x="162" y="830" on="0"/>
        <pt x="181" y="979" on="0"/>
        <pt x="193" y="1056" on="1"/>
        <pt x="224" y="1255" on="0"/>
        <pt x="224" y="1368" on="1"/>
        <pt x="23" y="1409" on="1"/>
        <pt x="79" y="1615" on="1"/>
        <pt x="382" y="1546" on="1"/>
        <pt x="457" y="1516" on="0"/>
        <pt x="468" y="1444" on="1"/>
        <pt x="472" y="1421" on="0"/>
        <pt x="472" y="1376" on="0"/>
        <pt x="460" y="1284" on="0"/>
        <pt x="451" y="1224" on="1"/>
        <pt x="431" y="1097" on="1"/>
        <pt x="390" y="844" on="0"/>
      </contour>
    </TTGlyph>
    <TTGlyph name="bracketleft" xMin="180" yMin="-485" xMax="618" yMax="1612">
      <contour>
        <pt x="215" y="-403" on="1"/>
        <pt x="184" y="393" on="0"/>
        <pt x="180" y="1544" on="1"/>
        <pt x="569" y="1612" on="1"/>
        <pt x="598" y="1395" on="1"/>
        <pt x="422" y="1378" on="1"/>
        <pt x="401" y="625" on="1"/>
        <pt x="422" y="-240" on="1"/>
        <pt x="618" y="-266" on="1"/>
        <pt x="567" y="-485" on="1"/>
      </contour>
    </TTGlyph>
    <TTGlyph name="bracketright" xMin="39" yMin="-481" xMax="459" yMax="1614">
      <contour>
        <pt x="239" y="-252" on="1"/>
        <pt x="250" y="502" on="1"/>
        <pt x="239" y="1366" on="1"/>
        <pt x="39" y="1397" on="1"/>
        <pt x="94" y="1614" on="1"/>
        <pt x="452" y="1526" on="1"/>
        <pt x="459" y="1152" on="0"/>
        <pt x="459" y="778" on="1"/>
        <pt x="459" y="219" on="0"/>
        <pt x="450" y="-422" on="1"/>
        <pt x="69" y="-481" on="1"/>
        <pt x="45" y="-264" on="1"/>
      </contour>
    </TTGlyph>
    <TTGlyph name="brokenbar" xMin="213" yMin="-604" xMax="430" yMax="1513">
      <contour>
        <pt x="213" y="1468" on="1"/>
        <pt x="426" y="1513" on="1"/>
        <pt x="430" y="989" on="1"/>
        <pt x="415" y="680" on="1"/>
        <pt x="215" y="645" on="1"/>
      </contour>
      <contour>
        <pt x="422" y="270" on="1"/>
        <pt x="399" y="-588" on="1"/>
        <pt x="217" y="-604" on="1"/>
        <pt x="215" y="236" on="1"/>
      </contour>
    </TTGlyph>
    <TTGlyph name="bullet" xMin="193" yMin="395" xMax="536" yMax="800">
      <contour>
        <pt x="193" y="423" on="1"/>
        <pt x="203" y="549" on="0"/>
        <pt x="203" y="735" on="0"/>
        <pt x="201" y="769" on="1"/>
        <pt x="522" y="800" on="1"/>
        <pt x="536" y="751" on="0"/>
        <pt x="536" y="615" on="0"/>
        <pt x="530" y="533" on="0"/>
        <pt x="526" y="498" on="1"/>
        <pt x="516" y="423" on="0"/>
        <pt x="501" y="395" on="1"/>
      </contour>
    </TTGlyph>
    <TTGlyph name="c" xMin="116" yMin="-63" xMax="753" yMax="1024">
      <contour>
        <pt x="200" y="47" on="1"/>
        <pt x="145" y="65" on="0"/>
        <pt x="136" y="130" on="1"/>
        <pt x="116" y="268" on="0"/>
        <pt x="116" y="497" on="0"/>
        <pt x="121" y="608" on="0"/>
        <pt x="126" y="660" on="1"/>
        <pt x="144" y="877" on="0"/>
        <pt x="175" y="914" on="1"/>
        <pt x="191" y="934" on="0"/>
        <pt x="264" y="955" on="0"/>
        <pt x="387" y="978" on="0"/>
        <pt x="524" y="999" on="0"/>
        <pt x="657" y="1017" on="0"/>
        <pt x="704" y="1024" on="1"/>
        <pt x="739" y="799" on="1"/>
        <pt x="662" y="791" on="1"/>
        <pt x="448" y="769" on="0"/>
        <pt x="389" y="754" on="1"/>
        <pt x="373" y="692" on="0"/>
        <pt x="361" y="468" on="0"/>
        <pt x="361" y="416" on="1"/>
        <pt x="361" y="287" on="0"/>
        <pt x="371" y="223" on="1"/>
        <pt x="753" y="152" on="1"/>
        <pt x="694" y="-63" on="1"/>
        <pt x="612" y="-50" on="0"/>
        <pt x="540" y="-35" on="1"/>
        <pt x="419" y="-10" on="1"/>
        <pt x="255" y="26" on="0"/>
      </contour>
    </TTGlyph>
    <TTGlyph name="caron" xMin="18" yMin="1124" xMax="661" yMax="1525">
      <contour>
        <pt x="352" y="1343" on="1"/>
        <pt x="452" y="1451" on="0"/>
        <pt x="555" y="1525" on="1"/>
        <pt x="661" y="1429" on="1"/>
        <pt x="432" y="1142" on="1"/>
        <pt x="250" y="1124" on="1"/>
        <pt x="18" y="1429" on="1"/>
        <pt x="143" y="1525" on="1"/>
        <pt x="262" y="1426" on="0"/>
        <pt x="291" y="1400" on="1"/>
      </contour>
    </TTGlyph>
    <TTGlyph name="caron.cap" xMin="4" yMin="1429" xMax="667" yMax="1820">
      <contour>
        <pt x="348" y="1638" on="1"/>
        <pt x="429" y="1725" on="0"/>
        <pt x="561" y="1820" on="1"/>
        <pt x="667" y="1724" on="1"/>
        <pt x="428" y="1447" on="1"/>
        <pt x="246" y="1429" on="1"/>
        <pt x="4" y="1724" on="1"/>
        <pt x="129" y="1820" on="1"/>
        <pt x="236" y="1736" on="1"/>
        <pt x="262" y="1715" on="0"/>
        <pt x="289" y="1692" on="1"/>
      </contour>
    </TTGlyph>
    <TTGlyph name="ccedilla" xMin="116" yMin="-542" xMax="753" yMax="1024">
      <component glyphName="c" x="0" y="0" flags="0x1204"/>
      <component glyphName="cedilla" x="168" y="0" flags="0x1004"/>
    </TTGlyph>
    <TTGlyph name="cedilla" xMin="98" yMin="-542" xMax="469" yMax="64">
      <contour>
        <pt x="280" y="-274" on="1"/>
        <pt x="207" y="-252" on="0"/>
        <pt x="100" y="-233" on="1"/>
        <pt x="182" y="43" on="1"/>
        <pt x="323" y="64" on="1"/>
        <pt x="291" y="-112" on="1"/>
        <pt x="341" y="-125" on="0"/>
        <pt x="373" y="-135" on="1"/>
        <pt x="420" y="-152" on="1"/>
        <pt x="450" y="-162" on="0"/>
        <pt x="462" y="-180" on="0"/>
        <pt x="465" y="-190" on="1"/>
        <pt x="469" y="-202" on="0"/>
        <pt x="469" y="-246" on="0"/>
        <pt x="460" y="-308" on="0"/>
        <pt x="453" y="-338" on="1"/>
        <pt x="437" y="-409" on="0"/>
        <pt x="410" y="-449" on="0"/>
        <pt x="336" y="-482" on="0"/>
        <pt x="292" y="-498" on="1"/>
        <pt x="216" y="-524" on="0"/>
        <pt x="143" y="-542" on="1"/>
        <pt x="98" y="-385" on="1"/>
        <pt x="154" y="-369" on="0"/>
        <pt x="194" y="-356" on="1"/>
        <pt x="274" y="-332" on="1"/>
      </contour>
    </TTGlyph>
    <TTGlyph name="cent" xMin="116" yMin="-273" xMax="766" yMax="1284">
      <contour>
        <pt x="200" y="47" on="1"/>
        <pt x="147" y="65" on="0"/>
        <pt x="137" y="130" on="1"/>
        <pt x="116" y="275" on="0"/>
        <pt x="116" y="367" on="1"/>
        <pt x="116" y="482" on="0"/>
        <pt x="118" y="548" on="1"/>
        <pt x="123" y="707" on="0"/>
        <pt x="153" y="868" on="1"/>
        <pt x="159" y="922" on="0"/>
        <pt x="198" y="935" on="1"/>
        <pt x="266" y="958" on="0"/>
        <pt x="401" y="978" on="1"/>
        <pt x="418" y="1278" on="1"/>
        <pt x="612" y="1284" on="1"/>
        <pt x="573" y="1003" on="1"/>
        <pt x="661" y="1014" on="1"/>
        <pt x="702" y="1019" on="0"/>
        <pt x="732" y="1024" on="1"/>
        <pt x="766" y="805" on="1"/>
        <pt x="646" y="792" on="0"/>
        <pt x="589" y="784" on="1"/>
        <pt x="498" y="771" on="1"/>
        <pt x="419" y="760" on="0"/>
        <pt x="389" y="752" on="1"/>
        <pt x="364" y="594" on="0"/>
        <pt x="364" y="477" on="1"/>
        <pt x="364" y="295" on="0"/>
        <pt x="374" y="229" on="1"/>
        <pt x="618" y="174" on="0"/>
        <pt x="753" y="147" on="1"/>
        <pt x="694" y="-63" on="1"/>
        <pt x="566" y="-40" on="0"/>
        <pt x="497" y="-26" on="1"/>
        <pt x="481" y="-273" on="1"/>
        <pt x="296" y="-257" on="1"/>
        <pt x="330" y="8" on="1"/>
        <pt x="337" y="8" on="1"/>
        <pt x="234" y="33" on="0"/>
      </contour>
    </TTGlyph>
    <TTGlyph name="circumflex" xMin="26" yMin="1134" xMax="671" yMax="1535">
      <contour>
        <pt x="338" y="1316" on="1"/>
        <pt x="238" y="1208" on="0"/>
        <pt x="135" y="1134" on="1"/>
        <pt x="26" y="1232" on="1"/>
        <pt x="250" y="1529" on="1"/>
        <pt x="440" y="1535" on="1"/>
        <pt x="671" y="1230" on="1"/>
        <pt x="547" y="1134" on="1"/>
        <pt x="429" y="1232" on="0"/>
        <pt x="399" y="1259" on="1"/>
      </contour>
    </TTGlyph>
    <TTGlyph name="circumflex.cap" xMin="20" yMin="1419" xMax="665" yMax="1820">
      <contour>
        <pt x="332" y="1601" on="1"/>
        <pt x="232" y="1493" on="0"/>
        <pt x="129" y="1419" on="1"/>
        <pt x="20" y="1517" on="1"/>
        <pt x="244" y="1814" on="1"/>
        <pt x="434" y="1820" on="1"/>
        <pt x="665" y="1515" on="1"/>
        <pt x="541" y="1419" on="1"/>
        <pt x="423" y="1517" on="0"/>
        <pt x="393" y="1544" on="1"/>
      </contour>
    </TTGlyph>
    <TTGlyph name="colon" xMin="116" yMin="-45" xMax="394" yMax="1042">
      <contour>
        <pt x="370" y="1042" on="1"/>
        <pt x="394" y="962" on="0"/>
        <pt x="394" y="808" on="0"/>
        <pt x="381" y="737" on="1"/>
        <pt x="135" y="743" on="1"/>
        <pt x="116" y="1012" on="1"/>
      </contour>
      <contour>
        <pt x="393" y="162" on="1"/>
        <pt x="393" y="12" on="0"/>
        <pt x="362" y="-45" on="1"/>
        <pt x="123" y="-23" on="1"/>
        <pt x="133" y="85" on="0"/>
        <pt x="133" y="220" on="0"/>
        <pt x="131" y="250" on="1"/>
        <pt x="381" y="276" on="1"/>
        <pt x="393" y="237" on="0"/>
      </contour>
    </TTGlyph>
    <TTGlyph name="comma" xMin="94" yMin="-332" xMax="398" yMax="270">
      <contour>
        <pt x="370" y="270" on="1"/>
        <pt x="398" y="210" on="0"/>
        <pt x="398" y="39" on="0"/>
        <pt x="380" y="-73" on="0"/>
        <pt x="361" y="-124" on="1"/>
        <pt x="327" y="-213" on="0"/>
        <pt x="241" y="-332" on="1"/>
        <pt x="96" y="-322" on="1"/>
        <pt x="162" y="-208" on="0"/>
        <pt x="186" y="-83" on="1"/>
        <pt x="194" y="-44" on="0"/>
        <pt x="194" y="-12" on="1"/>
        <pt x="116" y="-4" on="1"/>
        <pt x="94" y="236" on="1"/>
      </contour>
    </TTGlyph>
    <TTGlyph name="commaaccent" xMin="39" yMin="31" xMax="324" yMax="516">
      <contour>
        <pt x="324" y="365" on="1"/>
        <pt x="324" y="174" on="0"/>
        <pt x="213" y="31" on="1"/>
        <pt x="84" y="41" on="1"/>
        <pt x="127" y="153" on="0"/>
        <pt x="131" y="260" on="1"/>
        <pt x="57" y="270" on="1"/>
        <pt x="39" y="459" on="1"/>
        <pt x="297" y="516" on="1"/>
        <pt x="324" y="444" on="0"/>
      </contour>
    </TTGlyph>
    <TTGlyph name="copyright" xMin="192" yMin="-53" xMax="1513" yMax="1303">
      <contour>
        <pt x="323" y="123" on="1"/>
        <pt x="238" y="241" on="0"/>
        <pt x="202" y="498" on="1"/>
        <pt x="192" y="566" on="0"/>
        <pt x="192" y="670" on="0"/>
        <pt x="197" y="793" on="0"/>
        <pt x="205" y="852" on="1"/>
        <pt x="223" y="988" on="0"/>
        <pt x="262" y="1052" on="1"/>
        <pt x="352" y="1200" on="0"/>
        <pt x="530" y="1250" on="1"/>
        <pt x="722" y="1303" on="0"/>
        <pt x="917" y="1303" on="1"/>
        <pt x="1094" y="1303" on="0"/>
        <pt x="1247" y="1246" on="1"/>
        <pt x="1348" y="1208" on="0"/>
        <pt x="1441" y="1090" on="0"/>
        <pt x="1465" y="1025" on="1"/>
        <pt x="1513" y="895" on="0"/>
        <pt x="1513" y="678" on="1"/>
        <pt x="1513" y="522" on="0"/>
        <pt x="1447" y="304" on="1"/>
        <pt x="1407" y="170" on="0"/>
        <pt x="1324" y="39" on="0"/>
        <pt x="1270" y="-2" on="0"/>
        <pt x="1186" y="-28" on="0"/>
        <pt x="1138" y="-36" on="1"/>
        <pt x="1060" y="-50" on="0"/>
        <pt x="835" y="-53" on="0"/>
        <pt x="643" y="-21" on="0"/>
        <pt x="564" y="4" on="1"/>
        <pt x="413" y="53" on="0"/>
      </contour>
      <contour>
        <pt x="396" y="681" on="1"/>
        <pt x="396" y="406" on="0"/>
        <pt x="479" y="256" on="1"/>
        <pt x="579" y="174" on="0"/>
        <pt x="816" y="147" on="1"/>
        <pt x="886" y="139" on="0"/>
        <pt x="953" y="139" on="1"/>
        <pt x="1095" y="139" on="0"/>
        <pt x="1177" y="174" on="1"/>
        <pt x="1266" y="302" on="0"/>
        <pt x="1294" y="526" on="1"/>
        <pt x="1304" y="601" on="0"/>
        <pt x="1304" y="724" on="0"/>
        <pt x="1296" y="823" on="0"/>
        <pt x="1286" y="872" on="1"/>
        <pt x="1264" y="981" on="0"/>
        <pt x="1216" y="1040" on="1"/>
        <pt x="1128" y="1079" on="0"/>
        <pt x="970" y="1091" on="1"/>
        <pt x="930" y="1094" on="0"/>
        <pt x="858" y="1094" on="0"/>
        <pt x="744" y="1084" on="0"/>
        <pt x="684" y="1074" on="1"/>
        <pt x="544" y="1049" on="0"/>
        <pt x="467" y="1012" on="1"/>
        <pt x="415" y="937" on="0"/>
        <pt x="400" y="762" on="1"/>
        <pt x="396" y="717" on="0"/>
      </contour>
      <contour>
        <pt x="630" y="412" on="1"/>
        <pt x="620" y="499" on="0"/>
        <pt x="620" y="630" on="0"/>
        <pt x="623" y="680" on="0"/>
        <pt x="626" y="710" on="1"/>
        <pt x="636" y="832" on="0"/>
        <pt x="653" y="877" on="0"/>
        <pt x="660" y="885" on="1"/>
        <pt x="671" y="898" on="0"/>
        <pt x="698" y="909" on="1"/>
        <pt x="855" y="944" on="0"/>
        <pt x="1040" y="965" on="1"/>
        <pt x="1065" y="793" on="1"/>
        <pt x="938" y="780" on="1"/>
        <pt x="856" y="771" on="0"/>
        <pt x="819" y="762" on="1"/>
        <pt x="805" y="690" on="0"/>
        <pt x="805" y="640" on="1"/>
        <pt x="805" y="571" on="1"/>
        <pt x="805" y="514" on="0"/>
        <pt x="809" y="492" on="1"/>
        <pt x="1071" y="432" on="1"/>
        <pt x="1030" y="270" on="1"/>
        <pt x="990" y="276" on="0"/>
        <pt x="938" y="286" on="1"/>
        <pt x="834" y="308" on="1"/>
        <pt x="670" y="344" on="0"/>
        <pt x="646" y="372" on="1"/>
        <pt x="635" y="386" on="0"/>
      </contour>
    </TTGlyph>
    <TTGlyph name="currency" xMin="73" yMin="-18" xMax="995" yMax="1004">
      <contour>
        <pt x="683" y="189" on="1"/>
        <pt x="642" y="180" on="0"/>
        <pt x="464" y="180" on="0"/>
        <pt x="375" y="211" on="1"/>
        <pt x="316" y="133" on="0"/>
        <pt x="293" y="105" on="1"/>
        <pt x="252" y="56" on="1"/>
        <pt x="233" y="35" on="0"/>
        <pt x="219" y="23" on="1"/>
        <pt x="78" y="137" on="1"/>
        <pt x="252" y="310" on="1"/>
        <pt x="209" y="420" on="0"/>
        <pt x="209" y="639" on="0"/>
        <pt x="231" y="701" on="1"/>
        <pt x="231" y="701" on="0"/>
        <pt x="138" y="798" on="1"/>
        <pt x="89" y="853" on="0"/>
        <pt x="73" y="879" on="1"/>
        <pt x="207" y="1004" on="1"/>
        <pt x="351" y="806" on="1"/>
        <pt x="436" y="840" on="0"/>
        <pt x="640" y="840" on="0"/>
        <pt x="711" y="817" on="1"/>
        <pt x="820" y="963" on="0"/>
        <pt x="862" y="999" on="1"/>
        <pt x="995" y="885" on="1"/>
        <pt x="830" y="716" on="1"/>
        <pt x="860" y="651" on="0"/>
        <pt x="860" y="541" on="1"/>
        <pt x="860" y="417" on="0"/>
        <pt x="801" y="290" on="1"/>
        <pt x="896" y="191" on="1"/>
        <pt x="945" y="138" on="0"/>
        <pt x="962" y="109" on="1"/>
        <pt x="831" y="-18" on="1"/>
      </contour>
      <contour>
        <pt x="567" y="350" on="1"/>
        <pt x="617" y="350" on="0"/>
        <pt x="639" y="360" on="1"/>
        <pt x="684" y="430" on="0"/>
        <pt x="684" y="532" on="1"/>
        <pt x="684" y="607" on="0"/>
        <pt x="651" y="645" on="1"/>
        <pt x="616" y="659" on="0"/>
        <pt x="536" y="659" on="0"/>
        <pt x="497" y="657" on="0"/>
        <pt x="478" y="654" on="1"/>
        <pt x="432" y="647" on="0"/>
        <pt x="409" y="633" on="1"/>
        <pt x="383" y="604" on="0"/>
        <pt x="383" y="433" on="0"/>
        <pt x="449" y="350" on="0"/>
      </contour>
    </TTGlyph>
    <TTGlyph name="d" xMin="117" yMin="-72" xMax="906" yMax="1473">
      <contour>
        <pt x="195" y="49" on="1"/>
        <pt x="146" y="59" on="0"/>
        <pt x="135" y="136" on="1"/>
        <pt x="117" y="266" on="0"/>
        <pt x="117" y="412" on="1"/>
        <pt x="117" y="657" on="0"/>
        <pt x="158" y="872" on="1"/>
        <pt x="168" y="924" on="0"/>
        <pt x="208" y="938" on="1"/>
        <pt x="308" y="962" on="1"/>
        <pt x="469" y="1001" on="0"/>
        <pt x="619" y="1020" on="1"/>
        <pt x="619" y="1430" on="1"/>
        <pt x="851" y="1473" on="1"/>
        <pt x="857" y="1012" on="1"/>
        <pt x="836" y="309" on="1"/>
        <pt x="625" y="289" on="1"/>
        <pt x="617" y="803" on="1"/>
        <pt x="496" y="794" on="0"/>
        <pt x="390" y="754" on="1"/>
        <pt x="361" y="575" on="0"/>
        <pt x="361" y="458" on="1"/>
        <pt x="361" y="291" on="0"/>
        <pt x="369" y="233" on="1"/>
        <pt x="494" y="200" on="0"/>
        <pt x="841" y="154" on="0"/>
        <pt x="906" y="143" on="1"/>
        <pt x="844" y="-72" on="1"/>
        <pt x="456" y="-11" on="0"/>
        <pt x="275" y="27" on="0"/>
      </contour>
    </TTGlyph>
    <TTGlyph name="degree" xMin="43" yMin="729" xMax="645" yMax="1323">
      <contour>
        <pt x="533" y="784" on="0"/>
        <pt x="420" y="729" on="0"/>
        <pt x="275" y="729" on="0"/>
        <pt x="163" y="776" on="0"/>
        <pt x="124" y="820" on="1"/>
        <pt x="43" y="910" on="0"/>
        <pt x="43" y="1061" on="1"/>
        <pt x="43" y="1187" on="0"/>
        <pt x="130" y="1257" on="1"/>
        <pt x="214" y="1323" on="0"/>
        <pt x="352" y="1323" on="1"/>
        <pt x="551" y="1323" on="0"/>
        <pt x="621" y="1183" on="1"/>
        <pt x="645" y="1135" on="0"/>
        <pt x="645" y="1001" on="0"/>
        <pt x="608" y="877" on="0"/>
      </contour>
      <contour>
        <pt x="231" y="1049" on="1"/>
        <pt x="231" y="913" on="0"/>
        <pt x="338" y="913" on="1"/>
        <pt x="394" y="913" on="0"/>
        <pt x="415" y="932" on="1"/>
        <pt x="454" y="967" on="0"/>
        <pt x="454" y="1097" on="0"/>
        <pt x="398" y="1139" on="0"/>
        <pt x="325" y="1139" on="0"/>
        <pt x="284" y="1130" on="0"/>
        <pt x="268" y="1120" on="1"/>
        <pt x="231" y="1096" on="0"/>
      </contour>
    </TTGlyph>
    <TTGlyph name="dieresis" xMin="39" yMin="1142" xMax="664" yMax="1453">
      <contour>
        <pt x="256" y="1453" on="1"/>
        <pt x="291" y="1395" on="0"/>
        <pt x="291" y="1262" on="1"/>
        <pt x="291" y="1191" on="0"/>
        <pt x="278" y="1167" on="1"/>
        <pt x="80" y="1156" on="1"/>
        <pt x="63" y="1302" on="0"/>
        <pt x="39" y="1398" on="1"/>
      </contour>
      <contour>
        <pt x="649" y="1443" on="1"/>
        <pt x="664" y="1411" on="0"/>
        <pt x="664" y="1324" on="0"/>
        <pt x="655" y="1259" on="0"/>
        <pt x="648" y="1230" on="1"/>
        <pt x="635" y="1169" on="0"/>
        <pt x="616" y="1142" on="1"/>
        <pt x="413" y="1177" on="1"/>
        <pt x="431" y="1256" on="0"/>
        <pt x="431" y="1384" on="0"/>
        <pt x="426" y="1427" on="1"/>
      </contour>
    </TTGlyph>
    <TTGlyph name="dieresis.cap" xMin="18" yMin="1463" xMax="660" yMax="1774">
      <contour>
        <pt x="235" y="1774" on="1"/>
        <pt x="270" y="1716" on="0"/>
        <pt x="270" y="1581" on="1"/>
        <pt x="270" y="1510" on="0"/>
        <pt x="258" y="1488" on="1"/>
        <pt x="59" y="1477" on="1"/>
        <pt x="42" y="1623" on="0"/>
        <pt x="18" y="1719" on="1"/>
      </contour>
      <contour>
        <pt x="645" y="1764" on="1"/>
        <pt x="660" y="1732" on="0"/>
        <pt x="660" y="1645" on="0"/>
        <pt x="651" y="1580" on="0"/>
        <pt x="644" y="1551" on="1"/>
        <pt x="631" y="1490" on="0"/>
        <pt x="612" y="1463" on="1"/>
        <pt x="410" y="1498" on="1"/>
        <pt x="427" y="1572" on="0"/>
        <pt x="427" y="1706" on="0"/>
        <pt x="422" y="1748" on="1"/>
      </contour>
    </TTGlyph>
    <TTGlyph name="divide" xMin="67" yMin="-45" xMax="900" yMax="1087">
      <contour>
        <pt x="615" y="1087" on="1"/>
        <pt x="638" y="1006" on="0"/>
        <pt x="638" y="845" on="0"/>
        <pt x="625" y="782" on="1"/>
        <pt x="380" y="788" on="1"/>
        <pt x="361" y="1057" on="1"/>
      </contour>
      <contour>
        <pt x="95" y="612" on="1"/>
        <pt x="900" y="622" on="1"/>
        <pt x="890" y="434" on="1"/>
        <pt x="816" y="431" on="0"/>
        <pt x="695" y="424" on="0"/>
        <pt x="636" y="422" on="1"/>
        <pt x="481" y="415" on="0"/>
        <pt x="310" y="415" on="0"/>
        <pt x="242" y="416" on="0"/>
        <pt x="181" y="419" on="0"/>
        <pt x="148" y="421" on="1"/>
        <pt x="67" y="426" on="1"/>
      </contour>
      <contour>
        <pt x="638" y="159" on="1"/>
        <pt x="638" y="12" on="0"/>
        <pt x="607" y="-45" on="1"/>
        <pt x="367" y="-23" on="1"/>
        <pt x="378" y="96" on="0"/>
        <pt x="378" y="222" on="0"/>
        <pt x="376" y="250" on="1"/>
        <pt x="625" y="276" on="1"/>
        <pt x="638" y="231" on="0"/>
      </contour>
    </TTGlyph>
    <TTGlyph name="dollar" xMin="84" yMin="-273" xMax="747" yMax="1284">
      <contour>
        <pt x="287" y="-47" on="1"/>
        <pt x="193" y="-58" on="0"/>
        <pt x="112" y="-63" on="1"/>
        <pt x="84" y="160" on="1"/>
        <pt x="298" y="176" on="1"/>
        <pt x="397" y="183" on="0"/>
        <pt x="497" y="197" on="1"/>
        <pt x="504" y="319" on="1"/>
        <pt x="153" y="457" on="1"/>
        <pt x="122" y="469" on="0"/>
        <pt x="90" y="538" on="0"/>
        <pt x="90" y="578" on="0"/>
        <pt x="91" y="592" on="0"/>
        <pt x="94" y="615" on="1"/>
        <pt x="114" y="808" on="1"/>
        <pt x="124" y="888" on="0"/>
        <pt x="196" y="920" on="1"/>
        <pt x="235" y="938" on="0"/>
        <pt x="277" y="947" on="1"/>
        <pt x="370" y="968" on="1"/>
        <pt x="388" y="1278" on="1"/>
        <pt x="582" y="1284" on="1"/>
        <pt x="543" y="1002" on="1"/>
        <pt x="629" y="1019" on="1"/>
        <pt x="670" y="1027" on="0"/>
        <pt x="701" y="1032" on="1"/>
        <pt x="746" y="802" on="1"/>
        <pt x="327" y="752" on="1"/>
        <pt x="311" y="651" on="1"/>
        <pt x="680" y="479" on="1"/>
        <pt x="747" y="448" on="0"/>
        <pt x="737" y="360" on="1"/>
        <pt x="710" y="109" on="1"/>
        <pt x="701" y="32" on="0"/>
        <pt x="585" y="6" on="1"/>
        <pt x="535" y="-8" on="0"/>
        <pt x="462" y="-20" on="1"/>
        <pt x="445" y="-273" on="1"/>
        <pt x="260" y="-257" on="1"/>
      </contour>
    </TTGlyph>
    <TTGlyph name="dotlessi" xMin="166" yMin="-18" xMax="425" yMax="1001">
      <contour>
        <pt x="420" y="1001" on="1"/>
        <pt x="425" y="898" on="0"/>
        <pt x="425" y="758" on="0"/>
        <pt x="422" y="664" on="1"/>
        <pt x="399" y="0" on="1"/>
        <pt x="186" y="-18" on="1"/>
        <pt x="166" y="969" on="1"/>
      </contour>
    </TTGlyph>
    <TTGlyph name="e" xMin="118" yMin="-72" xMax="841" yMax="1012">
      <contour>
        <pt x="118" y="666" on="1"/>
        <pt x="118" y="800" on="0"/>
        <pt x="174" y="842" on="0"/>
        <pt x="244" y="885" on="0"/>
        <pt x="328" y="927" on="0"/>
        <pt x="419" y="965" on="0"/>
        <pt x="463" y="980" on="1"/>
        <pt x="557" y="1012" on="0"/>
        <pt x="650" y="1012" on="0"/>
        <pt x="708" y="1003" on="0"/>
        <pt x="732" y="993" on="1"/>
        <pt x="787" y="970" on="0"/>
        <pt x="794" y="926" on="1"/>
        <pt x="827" y="717" on="0"/>
        <pt x="827" y="428" on="1"/>
        <pt x="827" y="369" on="1"/>
        <pt x="348" y="363" on="1"/>
        <pt x="348" y="233" on="1"/>
        <pt x="426" y="214" on="0"/>
        <pt x="534" y="198" on="1"/>
        <pt x="706" y="170" on="1"/>
        <pt x="772" y="160" on="0"/>
        <pt x="841" y="147" on="1"/>
        <pt x="782" y="-72" on="1"/>
        <pt x="507" y="-29" on="0"/>
        <pt x="198" y="67" on="1"/>
        <pt x="127" y="90" on="0"/>
        <pt x="125" y="150" on="1"/>
      </contour>
      <contour>
        <pt x="602" y="584" on="1"/>
        <pt x="602" y="678" on="0"/>
        <pt x="583" y="782" on="1"/>
        <pt x="543" y="782" on="0"/>
        <pt x="495" y="774" on="0"/>
        <pt x="447" y="760" on="0"/>
        <pt x="422" y="751" on="1"/>
        <pt x="363" y="730" on="0"/>
        <pt x="344" y="715" on="1"/>
        <pt x="344" y="535" on="1"/>
        <pt x="602" y="563" on="1"/>
      </contour>
    </TTGlyph>
    <TTGlyph name="eacute" xMin="122" yMin="-72" xMax="845" yMax="1589">
      <contour>
        <pt x="235" y="1220" on="1"/>
        <pt x="524" y="1589" on="1"/>
        <pt x="698" y="1425" on="1"/>
        <pt x="649" y="1354" on="0"/>
        <pt x="551" y="1270" on="1"/>
        <pt x="418" y="1161" on="0"/>
        <pt x="343" y="1117" on="1"/>
      </contour>
      <contour>
        <pt x="122" y="666" on="1"/>
        <pt x="122" y="800" on="0"/>
        <pt x="177" y="842" on="0"/>
        <pt x="248" y="885" on="0"/>
        <pt x="332" y="927" on="0"/>
        <pt x="423" y="965" on="0"/>
        <pt x="467" y="980" on="1"/>
        <pt x="561" y="1012" on="0"/>
        <pt x="654" y="1012" on="0"/>
        <pt x="712" y="1003" on="0"/>
        <pt x="736" y="993" on="1"/>
        <pt x="791" y="970" on="0"/>
        <pt x="798" y="926" on="1"/>
        <pt x="831" y="717" on="0"/>
        <pt x="831" y="428" on="1"/>
        <pt x="831" y="369" on="1"/>
        <pt x="352" y="363" on="1"/>
        <pt x="352" y="233" on="1"/>
        <pt x="430" y="214" on="0"/>
        <pt x="538" y="198" on="1"/>
        <pt x="710" y="170" on="1"/>
        <pt x="776" y="160" on="0"/>
        <pt x="845" y="147" on="1"/>
        <pt x="786" y="-72" on="1"/>
        <pt x="511" y="-29" on="0"/>
        <pt x="202" y="67" on="1"/>
        <pt x="131" y="90" on="0"/>
        <pt x="129" y="150" on="1"/>
      </contour>
      <contour>
        <pt x="606" y="584" on="1"/>
        <pt x="606" y="678" on="0"/>
        <pt x="587" y="782" on="1"/>
        <pt x="547" y="782" on="0"/>
        <pt x="499" y="774" on="0"/>
        <pt x="451" y="760" on="0"/>
        <pt x="426" y="751" on="1"/>
        <pt x="367" y="730" on="0"/>
        <pt x="348" y="715" on="1"/>
        <pt x="348" y="535" on="1"/>
        <pt x="606" y="563" on="1"/>
      </contour>
    </TTGlyph>
    <TTGlyph name="ecircumflex" xMin="122" yMin="-72" xMax="845" yMax="1535">
      <contour>
        <pt x="465" y="1316" on="1"/>
        <pt x="365" y="1208" on="0"/>
        <pt x="262" y="1134" on="1"/>
        <pt x="153" y="1232" on="1"/>
        <pt x="377" y="1529" on="1"/>
        <pt x="567" y="1535" on="1"/>
        <pt x="798" y="1230" on="1"/>
        <pt x="674" y="1134" on="1"/>
        <pt x="556" y="1232" on="0"/>
        <pt x="526" y="1259" on="1"/>
      </contour>
      <contour>
        <pt x="122" y="666" on="1"/>
        <pt x="122" y="800" on="0"/>
        <pt x="177" y="842" on="0"/>
        <pt x="248" y="885" on="0"/>
        <pt x="332" y="927" on="0"/>
        <pt x="423" y="965" on="0"/>
        <pt x="467" y="980" on="1"/>
        <pt x="561" y="1012" on="0"/>
        <pt x="654" y="1012" on="0"/>
        <pt x="712" y="1003" on="0"/>
        <pt x="736" y="993" on="1"/>
        <pt x="791" y="970" on="0"/>
        <pt x="798" y="926" on="1"/>
        <pt x="831" y="717" on="0"/>
        <pt x="831" y="428" on="1"/>
        <pt x="831" y="369" on="1"/>
        <pt x="352" y="363" on="1"/>
        <pt x="352" y="233" on="1"/>
        <pt x="430" y="214" on="0"/>
        <pt x="538" y="198" on="1"/>
        <pt x="710" y="170" on="1"/>
        <pt x="776" y="160" on="0"/>
        <pt x="845" y="147" on="1"/>
        <pt x="786" y="-72" on="1"/>
        <pt x="511" y="-29" on="0"/>
        <pt x="202" y="67" on="1"/>
        <pt x="131" y="90" on="0"/>
        <pt x="129" y="150" on="1"/>
      </contour>
      <contour>
        <pt x="606" y="584" on="1"/>
        <pt x="606" y="678" on="0"/>
        <pt x="587" y="782" on="1"/>
        <pt x="547" y="782" on="0"/>
        <pt x="499" y="774" on="0"/>
        <pt x="451" y="760" on="0"/>
        <pt x="426" y="751" on="1"/>
        <pt x="367" y="730" on="0"/>
        <pt x="348" y="715" on="1"/>
        <pt x="348" y="535" on="1"/>
        <pt x="606" y="563" on="1"/>
      </contour>
    </TTGlyph>
    <TTGlyph name="edieresis" xMin="122" yMin="-72" xMax="845" yMax="1453">
      <contour>
        <pt x="362" y="1453" on="1"/>
        <pt x="397" y="1395" on="0"/>
        <pt x="397" y="1262" on="1"/>
        <pt x="397" y="1191" on="0"/>
        <pt x="384" y="1167" on="1"/>
        <pt x="186" y="1156" on="1"/>
        <pt x="169" y="1302" on="0"/>
        <pt x="145" y="1398" on="1"/>
      </contour>
      <contour>
        <pt x="755" y="1443" on="1"/>
        <pt x="770" y="1411" on="0"/>
        <pt x="770" y="1324" on="0"/>
        <pt x="761" y="1259" on="0"/>
        <pt x="754" y="1230" on="1"/>
        <pt x="741" y="1169" on="0"/>
        <pt x="722" y="1142" on="1"/>
        <pt x="519" y="1177" on="1"/>
        <pt x="537" y="1256" on="0"/>
        <pt x="537" y="1384" on="0"/>
        <pt x="532" y="1427" on="1"/>
      </contour>
      <contour>
        <pt x="122" y="666" on="1"/>
        <pt x="122" y="800" on="0"/>
        <pt x="177" y="842" on="0"/>
        <pt x="248" y="885" on="0"/>
        <pt x="332" y="927" on="0"/>
        <pt x="423" y="965" on="0"/>
        <pt x="467" y="980" on="1"/>
        <pt x="561" y="1012" on="0"/>
        <pt x="654" y="1012" on="0"/>
        <pt x="712" y="1003" on="0"/>
        <pt x="736" y="993" on="1"/>
        <pt x="791" y="970" on="0"/>
        <pt x="798" y="926" on="1"/>
        <pt x="831" y="717" on="0"/>
        <pt x="831" y="428" on="1"/>
        <pt x="831" y="369" on="1"/>
        <pt x="352" y="363" on="1"/>
        <pt x="352" y="233" on="1"/>
        <pt x="430" y="214" on="0"/>
        <pt x="538" y="198" on="1"/>
        <pt x="710" y="170" on="1"/>
        <pt x="776" y="160" on="0"/>
        <pt x="845" y="147" on="1"/>
        <pt x="786" y="-72" on="1"/>
        <pt x="511" y="-29" on="0"/>
        <pt x="202" y="67" on="1"/>
        <pt x="131" y="90" on="0"/>
        <pt x="129" y="150" on="1"/>
      </contour>
      <contour>
        <pt x="606" y="584" on="1"/>
        <pt x="606" y="678" on="0"/>
        <pt x="587" y="782" on="1"/>
        <pt x="547" y="782" on="0"/>
        <pt x="499" y="774" on="0"/>
        <pt x="451" y="760" on="0"/>
        <pt x="426" y="751" on="1"/>
        <pt x="367" y="730" on="0"/>
        <pt x="348" y="715" on="1"/>
        <pt x="348" y="535" on="1"/>
        <pt x="606" y="563" on="1"/>
      </contour>
    </TTGlyph>
    <TTGlyph name="egrave" xMin="122" yMin="-72" xMax="845" yMax="1591">
      <contour>
        <pt x="530" y="1117" on="1"/>
        <pt x="482" y="1145" on="0"/>
        <pt x="445" y="1173" on="1"/>
        <pt x="290" y="1294" on="0"/>
        <pt x="245" y="1344" on="1"/>
        <pt x="177" y="1419" on="0"/>
        <pt x="157" y="1455" on="1"/>
        <pt x="352" y="1591" on="1"/>
        <pt x="639" y="1220" on="1"/>
      </contour>
      <contour>
        <pt x="122" y="666" on="1"/>
        <pt x="122" y="800" on="0"/>
        <pt x="177" y="842" on="0"/>
        <pt x="248" y="885" on="0"/>
        <pt x="332" y="927" on="0"/>
        <pt x="423" y="965" on="0"/>
        <pt x="467" y="980" on="1"/>
        <pt x="561" y="1012" on="0"/>
        <pt x="654" y="1012" on="0"/>
        <pt x="712" y="1003" on="0"/>
        <pt x="736" y="993" on="1"/>
        <pt x="791" y="970" on="0"/>
        <pt x="798" y="926" on="1"/>
        <pt x="831" y="717" on="0"/>
        <pt x="831" y="428" on="1"/>
        <pt x="831" y="369" on="1"/>
        <pt x="352" y="363" on="1"/>
        <pt x="352" y="233" on="1"/>
        <pt x="430" y="214" on="0"/>
        <pt x="538" y="198" on="1"/>
        <pt x="710" y="170" on="1"/>
        <pt x="776" y="160" on="0"/>
        <pt x="845" y="147" on="1"/>
        <pt x="786" y="-72" on="1"/>
        <pt x="511" y="-29" on="0"/>
        <pt x="202" y="67" on="1"/>
        <pt x="131" y="90" on="0"/>
        <pt x="129" y="150" on="1"/>
      </contour>
      <contour>
        <pt x="606" y="584" on="1"/>
        <pt x="606" y="678" on="0"/>
        <pt x="587" y="782" on="1"/>
        <pt x="547" y="782" on="0"/>
        <pt x="499" y="774" on="0"/>
        <pt x="451" y="760" on="0"/>
        <pt x="426" y="751" on="1"/>
        <pt x="367" y="730" on="0"/>
        <pt x="348" y="715" on="1"/>
        <pt x="348" y="535" on="1"/>
        <pt x="606" y="563" on="1"/>
      </contour>
    </TTGlyph>
    <TTGlyph name="eight" xMin="144" yMin="-31" xMax="914" yMax="1298">
      <contour>
        <pt x="855" y="1298" on="1"/>
        <pt x="878" y="1297" on="1"/>
        <pt x="882" y="1296" on="0"/>
        <pt x="885" y="1296" on="1"/>
        <pt x="910" y="1067" on="1"/>
        <pt x="822" y="1063" on="1"/>
        <pt x="466" y="1047" on="0"/>
        <pt x="388" y="1020" on="1"/>
        <pt x="374" y="943" on="0"/>
        <pt x="374" y="861" on="1"/>
        <pt x="374" y="844" on="1"/>
        <pt x="412" y="805" on="0"/>
        <pt x="458" y="768" on="1"/>
        <pt x="551" y="696" on="1"/>
        <pt x="646" y="797" on="1"/>
        <pt x="649" y="824" on="0"/>
        <pt x="649" y="876" on="0"/>
        <pt x="648" y="899" on="1"/>
        <pt x="646" y="946" on="1"/>
        <pt x="666" y="949" on="0"/>
        <pt x="699" y="952" on="0"/>
        <pt x="740" y="957" on="0"/>
        <pt x="761" y="959" on="1"/>
        <pt x="875" y="971" on="1"/>
        <pt x="870" y="900" on="0"/>
        <pt x="864" y="784" on="0"/>
        <pt x="855" y="754" on="1"/>
        <pt x="838" y="699" on="0"/>
        <pt x="801" y="676" on="1"/>
        <pt x="686" y="602" on="1"/>
        <pt x="837" y="495" on="1"/>
        <pt x="914" y="440" on="0"/>
        <pt x="914" y="379" on="1"/>
        <pt x="914" y="258" on="0"/>
        <pt x="874" y="118" on="1"/>
        <pt x="850" y="36" on="0"/>
        <pt x="816" y="0" on="1"/>
        <pt x="770" y="-31" on="0"/>
        <pt x="588" y="-31" on="1"/>
        <pt x="541" y="-31" on="1"/>
        <pt x="381" y="-31" on="0"/>
        <pt x="261" y="2" on="1"/>
        <pt x="198" y="18" on="0"/>
        <pt x="185" y="82" on="1"/>
        <pt x="149" y="212" on="0"/>
        <pt x="149" y="318" on="1"/>
        <pt x="149" y="401" on="0"/>
        <pt x="185" y="463" on="0"/>
        <pt x="204" y="477" on="1"/>
        <pt x="343" y="575" on="1"/>
        <pt x="228" y="651" on="1"/>
        <pt x="176" y="685" on="0"/>
        <pt x="163" y="705" on="1"/>
        <pt x="144" y="738" on="0"/>
        <pt x="144" y="841" on="0"/>
        <pt x="149" y="951" on="0"/>
        <pt x="155" y="1004" on="1"/>
        <pt x="169" y="1132" on="0"/>
        <pt x="204" y="1186" on="0"/>
        <pt x="243" y="1209" on="0"/>
        <pt x="323" y="1232" on="0"/>
        <pt x="459" y="1261" on="0"/>
        <pt x="537" y="1272" on="1"/>
        <pt x="721" y="1298" on="0"/>
      </contour>
      <contour>
        <pt x="384" y="375" on="1"/>
        <pt x="384" y="280" on="0"/>
        <pt x="400" y="197" on="1"/>
        <pt x="464" y="181" on="0"/>
        <pt x="626" y="181" on="0"/>
        <pt x="650" y="184" on="1"/>
        <pt x="672" y="278" on="0"/>
        <pt x="672" y="356" on="1"/>
        <pt x="672" y="367" on="1"/>
        <pt x="502" y="489" on="1"/>
      </contour>
    </TTGlyph>
    <TTGlyph name="ellipsis" xMin="129" yMin="-25" xMax="1394" yMax="285">
      <contour>
        <pt x="388" y="175" on="1"/>
        <pt x="388" y="30" on="0"/>
        <pt x="358" y="-25" on="1"/>
        <pt x="129" y="-2" on="1"/>
        <pt x="137" y="131" on="0"/>
        <pt x="137" y="230" on="0"/>
        <pt x="135" y="260" on="1"/>
        <pt x="377" y="285" on="1"/>
        <pt x="388" y="243" on="0"/>
      </contour>
      <contour>
        <pt x="891" y="175" on="1"/>
        <pt x="891" y="30" on="0"/>
        <pt x="861" y="-25" on="1"/>
        <pt x="632" y="-2" on="1"/>
        <pt x="640" y="131" on="0"/>
        <pt x="640" y="230" on="0"/>
        <pt x="638" y="260" on="1"/>
        <pt x="880" y="285" on="1"/>
        <pt x="891" y="243" on="0"/>
      </contour>
      <contour>
        <pt x="1394" y="175" on="1"/>
        <pt x="1394" y="30" on="0"/>
        <pt x="1364" y="-25" on="1"/>
        <pt x="1135" y="-2" on="1"/>
        <pt x="1143" y="131" on="0"/>
        <pt x="1143" y="230" on="0"/>
        <pt x="1141" y="260" on="1"/>
        <pt x="1383" y="285" on="1"/>
        <pt x="1394" y="243" on="0"/>
      </contour>
    </TTGlyph>
    <TTGlyph name="emdash" xMin="125" yMin="420" xMax="2205" yMax="629">
      <contour>
        <pt x="153" y="629" on="1"/>
        <pt x="2205" y="629" on="1"/>
        <pt x="2187" y="438" on="1"/>
        <pt x="1617" y="420" on="0"/>
        <pt x="645" y="420" on="0"/>
        <pt x="468" y="423" on="0"/>
        <pt x="322" y="428" on="0"/>
        <pt x="194" y="434" on="0"/>
        <pt x="125" y="436" on="1"/>
      </contour>
    </TTGlyph>
    <TTGlyph name="endash" xMin="125" yMin="420" xMax="1183" yMax="629">
      <contour>
        <pt x="153" y="629" on="1"/>
        <pt x="1183" y="629" on="1"/>
        <pt x="1165" y="438" on="1"/>
        <pt x="1165" y="438" on="0"/>
        <pt x="853" y="426" on="1"/>
        <pt x="690" y="420" on="0"/>
        <pt x="555" y="420" on="1"/>
        <pt x="287" y="420" on="0"/>
        <pt x="125" y="430" on="1"/>
      </contour>
    </TTGlyph>
    <TTGlyph name="equal" xMin="176" yMin="242" xMax="938" yMax="827">
      <contour>
        <pt x="215" y="827" on="1"/>
        <pt x="938" y="827" on="1"/>
        <pt x="923" y="647" on="1"/>
        <pt x="798" y="637" on="0"/>
        <pt x="534" y="637" on="0"/>
        <pt x="476" y="638" on="1"/>
        <pt x="362" y="638" on="1"/>
        <pt x="233" y="640" on="0"/>
        <pt x="176" y="643" on="1"/>
      </contour>
      <contour>
        <pt x="215" y="436" on="1"/>
        <pt x="938" y="436" on="1"/>
        <pt x="923" y="256" on="1"/>
        <pt x="718" y="242" on="0"/>
        <pt x="479" y="242" on="0"/>
        <pt x="381" y="243" on="0"/>
        <pt x="288" y="246" on="0"/>
        <pt x="205" y="248" on="0"/>
        <pt x="176" y="250" on="1"/>
      </contour>
    </TTGlyph>
    <TTGlyph name="eth" xMin="121" yMin="-32" xMax="907" yMax="1477">
      <contour>
        <pt x="745" y="1341" on="1"/>
        <pt x="706" y="1291" on="0"/>
        <pt x="632" y="1227" on="1"/>
        <pt x="809" y="1076" on="0"/>
        <pt x="872" y="962" on="1"/>
        <pt x="901" y="909" on="0"/>
        <pt x="907" y="750" on="0"/>
        <pt x="907" y="645" on="0"/>
        <pt x="897" y="529" on="0"/>
        <pt x="881" y="402" on="0"/>
        <pt x="860" y="274" on="0"/>
        <pt x="850" y="218" on="1"/>
        <pt x="828" y="105" on="0"/>
        <pt x="794" y="15" on="0"/>
        <pt x="727" y="-17" on="0"/>
        <pt x="686" y="-23" on="1"/>
        <pt x="626" y="-32" on="0"/>
        <pt x="492" y="-32" on="0"/>
        <pt x="423" y="-30" on="0"/>
        <pt x="392" y="-28" on="1"/>
        <pt x="328" y="-25" on="0"/>
        <pt x="250" y="-14" on="0"/>
        <pt x="199" y="25" on="0"/>
        <pt x="188" y="76" on="1"/>
        <pt x="121" y="393" on="0"/>
        <pt x="121" y="612" on="1"/>
        <pt x="121" y="694" on="0"/>
        <pt x="136" y="723" on="1"/>
        <pt x="186" y="817" on="0"/>
        <pt x="432" y="870" on="1"/>
        <pt x="468" y="877" on="0"/>
        <pt x="501" y="882" on="1"/>
        <pt x="567" y="708" on="1"/>
        <pt x="405" y="631" on="0"/>
        <pt x="370" y="610" on="1"/>
        <pt x="366" y="554" on="0"/>
        <pt x="366" y="447" on="0"/>
        <pt x="371" y="374" on="0"/>
        <pt x="380" y="305" on="0"/>
        <pt x="387" y="268" on="1"/>
        <pt x="403" y="184" on="1"/>
        <pt x="602" y="193" on="1"/>
        <pt x="663" y="409" on="0"/>
        <pt x="663" y="688" on="1"/>
        <pt x="663" y="827" on="0"/>
        <pt x="643" y="909" on="1"/>
        <pt x="608" y="948" on="0"/>
        <pt x="560" y="994" on="1"/>
        <pt x="455" y="1090" on="1"/>
        <pt x="343" y="1009" on="0"/>
        <pt x="260" y="963" on="1"/>
        <pt x="157" y="1083" on="1"/>
        <pt x="307" y="1207" on="1"/>
        <pt x="224" y="1264" on="1"/>
        <pt x="183" y="1292" on="0"/>
        <pt x="139" y="1317" on="1"/>
        <pt x="252" y="1477" on="1"/>
        <pt x="374" y="1413" on="0"/>
        <pt x="470" y="1348" on="1"/>
        <pt x="556" y="1423" on="0"/>
        <pt x="602" y="1477" on="1"/>
      </contour>
    </TTGlyph>
    <TTGlyph name="exclam" xMin="166" yMin="-31" xMax="434" yMax="1371">
      <contour>
        <pt x="186" y="1326" on="1"/>
        <pt x="430" y="1371" on="1"/>
        <pt x="434" y="1087" on="1"/>
        <pt x="387" y="448" on="1"/>
        <pt x="196" y="460" on="1"/>
      </contour>
      <contour>
        <pt x="411" y="268" on="1"/>
        <pt x="422" y="230" on="0"/>
        <pt x="422" y="139" on="0"/>
        <pt x="416" y="77" on="0"/>
        <pt x="412" y="50" on="1"/>
        <pt x="402" y="-7" on="0"/>
        <pt x="389" y="-31" on="1"/>
        <pt x="166" y="-6" on="1"/>
        <pt x="175" y="63" on="0"/>
        <pt x="180" y="230" on="0"/>
        <pt x="182" y="256" on="1"/>
      </contour>
    </TTGlyph>
    <TTGlyph name="exclamdown" xMin="141" yMin="-410" xMax="409" yMax="992">
      <contour>
        <pt x="164" y="693" on="1"/>
        <pt x="153" y="732" on="0"/>
        <pt x="153" y="822" on="0"/>
        <pt x="159" y="884" on="0"/>
        <pt x="164" y="911" on="1"/>
        <pt x="173" y="968" on="0"/>
        <pt x="186" y="992" on="1"/>
        <pt x="409" y="967" on="1"/>
        <pt x="402" y="913" on="0"/>
        <pt x="400" y="855" on="1"/>
        <pt x="396" y="764" on="1"/>
        <pt x="394" y="731" on="0"/>
        <pt x="393" y="705" on="1"/>
      </contour>
      <contour>
        <pt x="188" y="513" on="1"/>
        <pt x="379" y="501" on="1"/>
        <pt x="389" y="-365" on="1"/>
        <pt x="145" y="-410" on="1"/>
        <pt x="141" y="-126" on="1"/>
      </contour>
    </TTGlyph>
    <TTGlyph name="f" xMin="101" yMin="-16" xMax="584" yMax="1477">
      <contour>
        <pt x="125" y="205" on="0"/>
        <pt x="116" y="542" on="0"/>
        <pt x="113" y="666" on="1"/>
        <pt x="113" y="666" on="0"/>
        <pt x="108" y="876" on="1"/>
        <pt x="106" y="961" on="0"/>
        <pt x="103" y="1072" on="0"/>
        <pt x="102" y="1132" on="0"/>
        <pt x="101" y="1160" on="0"/>
        <pt x="101" y="1162" on="1"/>
        <pt x="101" y="1165" on="1"/>
        <pt x="101" y="1201" on="0"/>
        <pt x="149" y="1260" on="0"/>
        <pt x="195" y="1306" on="0"/>
        <pt x="224" y="1339" on="1"/>
        <pt x="347" y="1477" on="1"/>
        <pt x="506" y="1309" on="1"/>
        <pt x="345" y="1130" on="1"/>
        <pt x="355" y="942" on="1"/>
        <pt x="562" y="985" on="1"/>
        <pt x="584" y="758" on="1"/>
        <pt x="355" y="741" on="1"/>
        <pt x="343" y="0" on="1"/>
        <pt x="130" y="-16" on="1"/>
      </contour>
    </TTGlyph>
    <TTGlyph name="five" xMin="55" yMin="-350" xMax="772" yMax="1026">
      <contour>
        <pt x="702" y="1026" on="1"/>
        <pt x="734" y="1025" on="1"/>
        <pt x="740" y="1024" on="0"/>
        <pt x="745" y="1024" on="1"/>
        <pt x="755" y="788" on="1"/>
        <pt x="747" y="789" on="0"/>
        <pt x="730" y="790" on="1"/>
        <pt x="696" y="790" on="1"/>
        <pt x="678" y="791" on="0"/>
        <pt x="661" y="791" on="1"/>
        <pt x="635" y="791" on="1"/>
        <pt x="491" y="791" on="0"/>
        <pt x="366" y="771" on="1"/>
        <pt x="341" y="554" on="1"/>
        <pt x="523" y="520" on="0"/>
        <pt x="692" y="452" on="1"/>
        <pt x="737" y="434" on="0"/>
        <pt x="750" y="380" on="1"/>
        <pt x="772" y="294" on="0"/>
        <pt x="772" y="208" on="1"/>
        <pt x="772" y="67" on="0"/>
        <pt x="753" y="29" on="1"/>
        <pt x="627" y="-104" on="0"/>
        <pt x="338" y="-265" on="1"/>
        <pt x="223" y="-329" on="0"/>
        <pt x="166" y="-350" on="1"/>
        <pt x="55" y="-131" on="1"/>
        <pt x="246" y="-43" on="0"/>
        <pt x="296" y="-18" on="1"/>
        <pt x="422" y="44" on="0"/>
        <pt x="522" y="111" on="1"/>
        <pt x="526" y="139" on="0"/>
        <pt x="526" y="176" on="1"/>
        <pt x="526" y="256" on="0"/>
        <pt x="493" y="280" on="0"/>
        <pt x="401" y="313" on="0"/>
        <pt x="344" y="330" on="1"/>
        <pt x="116" y="393" on="1"/>
        <pt x="149" y="956" on="1"/>
        <pt x="454" y="1026" on="0"/>
      </contour>
    </TTGlyph>
    <TTGlyph name="foundryicon" xMin="103" yMin="-177" xMax="1999" yMax="1305">
      <contour>
        <pt x="1099" y="1110" on="1"/>
        <pt x="1344" y="1113" on="1"/>
        <pt x="1542" y="1113" on="0"/>
        <pt x="1743" y="1052" on="0"/>
        <pt x="1864" y="975" on="0"/>
        <pt x="1908" y="916" on="1"/>
        <pt x="1999" y="792" on="0"/>
        <pt x="1999" y="579" on="1"/>
        <pt x="1999" y="462" on="0"/>
        <pt x="1927" y="244" on="0"/>
        <pt x="1858" y="110" on="0"/>
        <pt x="1814" y="58" on="1"/>
        <pt x="1718" y="-57" on="0"/>
        <pt x="1605" y="-57" on="1"/>
        <pt x="1570" y="-57" on="0"/>
        <pt x="1506" y="-28" on="0"/>
        <pt x="1472" y="-10" on="1"/>
        <pt x="1383" y="36" on="0"/>
        <pt x="1299" y="36" on="0"/>
        <pt x="1237" y="27" on="0"/>
        <pt x="1138" y="-58" on="0"/>
        <pt x="996" y="-128" on="0"/>
        <pt x="925" y="-147" on="1"/>
        <pt x="813" y="-177" on="0"/>
        <pt x="537" y="-177" on="0"/>
        <pt x="341" y="-96" on="0"/>
        <pt x="266" y="-26" on="1"/>
        <pt x="103" y="129" on="0"/>
        <pt x="103" y="341" on="1"/>
        <pt x="103" y="421" on="0"/>
        <pt x="153" y="503" on="0"/>
        <pt x="189" y="542" on="0"/>
        <pt x="204" y="561" on="1"/>
        <pt x="270" y="641" on="0"/>
        <pt x="233" y="737" on="1"/>
        <pt x="219" y="773" on="0"/>
        <pt x="185" y="843" on="0"/>
        <pt x="155" y="921" on="0"/>
        <pt x="155" y="1044" on="0"/>
        <pt x="229" y="1165" on="0"/>
        <pt x="288" y="1210" on="1"/>
        <pt x="413" y="1305" on="0"/>
        <pt x="559" y="1305" on="1"/>
        <pt x="668" y="1305" on="0"/>
        <pt x="944" y="1110" on="0"/>
        <pt x="1074" y="1110" on="1"/>
      </contour>
      <contour>
        <pt x="1073" y="603" on="1"/>
        <pt x="1077" y="583" on="0"/>
        <pt x="1077" y="562" on="1"/>
        <pt x="1077" y="404" on="0"/>
        <pt x="964" y="307" on="1"/>
        <pt x="859" y="218" on="0"/>
        <pt x="701" y="218" on="1"/>
        <pt x="512" y="218" on="0"/>
        <pt x="377" y="359" on="1"/>
        <pt x="335" y="403" on="0"/>
        <pt x="305" y="458" on="1"/>
        <pt x="270" y="446" on="1"/>
        <pt x="258" y="396" on="0"/>
        <pt x="258" y="260" on="0"/>
        <pt x="331" y="116" on="0"/>
        <pt x="392" y="66" on="1"/>
        <pt x="520" y="-38" on="0"/>
        <pt x="708" y="-38" on="1"/>
        <pt x="920" y="-38" on="0"/>
        <pt x="1046" y="101" on="1"/>
        <pt x="1164" y="230" on="0"/>
        <pt x="1164" y="416" on="1"/>
        <pt x="1164" y="544" on="0"/>
        <pt x="1106" y="654" on="1"/>
        <pt x="1044" y="624" on="0"/>
        <pt x="913" y="624" on="0"/>
        <pt x="849" y="631" on="0"/>
        <pt x="820" y="638" on="1"/>
        <pt x="756" y="654" on="0"/>
        <pt x="728" y="675" on="1"/>
        <pt x="714" y="652" on="1"/>
        <pt x="732" y="625" on="0"/>
        <pt x="752" y="611" on="1"/>
        <pt x="726" y="389" on="0"/>
        <pt x="699" y="304" on="1"/>
        <pt x="668" y="305" on="1"/>
        <pt x="656" y="337" on="0"/>
        <pt x="656" y="501" on="0"/>
        <pt x="667" y="664" on="0"/>
        <pt x="685" y="744" on="1"/>
        <pt x="725" y="923" on="0"/>
        <pt x="825" y="1037" on="1"/>
        <pt x="841" y="1037" on="0"/>
        <pt x="875" y="1025" on="0"/>
        <pt x="877" y="1023" on="1"/>
        <pt x="766" y="932" on="0"/>
        <pt x="766" y="811" on="1"/>
        <pt x="766" y="746" on="0"/>
        <pt x="811" y="699" on="1"/>
        <pt x="857" y="651" on="0"/>
        <pt x="970" y="651" on="0"/>
        <pt x="1046" y="681" on="0"/>
        <pt x="1072" y="706" on="1"/>
        <pt x="1127" y="759" on="0"/>
        <pt x="1127" y="839" on="1"/>
        <pt x="1127" y="843" on="1"/>
        <pt x="1123" y="955" on="0"/>
        <pt x="1015" y="1014" on="1"/>
        <pt x="923" y="1064" on="0"/>
        <pt x="704" y="1064" on="0"/>
        <pt x="536" y="1006" on="0"/>
        <pt x="470" y="952" on="1"/>
        <pt x="324" y="833" on="0"/>
        <pt x="324" y="643" on="1"/>
        <pt x="324" y="488" on="0"/>
        <pt x="432" y="378" on="1"/>
        <pt x="542" y="266" on="0"/>
        <pt x="705" y="266" on="1"/>
        <pt x="917" y="266" on="0"/>
        <pt x="1003" y="438" on="1"/>
        <pt x="1034" y="500" on="0"/>
        <pt x="1039" y="591" on="1"/>
      </contour>
      <contour>
        <pt x="1166" y="838" on="1"/>
        <pt x="1164" y="830" on="0"/>
        <pt x="1164" y="829" on="1"/>
        <pt x="1189" y="796" on="0"/>
        <pt x="1237" y="770" on="1"/>
        <pt x="1192" y="284" on="1"/>
        <pt x="1470" y="284" on="1"/>
        <pt x="1472" y="304" on="0"/>
        <pt x="1477" y="373" on="0"/>
        <pt x="1480" y="414" on="1"/>
        <pt x="1496" y="590" on="0"/>
        <pt x="1540" y="690" on="1"/>
        <pt x="1562" y="742" on="0"/>
        <pt x="1610" y="780" on="1"/>
        <pt x="1639" y="742" on="1"/>
        <pt x="1594" y="713" on="0"/>
        <pt x="1546" y="624" on="0"/>
        <pt x="1546" y="533" on="0"/>
        <pt x="1610" y="461" on="0"/>
        <pt x="1682" y="456" on="1"/>
        <pt x="1781" y="456" on="0"/>
        <pt x="1845" y="533" on="1"/>
        <pt x="1906" y="607" on="0"/>
        <pt x="1906" y="706" on="1"/>
        <pt x="1906" y="835" on="0"/>
        <pt x="1804" y="882" on="1"/>
        <pt x="1771" y="897" on="0"/>
        <pt x="1723" y="897" on="1"/>
        <pt x="1552" y="897" on="0"/>
        <pt x="1488" y="670" on="1"/>
        <pt x="1480" y="639" on="0"/>
        <pt x="1475" y="609" on="1"/>
        <pt x="1437" y="633" on="1"/>
        <pt x="1526" y="865" on="1"/>
        <pt x="1496" y="893" on="1"/>
        <pt x="1350" y="848" on="0"/>
        <pt x="1167" y="839" on="1"/>
        <pt x="1166" y="839" on="0"/>
      </contour>
    </TTGlyph>
    <TTGlyph name="four" xMin="78" yMin="-283" xMax="1016" yMax="1016">
      <contour>
        <pt x="823" y="232" on="1"/>
        <pt x="956" y="225" on="0"/>
        <pt x="1016" y="225" on="1"/>
        <pt x="989" y="4" on="1"/>
        <pt x="947" y="4" on="0"/>
        <pt x="902" y="6" on="1"/>
        <pt x="810" y="10" on="1"/>
        <pt x="794" y="-262" on="1"/>
        <pt x="583" y="-283" on="1"/>
        <pt x="588" y="28" on="1"/>
        <pt x="266" y="58" on="0"/>
        <pt x="82" y="111" on="1"/>
        <pt x="78" y="268" on="1"/>
        <pt x="165" y="537" on="0"/>
        <pt x="223" y="838" on="1"/>
        <pt x="258" y="1016" on="1"/>
        <pt x="489" y="981" on="1"/>
        <pt x="489" y="869" on="0"/>
        <pt x="423" y="633" on="0"/>
        <pt x="399" y="557" on="1"/>
        <pt x="309" y="279" on="1"/>
        <pt x="340" y="272" on="0"/>
        <pt x="396" y="266" on="1"/>
        <pt x="496" y="256" on="1"/>
        <pt x="542" y="251" on="0"/>
        <pt x="592" y="247" on="1"/>
        <pt x="600" y="674" on="1"/>
        <pt x="833" y="713" on="1"/>
        <pt x="839" y="673" on="0"/>
        <pt x="839" y="606" on="1"/>
        <pt x="839" y="498" on="0"/>
        <pt x="833" y="393" on="1"/>
      </contour>
    </TTGlyph>
    <TTGlyph name="g" xMin="109" yMin="-549" xMax="892" yMax="1055">
      <contour>
        <pt x="406" y="211" on="1"/>
        <pt x="538" y="211" on="0"/>
        <pt x="613" y="221" on="1"/>
        <pt x="609" y="647" on="1"/>
        <pt x="832" y="688" on="1"/>
        <pt x="836" y="495" on="0"/>
        <pt x="841" y="222" on="0"/>
        <pt x="845" y="36" on="0"/>
        <pt x="846" y="-19" on="1"/>
        <pt x="848" y="-104" on="1"/>
        <pt x="848" y="-133" on="0"/>
        <pt x="848" y="-142" on="1"/>
        <pt x="848" y="-154" on="1"/>
        <pt x="848" y="-205" on="0"/>
        <pt x="772" y="-259" on="1"/>
        <pt x="540" y="-422" on="0"/>
        <pt x="299" y="-549" on="1"/>
        <pt x="177" y="-330" on="1"/>
        <pt x="504" y="-177" on="0"/>
        <pt x="632" y="-103" on="1"/>
        <pt x="617" y="125" on="1"/>
        <pt x="474" y="0" on="1"/>
        <pt x="308" y="0" on="1"/>
        <pt x="237" y="0" on="0"/>
        <pt x="214" y="48" on="1"/>
        <pt x="200" y="78" on="1"/>
        <pt x="109" y="297" on="0"/>
        <pt x="109" y="638" on="1"/>
        <pt x="109" y="833" on="0"/>
        <pt x="138" y="884" on="1"/>
        <pt x="149" y="904" on="0"/>
        <pt x="258" y="937" on="0"/>
        <pt x="423" y="976" on="0"/>
        <pt x="593" y="1010" on="0"/>
        <pt x="678" y="1025" on="1"/>
        <pt x="843" y="1055" on="1"/>
        <pt x="892" y="825" on="1"/>
        <pt x="577" y="776" on="1"/>
        <pt x="403" y="748" on="0"/>
        <pt x="361" y="733" on="1"/>
        <pt x="351" y="693" on="0"/>
        <pt x="351" y="622" on="1"/>
        <pt x="351" y="366" on="0"/>
      </contour>
    </TTGlyph>
    <TTGlyph name="germandbls" xMin="139" yMin="-43" xMax="1039" yMax="1462">
      <contour>
        <pt x="388" y="1229" on="1"/>
        <pt x="402" y="741" on="1"/>
        <pt x="390" y="0" on="1"/>
        <pt x="168" y="-16" on="1"/>
        <pt x="139" y="1173" on="1"/>
        <pt x="139" y="1212" on="0"/>
        <pt x="165" y="1265" on="0"/>
        <pt x="208" y="1296" on="1"/>
        <pt x="354" y="1402" on="1"/>
        <pt x="429" y="1455" on="0"/>
        <pt x="489" y="1462" on="0"/>
        <pt x="528" y="1462" on="1"/>
        <pt x="615" y="1462" on="0"/>
        <pt x="737" y="1433" on="1"/>
        <pt x="775" y="1423" on="0"/>
        <pt x="825" y="1378" on="1"/>
        <pt x="919" y="1291" on="0"/>
        <pt x="925" y="1249" on="1"/>
        <pt x="932" y="1205" on="0"/>
        <pt x="932" y="1148" on="1"/>
        <pt x="932" y="1070" on="0"/>
        <pt x="917" y="959" on="1"/>
        <pt x="714" y="831" on="1"/>
        <pt x="724" y="763" on="1"/>
        <pt x="981" y="628" on="1"/>
        <pt x="1039" y="598" on="0"/>
        <pt x="1039" y="521" on="1"/>
        <pt x="1039" y="489" on="0"/>
        <pt x="1028" y="380" on="1"/>
        <pt x="1006" y="147" on="1"/>
        <pt x="1002" y="113" on="0"/>
        <pt x="974" y="93" on="1"/>
        <pt x="881" y="28" on="0"/>
        <pt x="628" y="-26" on="1"/>
        <pt x="577" y="-37" on="0"/>
        <pt x="528" y="-43" on="1"/>
        <pt x="490" y="194" on="1"/>
        <pt x="532" y="199" on="0"/>
        <pt x="568" y="204" on="1"/>
        <pt x="637" y="214" on="1"/>
        <pt x="698" y="223" on="0"/>
        <pt x="786" y="243" on="1"/>
        <pt x="793" y="466" on="1"/>
        <pt x="559" y="599" on="1"/>
        <pt x="501" y="633" on="0"/>
        <pt x="496" y="701" on="1"/>
        <pt x="481" y="912" on="1"/>
        <pt x="504" y="942" on="0"/>
        <pt x="555" y="982" on="1"/>
        <pt x="677" y="1077" on="0"/>
        <pt x="704" y="1100" on="1"/>
        <pt x="706" y="1132" on="1"/>
        <pt x="706" y="1142" on="0"/>
        <pt x="706" y="1164" on="1"/>
        <pt x="706" y="1208" on="0"/>
        <pt x="698" y="1236" on="1"/>
        <pt x="619" y="1255" on="0"/>
        <pt x="443" y="1250" on="0"/>
      </contour>
    </TTGlyph>
    <TTGlyph name="grave" xMin="22" yMin="1117" xMax="504" yMax="1591">
      <contour>
        <pt x="395" y="1117" on="1"/>
        <pt x="347" y="1145" on="0"/>
        <pt x="310" y="1173" on="1"/>
        <pt x="155" y="1294" on="0"/>
        <pt x="110" y="1344" on="1"/>
        <pt x="42" y="1419" on="0"/>
        <pt x="22" y="1455" on="1"/>
        <pt x="217" y="1591" on="1"/>
        <pt x="504" y="1220" on="1"/>
      </contour>
    </TTGlyph>
    <TTGlyph name="grave.cap" xMin="10" yMin="1404" xMax="518" yMax="1820">
      <contour>
        <pt x="438" y="1404" on="1"/>
        <pt x="331" y="1428" on="0"/>
        <pt x="234" y="1484" on="1"/>
        <pt x="62" y="1582" on="0"/>
        <pt x="10" y="1646" on="1"/>
        <pt x="174" y="1820" on="1"/>
        <pt x="518" y="1527" on="1"/>
      </contour>
    </TTGlyph>
    <TTGlyph name="greater" xMin="137" yMin="-28" xMax="930" yMax="1028">
      <contour>
        <pt x="690" y="506" on="1"/>
        <pt x="137" y="858" on="1"/>
        <pt x="258" y="1028" on="1"/>
        <pt x="930" y="580" on="1"/>
        <pt x="889" y="408" on="1"/>
        <pt x="254" y="-28" on="1"/>
        <pt x="137" y="133" on="1"/>
      </contour>
    </TTGlyph>
    <TTGlyph name="guillemotleft" xMin="80" yMin="41" xMax="1107" yMax="991">
      <contour>
        <pt x="624" y="587" on="1"/>
        <pt x="958" y="991" on="1"/>
        <pt x="1103" y="872" on="1"/>
        <pt x="870" y="516" on="1"/>
        <pt x="1107" y="157" on="1"/>
        <pt x="966" y="41" on="1"/>
        <pt x="602" y="446" on="1"/>
      </contour>
      <contour>
        <pt x="80" y="446" on="1"/>
        <pt x="102" y="587" on="1"/>
        <pt x="436" y="991" on="1"/>
        <pt x="581" y="872" on="1"/>
        <pt x="348" y="516" on="1"/>
        <pt x="585" y="157" on="1"/>
        <pt x="444" y="41" on="1"/>
      </contour>
    </TTGlyph>
    <TTGlyph name="guillemotright" xMin="85" yMin="35" xMax="1115" yMax="985">
      <contour>
        <pt x="847" y="510" on="1"/>
        <pt x="610" y="869" on="1"/>
        <pt x="751" y="985" on="1"/>
        <pt x="1115" y="580" on="1"/>
        <pt x="1093" y="439" on="1"/>
        <pt x="759" y="35" on="1"/>
        <pt x="614" y="154" on="1"/>
      </contour>
      <contour>
        <pt x="322" y="510" on="1"/>
        <pt x="85" y="869" on="1"/>
        <pt x="226" y="985" on="1"/>
        <pt x="590" y="580" on="1"/>
        <pt x="568" y="439" on="1"/>
        <pt x="234" y="35" on="1"/>
        <pt x="89" y="154" on="1"/>
      </contour>
    </TTGlyph>
    <TTGlyph name="guilsinglleft" xMin="80" yMin="23" xMax="585" yMax="973">
      <contour>
        <pt x="102" y="569" on="1"/>
        <pt x="436" y="973" on="1"/>
        <pt x="581" y="854" on="1"/>
        <pt x="348" y="498" on="1"/>
        <pt x="585" y="139" on="1"/>
        <pt x="444" y="23" on="1"/>
        <pt x="80" y="428" on="1"/>
      </contour>
    </TTGlyph>
    <TTGlyph name="guilsinglright" xMin="85" yMin="35" xMax="590" yMax="985">
      <contour>
        <pt x="322" y="510" on="1"/>
        <pt x="85" y="869" on="1"/>
        <pt x="226" y="985" on="1"/>
        <pt x="590" y="580" on="1"/>
        <pt x="568" y="439" on="1"/>
        <pt x="234" y="35" on="1"/>
        <pt x="89" y="154" on="1"/>
      </contour>
    </TTGlyph>
    <TTGlyph name="h" xMin="130" yMin="-72" xMax="893" yMax="1475">
      <contour>
        <pt x="645" y="555" on="1"/>
        <pt x="645" y="698" on="0"/>
        <pt x="633" y="764" on="1"/>
        <pt x="563" y="764" on="1"/>
        <pt x="503" y="764" on="0"/>
        <pt x="470" y="752" on="1"/>
        <pt x="417" y="734" on="0"/>
        <pt x="385" y="719" on="1"/>
        <pt x="370" y="12" on="1"/>
        <pt x="153" y="0" on="1"/>
        <pt x="150" y="385" on="0"/>
        <pt x="142" y="582" on="1"/>
        <pt x="130" y="847" on="0"/>
        <pt x="130" y="1040" on="1"/>
        <pt x="130" y="1170" on="0"/>
        <pt x="135" y="1425" on="1"/>
        <pt x="374" y="1475" on="1"/>
        <pt x="385" y="842" on="1"/>
        <pt x="544" y="983" on="1"/>
        <pt x="766" y="983" on="1"/>
        <pt x="803" y="983" on="0"/>
        <pt x="834" y="955" on="1"/>
        <pt x="889" y="904" on="0"/>
        <pt x="893" y="826" on="0"/>
        <pt x="893" y="786" on="1"/>
        <pt x="893" y="708" on="1"/>
        <pt x="893" y="574" on="0"/>
        <pt x="889" y="516" on="1"/>
        <pt x="858" y="-35" on="1"/>
        <pt x="636" y="-72" on="1"/>
      </contour>
    </TTGlyph>
    <TTGlyph name="hbar" xMin="-2" yMin="-72" xMax="893" yMax="1475">
      <contour>
        <pt x="645" y="555" on="1"/>
        <pt x="645" y="698" on="0"/>
        <pt x="633" y="764" on="1"/>
        <pt x="563" y="764" on="1"/>
        <pt x="503" y="764" on="0"/>
        <pt x="470" y="752" on="1"/>
        <pt x="417" y="734" on="0"/>
        <pt x="385" y="719" on="1"/>
        <pt x="370" y="12" on="1"/>
        <pt x="153" y="0" on="1"/>
        <pt x="150" y="385" on="0"/>
        <pt x="142" y="582" on="1"/>
        <pt x="130" y="847" on="0"/>
        <pt x="130" y="1040" on="1"/>
        <pt x="130" y="1097" on="1"/>
        <pt x="37" y="1104" on="0"/>
        <pt x="-2" y="1110" on="1"/>
        <pt x="10" y="1245" on="1"/>
        <pt x="68" y="1242" on="0"/>
        <pt x="131" y="1242" on="1"/>
        <pt x="132" y="1287" on="0"/>
        <pt x="133" y="1377" on="0"/>
        <pt x="135" y="1425" on="1"/>
        <pt x="374" y="1475" on="1"/>
        <pt x="378" y="1247" on="1"/>
        <pt x="554" y="1254" on="0"/>
        <pt x="721" y="1266" on="1"/>
        <pt x="702" y="1102" on="1"/>
        <pt x="624" y="1093" on="0"/>
        <pt x="380" y="1093" on="1"/>
        <pt x="385" y="842" on="1"/>
        <pt x="544" y="983" on="1"/>
        <pt x="766" y="983" on="1"/>
        <pt x="803" y="983" on="0"/>
        <pt x="834" y="955" on="1"/>
        <pt x="889" y="904" on="0"/>
        <pt x="893" y="826" on="0"/>
        <pt x="893" y="786" on="1"/>
        <pt x="893" y="708" on="1"/>
        <pt x="893" y="574" on="0"/>
        <pt x="889" y="516" on="1"/>
        <pt x="858" y="-35" on="1"/>
        <pt x="636" y="-72" on="1"/>
      </contour>
    </TTGlyph>
    <TTGlyph name="hyphen" xMin="125" yMin="413" xMax="828" yMax="639">
      <contour>
        <pt x="153" y="629" on="1"/>
        <pt x="828" y="639" on="1"/>
        <pt x="818" y="432" on="1"/>
        <pt x="721" y="428" on="0"/>
        <pt x="635" y="421" on="0"/>
        <pt x="579" y="418" on="0"/>
        <pt x="546" y="416" on="1"/>
        <pt x="469" y="413" on="0"/>
        <pt x="325" y="413" on="0"/>
        <pt x="270" y="414" on="0"/>
        <pt x="226" y="417" on="0"/>
        <pt x="173" y="421" on="0"/>
        <pt x="125" y="424" on="1"/>
      </contour>
    </TTGlyph>
    <TTGlyph name="i" xMin="137" yMin="-18" xMax="410" yMax="1505">
      <contour>
        <pt x="399" y="1505" on="1"/>
        <pt x="410" y="1466" on="0"/>
        <pt x="410" y="1369" on="0"/>
        <pt x="404" y="1302" on="0"/>
        <pt x="400" y="1273" on="1"/>
        <pt x="390" y="1210" on="0"/>
        <pt x="377" y="1187" on="1"/>
        <pt x="147" y="1197" on="1"/>
        <pt x="164" y="1285" on="0"/>
        <pt x="164" y="1478" on="1"/>
      </contour>
      <contour>
        <pt x="391" y="1001" on="1"/>
        <pt x="396" y="898" on="0"/>
        <pt x="396" y="758" on="0"/>
        <pt x="393" y="664" on="1"/>
        <pt x="370" y="0" on="1"/>
        <pt x="157" y="-18" on="1"/>
        <pt x="137" y="969" on="1"/>
      </contour>
    </TTGlyph>
    <TTGlyph name="iacute" xMin="166" yMin="-18" xMax="635" yMax="1589">
      <contour>
        <pt x="172" y="1220" on="1"/>
        <pt x="461" y="1589" on="1"/>
        <pt x="635" y="1425" on="1"/>
        <pt x="586" y="1354" on="0"/>
        <pt x="488" y="1270" on="1"/>
        <pt x="355" y="1161" on="0"/>
        <pt x="280" y="1117" on="1"/>
      </contour>
      <contour>
        <pt x="420" y="1001" on="1"/>
        <pt x="425" y="898" on="0"/>
        <pt x="425" y="758" on="0"/>
        <pt x="422" y="664" on="1"/>
        <pt x="399" y="0" on="1"/>
        <pt x="186" y="-18" on="1"/>
        <pt x="166" y="969" on="1"/>
      </contour>
    </TTGlyph>
</ttFont>
